<?xml version="1.0" encoding="UTF-8"?>
<svg width="61px" height="51px" viewBox="0 0 61 51" version="1.1" xmlns="http://www.w3.org/2000/svg" xmlns:xlink="http://www.w3.org/1999/xlink">
    <title>Group 7</title>
    <defs>
        <radialGradient cx="50%" cy="0%" fx="50%" fy="0%" r="100%" gradientTransform="translate(0.500000,0.000000),scale(0.909091,1.000000),rotate(90.000000),translate(-0.500000,-0.000000)" id="radialGradient-1">
            <stop stop-color="#00B8CA" offset="0%"></stop>
            <stop stop-color="#00758B" offset="100%"></stop>
        </radialGradient>
    </defs>
    <g id="Page-1" stroke="none" stroke-width="1" fill="none" fill-rule="evenodd">
        <g id="About-Us" transform="translate(-262.000000, -1515.000000)">
            <g id="Group-2" transform="translate(0.000000, 1218.000000)">
                <g id="Group-6" transform="translate(165.000000, 274.000000)">
                    <g id="Group-7" transform="translate(98.000000, 24.000000)">
                        <circle id="Oval" fill="#F9F9F9" cx="35" cy="25" r="25"></circle>
                        <path d="M54.0236686,38.5869565 L49.9013807,38.5869565 L39.8126233,31.3043478 L40.6804734,5.43478261 L40.6804734,5.43478261 C40.6579705,3.88752978 39.9433483,2.41473668 38.7278107,1.52173913 C37.4751713,0.536460713 35.8685701,0.242565269 34.3885602,0.652173913 L31.7850099,1.30434783 C30.6605548,0.423503451 29.2702768,-0.0534066757 27.8796844,0 C26.4307629,0.062938217 25.0841614,0.651961959 24.0828402,1.63043478 C23.6108547,2.19783482 23.1273896,2.40720257 23.1065089,3.04347826 C23.1307764,3.25742612 23.2332276,3.49651718 23.4319527,3.69565217 L30.1577909,10.4347826 L30.1577909,10.4347826 C30.4860866,10.7665292 31.0834358,10.7665292 31.4595661,10.4347826 L32.1104536,9.7826087 C32.9885329,8.85845381 33.5465624,7.72966396 33.7376726,6.52173913 C33.8881819,5.29591875 33.6629608,4.05621552 33.086785,2.93478261 C34.1371162,2.76858971 36.3940095,1.69378886 37.9684418,3.26086957 C38.4701602,3.85704545 38.7614271,4.60911903 38.7278107,5.43478261 L37.9684418,30.9782609 L19.9605523,30.9782609 L19.9605523,28.1521739 C19.912474,27.6161324 20.1123021,27.1319926 20.5029586,26.7391304 C20.8235244,26.4185462 21.3061551,26.2180933 21.8047337,26.1956522 L21.8047337,27.173913 C21.8090958,27.4216263 21.9090077,27.6636962 22.1301775,27.826087 C22.2646232,28.0204194 22.5059364,28.1206458 22.7810651,28.1521739 L33.1952663,28.1521739 C33.4402974,28.1206458 33.6816127,28.0204215 33.8461538,27.826087 C34.0372239,27.663694 34.1371379,27.4216263 34.1715976,27.173913 L34.1715976,23.3695652 C34.1371379,23.1120078 34.037226,22.8699379 33.8461538,22.7173913 C33.6816105,22.5132147 33.4402974,22.4129882 33.1952663,22.3913043 L22.7810651,22.3913043 C22.2337224,22.4129882 21.8090958,22.8389426 21.8047337,23.3695652 L21.8047337,24.3478261 C20.8032143,24.3155408 19.8383432,24.7164358 19.0927022,25.4347826 C18.4154974,26.1437742 18.0158521,27.1116407 18.0078895,28.1521739 L18.0078895,30.9782609 L16.5976331,30.9782609 L4.77317554,12.9347826 C4.64472221,12.7601651 4.42034643,12.6115268 4.12228797,12.6086957 C3.9118892,12.5180962 3.64984109,12.5771265 3.47140039,12.7173913 L0.433925049,15 C-0.02149861,15.2844065 -0.121835325,15.8543243 0.108481262,16.3043478 L13.4516765,36.3043478 C13.6100429,36.5199043 13.9055366,36.6804363 14.2110454,36.6304348 L20.8284024,36.6304348 L20.8284024,39.5652174 C20.8608066,39.7882178 20.9607184,40.0302877 21.1538462,40.2173913 C21.316334,40.3870109 21.5576471,40.4872373 21.8047337,40.4347826 L22.7810651,40.4347826 L22.7810651,48.0434783 L18.9842209,48.0434783 L18.9842209,50 L36.0157791,50 L36.0157791,48.0434783 L32.2189349,48.0434783 L32.2189349,40.4347826 L33.1952663,40.4347826 C33.440319,40.4872373 33.6816344,40.387013 33.8461538,40.2173913 C34.0372455,40.0302855 34.1371596,39.7882178 34.1715976,39.5652174 L34.1715976,36.6304348 L37.642998,36.6304348 C48.1814819,44.2923424 47.7835164,44.2923424 48.382643,44.2391304 L54.0236686,44.2391304 C54.3031595,44.2923424 54.5444748,44.1921181 54.6745562,44.0217391 C54.900086,43.8353906 55,43.5933228 55,43.3695652 L55,39.5652174 C55,39.2837043 54.9000881,39.0416344 54.6745562,38.9130435 C54.5444726,38.6849113 54.3031595,38.5846848 54.0236686,38.5869565 L54.0236686,38.5869565 Z M30.8086785,8.36956522 L25.4930966,3.04347826 C26.4566868,2.08379028 27.8313098,1.73871334 29.0729783,2.06521739 C30.3960706,2.44882684 31.3984867,3.45240878 31.7850099,4.7826087 C32.1113592,6.02284884 31.7692984,7.40157198 30.8086785,8.36956522 L30.8086785,8.36956522 Z M23.7573964,24.3478261 L32.3274162,24.3478261 L32.3274162,26.3043478 L23.7573964,26.3043478 L23.7573964,24.3478261 Z M30.2662722,48.0434783 L24.6252465,48.0434783 L24.6252465,40.4347826 L30.2662722,40.4347826 L30.2662722,48.0434783 Z M32.2189349,38.5869565 L22.7810651,38.5869565 L22.7810651,36.6304348 L32.2189349,36.6304348 L32.2189349,38.5869565 Z M53.1558185,42.3913043 L48.7080868,42.3913043 C38.1601454,34.7894594 38.5581916,34.7894594 37.9684418,34.7826087 L14.7534517,34.7826087 L2.27810651,15.9782609 L3.79684418,14.8913043 L15.4043393,32.5 C15.5664955,32.7213774 15.8535939,32.8808859 16.1637081,32.9347826 L38.9447732,32.9347826 L49.1420118,40.326087 C49.2684513,40.428432 49.4640815,40.4916467 49.6844181,40.5434783 L53.1558185,40.5434783 L53.1558185,42.3913043 Z" id="Shape" fill="url(#radialGradient-1)" fill-rule="nonzero"></path>
                    </g>
                </g>
            </g>
        </g>
    </g>
</svg>