<?xml version="1.0" encoding="UTF-8"?>
<svg width="56px" height="50px" viewBox="0 0 56 50" version="1.1" xmlns="http://www.w3.org/2000/svg" xmlns:xlink="http://www.w3.org/1999/xlink">
    <title>Group 7</title>
    <defs>
        <radialGradient cx="50%" cy="0%" fx="50%" fy="0%" r="108.695652%" gradientTransform="translate(0.500000,0.000000),scale(1.000000,0.920000),rotate(90.000000),translate(-0.500000,-0.000000)" id="radialGradient-1">
            <stop stop-color="#00B8CA" offset="0%"></stop>
            <stop stop-color="#00758B" offset="100%"></stop>
        </radialGradient>
    </defs>
    <g id="Page-1" stroke="none" stroke-width="1" fill="none" fill-rule="evenodd">
        <g id="About-Us" transform="translate(-837.000000, -1516.000000)">
            <g id="Group-2" transform="translate(0.000000, 1218.000000)">
                <g id="Group-6-Copy-2" transform="translate(735.000000, 274.000000)">
                    <g id="Group-7" transform="translate(103.000000, 24.000000)">
                        <circle id="Oval" fill="#F9F9F9" cx="30" cy="25" r="25"></circle>
                        <path d="M34.038055,0 C34.2985646,0 34.5153053,0.0908279441 34.7188161,0.295857988 C34.82745,0.406753058 34.9161447,0.613647006 34.9133192,0.788954635 L34.9133192,0.887573964 L34.9133192,8.57988166 L42.5961945,8.57988166 C42.9952497,8.61317967 43.3482037,8.89566635 43.4714588,9.27021696 L43.4714588,9.27021696 L46,22.7810651 C46.0009506,22.8300998 46.0009506,22.8851365 46,22.9783037 C45.9990756,24.8131904 45.0513385,26.5553661 43.4714588,27.5147929 L43.4714588,27.6134122 L43.4714588,49.112426 C43.4419095,49.3665295 43.3521695,49.5858979 43.179704,49.704142 C43.0400287,49.9018268 42.8356129,49.9915968 42.5961945,50 L42.5961945,50 L3.4038055,50 C3.18397308,50 2.96723238,49.9091721 2.82029598,49.704142 C2.6550877,49.5932469 2.56639304,49.386353 2.52854123,49.2110454 L2.52854123,49.112426 L2.52854123,27.6134122 C0.975516784,26.5955728 0.00969613307,24.8486694 0,22.9783037 C0,22.9246199 -0.000712948098,22.8836315 0,22.8796844 L0,22.7810651 L2.52854123,9.27021696 C2.63516175,8.91639105 2.98128112,8.6253604 3.4038055,8.57988166 L11.0866808,8.57988166 L11.0866808,0.887573964 C11.0755528,0.394512463 11.443441,0.0138148353 11.8646934,0 L11.961945,0 L34.038055,0 Z M18.6723044,32.7416174 L9.33615222,32.7416174 L9.33615222,48.2248521 L18.6723044,48.2248521 L18.6723044,32.7416174 Z M34.038055,25.8382643 C33.0908138,27.4183133 31.3933349,28.3898793 29.564482,28.4023669 L29.4672304,28.4023669 L27.5221987,28.4023669 C25.7032051,28.4094537 23.9811712,27.4342733 22.9513742,25.8382643 C22.0285432,27.4183133 20.3310643,28.3898793 18.4778013,28.4023669 L18.4778013,28.4023669 L16.5327696,28.4023669 C14.6409345,28.4094537 12.9189006,27.4342733 11.961945,25.8382643 C10.9564609,27.4342733 9.23442706,28.4094448 7.39112051,28.4023669 C6.38536487,28.484723 5.3908764,28.4478244 4.37632135,28.3037475 L4.27906977,28.3037475 L4.27906977,48.2248521 L7.68287526,48.2248521 L7.68287526,31.8540434 C7.68287526,31.3982471 8.0504202,31.0180089 8.46088795,30.9664694 L8.55813953,30.9664694 L19.6448203,30.9664694 C19.8218474,31.0042107 20.0383858,31.094929 20.2283298,31.2623274 C20.3502392,31.4104729 20.4388511,31.6171172 20.422833,31.8540434 L20.422833,31.8540434 L20.422833,48.2248521 L41.7209302,48.2248521 L41.7209302,28.3037475 C40.6954123,28.4448081 39.6575433,28.4878597 38.6088795,28.4023669 C36.7654757,28.4094537 35.0434419,27.4342733 34.038055,25.8382643 Z M36.5665962,31.0650888 C36.8165619,31.0650888 37.0331004,31.1562057 37.1501057,31.3609467 C37.3449538,31.4731362 37.4335657,31.6806885 37.4418605,31.8540434 L37.4418605,31.9526627 L37.4418605,41.4201183 C37.4418605,41.672206 37.3522042,41.8922724 37.1501057,42.0118343 C37.0403546,42.2092067 36.8361297,42.2992624 36.6638478,42.3076923 L36.5665962,42.3076923 L24.7019027,42.3076923 C24.451937,42.3076923 24.2353986,42.2165753 24.1183932,42.0118343 C23.9235452,41.8996449 23.8349333,41.6920925 23.8266385,41.5187377 L23.8266385,41.4201183 L23.8266385,31.9526627 C23.8266385,31.4608566 24.1941834,31.0789476 24.6046512,31.0650888 L24.7019027,31.0650888 L36.5665962,31.0650888 Z M35.7885835,32.7416174 L25.577167,32.7416174 L25.577167,40.5325444 L35.7885835,40.5325444 L35.7885835,32.7416174 Z M41.8181818,10.3550296 L34.9133192,10.3550296 L34.9133192,22.9783037 C34.9133192,23.9655802 35.3032358,24.9210208 35.9830867,25.6410256 C36.6788237,26.3174474 37.59886,26.7116038 38.6088795,26.7258383 L38.6088795,26.7258383 L40.5539112,26.7258383 C41.5168161,26.7242627 42.445077,26.3384509 43.179704,25.6410256 C43.8155541,24.976284 44.2128763,24.062973 44.2494715,23.0769231 L44.2494715,23.0769231 L41.8181818,10.3550296 Z M33.1627907,18.9349112 L23.8266385,18.9349112 L23.8266385,22.9783037 C23.8266385,23.9526992 24.2165509,24.9125985 24.8964059,25.6410256 C25.5921246,26.3155416 26.5121514,26.7115374 27.5221987,26.7258383 L27.5221987,26.7258383 L29.4672304,26.7258383 C30.4438404,26.7258383 31.3849827,26.3281548 32.0930233,25.6410256 C32.7605115,24.9251659 33.1487693,23.986803 33.1627907,22.9783037 L33.1627907,22.9783037 L33.1627907,18.9349112 Z M22.0761099,18.9349112 L12.7399577,18.9349112 L12.7399577,22.9783037 C12.7399577,23.9526992 13.1298702,24.9125985 13.8097252,25.6410256 C14.5054439,26.3155416 15.4254706,26.7115374 16.435518,26.7258383 L16.435518,26.7258383 L18.3805497,26.7258383 C19.3571597,26.7258383 20.2983019,26.3281548 21.0063425,25.6410256 C21.6738307,24.9251659 22.0620885,23.986803 22.0761099,22.9783037 L22.0761099,22.9783037 L22.0761099,18.9349112 Z M11.0866808,10.3550296 L4.18181818,10.3550296 L1.75052854,23.0769231 C1.77254708,24.0286021 2.17188775,24.9633439 2.82029598,25.6410256 C3.5423122,26.3256084 4.44951591,26.7097859 5.44608879,26.7258383 L5.44608879,26.7258383 L7.39112051,26.7258383 C8.36773049,26.7258383 9.30887275,26.330002 10.0169133,25.6410256 C10.6844016,24.9335299 11.0726593,23.9995256 11.0866808,22.9783037 L11.0866808,22.9783037 L11.0866808,10.3550296 Z M33.1627907,1.6765286 L12.7399577,1.6765286 L12.7399577,17.1597633 L33.1627907,17.1597633 L33.1627907,1.6765286 Z M24.7019027,3.45167653 C24.9354232,3.45167653 25.1528454,3.5422226 25.2854123,3.74753452 C25.4659717,3.85716727 25.5549453,4.06341915 25.577167,4.24063116 L25.577167,4.33925049 L25.577167,6.90335306 L28.1057082,6.90335306 C28.3531218,6.88926458 28.570544,6.97981065 28.6892178,7.10059172 C28.8836703,7.29475533 28.9726439,7.5010072 28.9809725,7.69230769 L28.9809725,7.79092702 L28.9809725,11.1439842 C28.9809725,11.4141421 28.8909503,11.6328297 28.6892178,11.8343195 C28.5778279,11.9477782 28.3727694,12.0372695 28.2029598,12.0315582 L28.1057082,12.0315582 L25.577167,12.0315582 L25.577167,14.5956607 C25.5632739,14.8517301 25.4732518,15.0704177 25.2854123,15.1873767 C25.1601293,15.3853662 24.9550708,15.4748576 24.7019027,15.4832347 L24.7019027,15.4832347 L21.2980973,15.4832347 C21.0645768,15.4832347 20.8471546,15.3926886 20.7145877,15.1873767 C20.5340283,15.077744 20.4450547,14.8714921 20.422833,14.6942801 L20.422833,14.5956607 L20.422833,12.0315582 L17.8942918,12.0315582 C17.6468782,12.0456467 17.429456,11.9551006 17.3107822,11.8343195 C17.1163297,11.6401559 17.0273561,11.433904 17.0190275,11.2426036 L17.0190275,11.1439842 L17.0190275,7.79092702 C17.0190275,7.28255272 17.3880726,6.90303654 17.8942918,6.90335306 L17.8942918,6.90335306 L20.422833,6.90335306 L20.422833,4.33925049 C20.4367261,3.84496466 20.8057712,3.46544849 21.2980973,3.45167653 L21.2980973,3.45167653 L24.7019027,3.45167653 Z M23.9238901,5.12820513 L22.1733615,5.12820513 L22.1733615,7.69230769 C22.1928118,7.92968848 22.1026433,8.14801754 21.9788584,8.28402367 C21.7890117,8.46244974 21.5836197,8.55179439 21.3953488,8.57988166 L21.2980973,8.57988166 L18.769556,8.57988166 L18.769556,10.2564103 L21.2980973,10.2564103 C21.5639402,10.2761341 21.781716,10.3665318 21.9788584,10.5522682 C22.0953514,10.6809601 22.1844696,10.8868739 22.1733615,11.1439842 L22.1733615,11.1439842 L22.1733615,13.7080868 L23.9238901,13.7080868 L23.9238901,11.1439842 C23.9044397,10.6687775 24.2740849,10.2898835 24.7019027,10.2564103 L24.7991543,10.2564103 L27.3276956,10.2564103 L27.3276956,8.57988166 L24.7991543,8.57988166 C24.5333114,8.56015779 24.3155356,8.46976016 24.1183932,8.28402367 C24.0019002,8.15533179 23.912782,7.94941803 23.9238901,7.69230769 L23.9238901,7.69230769 L23.9238901,5.12820513 Z" id="Shape" fill="url(#radialGradient-1)" fill-rule="nonzero"></path>
                    </g>
                </g>
            </g>
        </g>
    </g>
</svg>