<?xml version="1.0" encoding="UTF-8"?>
<svg width="50px" height="50px" viewBox="0 0 50 50" version="1.1" xmlns="http://www.w3.org/2000/svg" xmlns:xlink="http://www.w3.org/1999/xlink">
    <title>Group 7</title>
    <defs>
        <radialGradient cx="50%" cy="0%" fx="50%" fy="0%" r="104.166667%" gradientTransform="translate(0.500000,0.000000),scale(1.000000,0.960000),rotate(90.000000),translate(-0.500000,-0.000000)" id="radialGradient-1">
            <stop stop-color="#00B8CA" offset="0%"></stop>
            <stop stop-color="#00758B" offset="100%"></stop>
        </radialGradient>
    </defs>
    <g id="Page-1" stroke="none" stroke-width="1" fill="none" fill-rule="evenodd">
        <g id="About-Us" transform="translate(-1128.000000, -1516.000000)">
            <g id="Group-2" transform="translate(0.000000, 1218.000000)">
                <g id="Group-6-Copy-3" transform="translate(1020.000000, 274.000000)">
                    <g id="Group-7" transform="translate(108.000000, 24.000000)">
                        <circle id="Oval" fill="#F9F9F9" cx="25" cy="25" r="25"></circle>
                        <path d="M30.9359201,5.55547619 C30.9359201,2.49450801 28.4919849,0 25.4930736,0 C22.4941624,0 20.0502271,2.49450801 20.0502271,5.55547619 C20.0502271,8.23867199 21.9227607,10.4831836 24.4046015,10.9997437 L24.4046015,17.9219662 C22.5320679,18.4164433 21.1386992,20.1552676 21.1386992,22.2219048 L21.1386992,45.5549048 C21.1386992,48.0047706 23.0927783,49.9993849 25.4930736,49.9993849 C27.8933689,49.9993849 29.847448,48.0048698 29.847448,45.5549048 L29.847448,22.2219048 C29.847448,20.1552676 28.4540793,18.4165028 26.5815457,17.9219662 L26.5815457,10.9997437 C29.0633866,10.4831836 30.9359201,8.23867199 30.9359201,5.55547619 Z M22.2271713,5.55547619 C22.2271713,3.71671278 23.6911027,2.22199207 25.4930736,2.22199207 C27.2945586,2.22199207 28.7589759,3.71621675 28.7589759,5.55547619 C28.7589759,7.39423961 27.2950446,8.88896032 25.4930736,8.88896032 C23.6915886,8.88896032 22.2271713,7.39433881 22.2271713,5.55547619 Z M27.6700179,22.2219048 L27.6700179,45.5549048 C27.6700179,46.7825658 26.6958455,47.7768968 25.4930736,47.7768968 C24.2903018,47.7768968 23.3161294,46.7825658 23.3161294,45.5549048 L23.3161294,22.2219048 C23.3161294,20.9942437 24.2903018,19.9999127 25.4930736,19.9999127 C26.6958455,19.9999127 27.6700179,20.9942437 27.6700179,22.2219048 Z M11.885693,5.55547619 C11.885693,2.49450801 9.44175773,0 6.4428465,0 C3.44393527,0 1,2.49450801 1,5.55547619 C1,6.16659841 1.48976871,6.66647222 2.08847211,6.66647222 C2.6871755,6.66647222 3.17694421,6.16656865 3.17694421,5.55547619 C3.17694421,3.71671278 4.64087554,2.22199207 6.4428465,2.22199207 C8.2443315,2.22199207 9.70874879,3.71621675 9.70874879,5.55547619 C9.70874879,7.39423961 8.24481747,8.88896032 6.4428465,8.88896032 C5.84411395,8.88896032 5.3543744,9.38886389 5.3543744,9.99995635 L5.3543744,17.9219662 C3.48184081,18.4164433 2.08847211,20.1552676 2.08847211,22.2219048 L2.08847211,45.5549048 C2.08847211,48.0047706 4.0425512,49.9993849 6.4428465,49.9993849 C8.84304462,49.9993849 10.7972209,48.0048698 10.7972209,45.5549048 L10.7972209,22.2219048 C10.7972209,20.1552676 9.4038522,18.4165028 7.53131861,17.9219662 L7.53169825,10.9997437 C10.0135391,10.4831836 11.885693,8.23867199 11.885693,5.55547619 L11.885693,5.55547619 Z M8.62018863,22.2219048 L8.62018863,45.5549048 C8.62018863,46.7825658 7.64600716,47.7768968 6.44323528,47.7768968 C5.2404634,47.7768968 4.26629106,46.7825658 4.26629106,45.5549048 L4.26591143,22.2219048 C4.26591143,20.9942437 5.24008376,19.9999127 6.44285564,19.9999127 C7.6460163,19.9999127 8.62018863,20.9942437 8.62018863,22.2219048 L8.62018863,22.2219048 Z M48.9187522,4.86600191 C48.9350778,4.83267501 48.9460879,4.79392358 48.956718,4.76059667 C48.9677281,4.72726977 48.9730436,4.69394286 48.9783591,4.65519143 C48.9836745,4.62186453 48.9893692,4.5831131 48.9946848,4.54978619 C49,4.51645929 49,4.47770786 49,4.44438095 C49,4.41105405 49,4.37230262 48.9946848,4.33897571 C48.9893695,4.30564881 48.9836747,4.26689738 48.9783591,4.23357047 C48.9730439,4.20024357 48.9620335,4.16691666 48.956718,4.12816523 C48.9457079,4.09483833 48.9350769,4.0560869 48.9187522,4.02275999 C48.9077421,3.98943309 48.8914165,3.9615317 48.8750909,3.9340182 C48.8587652,3.89526677 48.8371251,3.86193987 48.8097884,3.82861296 C48.7987783,3.81194951 48.7934627,3.79528606 48.7824526,3.77862261 C48.7771374,3.76738467 48.766127,3.76195915 48.7551169,3.75072122 C48.7334758,3.72281983 48.70614,3.68949293 48.6788043,3.66197943 C48.6514686,3.63407804 48.6245129,3.60656455 48.5971772,3.58408769 C48.5861671,3.57284975 48.575536,3.56199872 48.5645259,3.5561863 L44.2101515,0.222702176 C43.7256993,-0.14388981 43.0453824,-0.043911079 42.6861545,0.444752575 C42.3269947,0.933803128 42.4249465,1.63362448 42.9037031,2.00028591 L46.0985568,4.44479464 L42.9037031,6.88930337 C42.882062,6.90596682 42.8710519,6.92263027 42.8494117,6.93929372 C42.822076,6.96719511 42.7894247,6.98928408 42.7677846,7.01718547 C42.7404488,7.04508686 42.7188077,7.07260035 42.6971675,7.10050174 C42.6755273,7.12840313 42.6535062,7.15591662 42.6371805,7.18381801 C42.6155394,7.21714491 42.5992147,7.25047182 42.5828891,7.28379674 C42.5665635,7.31712364 42.5502379,7.34502503 42.5392278,7.37835094 C42.5282177,7.41167785 42.5175866,7.45042928 42.5065765,7.48375618 C42.4955664,7.51708309 42.4902509,7.55040999 42.4849354,7.58373491 C42.4796201,7.62248635 42.4739253,7.66162666 42.4739253,7.70580658 C42.4739253,7.72789555 42.46861,7.75037142 42.46861,7.77788492 L42.46861,17.9225813 C40.5960765,18.4170583 39.2027078,20.1558827 39.2027078,22.2225198 L39.2027078,45.5555198 C39.2027078,48.0053856 41.1567868,50 43.5570822,50 C45.9572803,50 47.9114566,48.0054848 47.9114566,45.5555198 L47.9118362,22.2215278 C47.9118362,20.1548906 46.5184675,18.4161258 44.6459339,17.9215892 L44.6459339,8.33283731 L48.5647834,5.33307858 C48.5700987,5.32765326 48.5757935,5.32184064 48.5864245,5.31641512 C48.6080657,5.29975167 48.6243903,5.27766369 48.6464115,5.26100024 C48.6900729,5.22224881 48.7280386,5.1831085 48.7606918,5.13892857 C48.7660071,5.12769064 48.7770175,5.12226512 48.782333,5.11102718 C48.7933431,5.09436373 48.7986586,5.07770028 48.8096687,5.06103683 C48.8313099,5.02770992 48.8533301,4.98895849 48.8749712,4.95563159 C48.8969914,4.92734231 48.9080015,4.8940164 48.9186326,4.86611501 L48.9187522,4.86600191 Z M45.7402362,22.2219048 L45.7402362,45.5549048 C45.7402362,46.7825658 44.7660547,47.7768968 43.5632828,47.7768968 C42.3605109,47.7768968 41.3863386,46.7825658 41.3863386,45.5549048 L41.385959,22.2219048 C41.385959,20.9942437 42.3601313,19.9999127 43.5629032,19.9999127 C44.7660638,19.9999127 45.7402362,20.9942437 45.7402362,22.2219048 L45.7402362,22.2219048 Z" id="Shape" fill="url(#radialGradient-1)" fill-rule="nonzero"></path>
                    </g>
                </g>
            </g>
        </g>
    </g>
</svg>