<?xml version="1.0" encoding="UTF-8"?>
<svg width="56px" height="51px" viewBox="0 0 56 51" version="1.1" xmlns="http://www.w3.org/2000/svg" xmlns:xlink="http://www.w3.org/1999/xlink">
    <title>Group 7</title>
    <defs>
        <radialGradient cx="50%" cy="0%" fx="50%" fy="0%" r="108.695652%" gradientTransform="translate(0.500000,0.000000),scale(1.000000,0.920000),rotate(90.000000),translate(-0.500000,-0.000000)" id="radialGradient-1">
            <stop stop-color="#00B8CA" offset="0%"></stop>
            <stop stop-color="#00758B" offset="100%"></stop>
        </radialGradient>
    </defs>
    <g id="Page-1" stroke="none" stroke-width="1" fill="none" fill-rule="evenodd">
        <g id="About-Us" transform="translate(-552.000000, -1516.000000)">
            <g id="Group-2" transform="translate(0.000000, 1218.000000)">
                <g id="Group-6-Copy" transform="translate(450.000000, 274.000000)">
                    <g id="Group-7" transform="translate(103.000000, 24.000000)">
                        <circle id="Oval" fill="#F9F9F9" cx="30" cy="25" r="25"></circle>
                        <path d="M38.1226216,31.8540434 L35.7885835,31.3609467 C34.584335,28.9687823 32.3002539,27.2665155 29.6617336,26.8244576 C31.7314722,25.0532139 33.0202826,22.496661 33.2600423,19.7238659 C34.3018907,19.5190438 35.2531694,18.8824918 35.8858351,17.9487179 C36.5028444,17.0491017 36.7526256,15.9230618 36.5665962,14.7928994 C36.3982952,13.7243415 35.8074883,12.7371489 34.9133192,12.0315582 C35.2166327,10.9310397 36.4255761,5.47418981 33.8435518,2.85996055 C31.8439827,0.8621679 28.8633289,1.28472968 27.6194503,1.57790927 C26.9726649,0.939862518 25.6443202,-3.55271368e-15 23.0486258,-3.55271368e-15 C19.2998343,-3.55271368e-15 13.1080552,-3.55271368e-15 11.1839323,3.94477318 C9.65059415,7 10.3235163,11.1205964 10.6004228,12.5246548 C9.87261757,13.2908241 9.4555499,14.2714354 9.43340381,15.2859961 C9.35254434,16.3384315 9.67000124,17.3559689 10.3086681,18.1459566 C10.9268882,18.9885017 11.8245395,19.5484822 12.8372093,19.7238659 C13.0262418,22.5022768 14.3090178,25.0584356 16.435518,26.8244576 C13.7337151,27.2748209 11.4496341,28.9770582 10.2114165,31.4595661 L7.87737844,31.8540434 C6.37420109,32.1947642 4.96937637,32.9586758 3.89006342,34.122288 C2.78748912,35.2135538 2.06210748,36.651387 1.75052854,38.1656805 L0,49.0138067 C-0.0289002411,49.2506048 0.0429546843,49.5061419 0.194503171,49.704142 C0.370293248,49.8921519 0.610185999,50.0025953 0.875264271,49.9999537 L45.1247357,49.9999537 C45.3952759,49.9999537 45.6317524,49.8898366 45.8054968,49.704142 C45.9571863,49.5061419 46.0286636,49.250595 46,49.0138067 L44.2494715,38.1656805 C43.946391,36.651387 43.2210191,35.2135538 42.1099366,34.122288 C41.0391318,32.9587744 39.6343071,32.1948331 38.1226216,31.8540434 L38.1226216,31.8540434 Z M33.4545455,30.9664694 L27.230444,29.6844181 L27.230444,28.4023669 L28.3002114,28.4023669 C30.2950078,28.401979 32.1983908,29.3328462 33.4545455,30.9664694 L33.4545455,30.9664694 Z M20.5200846,30.4733728 L20.5200846,28.9940828 C22.1559322,29.4439804 23.911924,29.4439804 25.577167,28.9940828 L25.577167,30.4733728 C25.5738639,30.8920745 25.8642543,31.2566983 26.2579281,31.3609467 L27.6194503,31.5581854 L22.8541226,35.0098619 L18.3805497,31.6568047 L19.8393235,31.3609467 C20.2035922,31.256719 20.4939801,30.8920942 20.5200846,30.4733728 L20.5200846,30.4733728 Z M22.2706131,36.7850099 C22.4227056,36.8580604 22.6018498,36.9189556 22.756871,36.8836292 C22.9605073,36.9201118 23.1309167,36.862301 23.243129,36.7850099 L28.5919662,32.938856 L26.1606765,48.3234714 L19.7420719,48.3234714 L17.3107822,33.0374753 L22.2706131,36.7850099 Z M33.2600423,17.9487179 L33.2600423,13.2149901 L33.4545455,13.1163708 C34.112546,13.4009222 34.608228,13.9317515 34.8160677,14.5956607 C35.0919691,15.245874 35.05926,15.9726726 34.7188161,16.5680473 C34.460814,17.2381195 33.9197234,17.7221438 33.2600423,17.9487179 L33.2600423,17.9487179 Z M12.6427061,4.63510848 C14.1293484,1.6765286 19.8835685,1.6765286 22.9513742,1.6765286 C25.7401841,1.6765286 26.4559786,2.89576506 26.4524313,2.95857988 C26.6721687,3.31894963 27.1170583,3.50388099 27.5221987,3.3530572 C27.5216327,3.36296114 30.8463213,2.23020586 32.6765328,4.0433925 C34.4267552,5.81026997 33.8128691,9.53746082 33.3572939,11.3412229 L32.0930233,11.7357002 C31.7524877,11.8659099 31.5032116,12.2218764 31.5095137,12.6232742 L31.5095137,12.9191321 C30.1216902,12.4176203 27.7435027,11.2933847 27.230444,9.27021696 C27.1776178,8.93480062 26.9096951,8.68037791 26.5496829,8.57988166 L26.3551797,8.57988166 C26.1028748,8.6224627 25.8372407,8.76840093 25.6744186,8.97435897 C24.5215506,10.5189086 22.8977385,11.5905835 21.1035941,12.0315582 C18.8959338,12.5573739 16.6806439,12.8469327 14.4904863,12.9191321 L14.4904863,12.0315582 C14.4546978,11.772866 14.3211136,11.5084115 14.1014799,11.3412229 C13.9500539,11.2423954 13.7772773,11.1879666 13.615222,11.1439842 L13.5179704,11.1439842 C13.0001429,11.2084266 12.5339461,11.3049485 12.0591966,11.4398422 C11.8359514,9.88376114 11.5718372,6.8654195 12.6427061,4.63510848 L12.6427061,4.63510848 Z M11.0866808,15.581854 C11.0831929,14.7972456 11.4020296,14.0953899 11.961945,13.6094675 L12.8372093,13.3136095 L12.8372093,17.9487179 C12.3265135,17.7720179 11.8842072,17.4450146 11.5729387,17.061144 C11.2574783,16.5798727 11.08829,16.0627849 11.0866808,15.581854 L11.0866808,15.581854 Z M14.4904863,19.0335306 L14.4904863,14.6942801 C16.8503932,14.6348138 19.1992135,14.3462541 21.4926004,13.8067061 C23.2640381,13.3712952 24.872093,12.4456038 26.1606765,11.1439842 C27.4841734,13.3416185 30.249814,14.4016284 31.5095137,14.7928994 L31.5095137,19.0335306 C31.5095137,22.0743387 29.8877463,24.9194831 27.230444,26.4299803 C24.6217674,27.9982592 21.3782326,27.9982592 18.769556,26.4299803 C16.1122537,24.9194831 14.4904863,22.0742402 14.4904863,19.0335306 L14.4904863,19.0335306 Z M17.6997886,28.4023669 L18.769556,28.4023669 L18.769556,29.6844181 L12.5454545,30.8678501 C13.8015312,29.3094084 15.7050418,28.4019797 17.6997886,28.4023669 L17.6997886,28.4023669 Z M3.50105708,38.5601578 C3.66180785,37.3066744 4.22564924,36.1825476 5.05708245,35.3057199 C5.92287714,34.4154748 7.01633757,33.8140951 8.16913319,33.530572 L9.53065539,33.3333333 L9.53065539,33.3333333 C9.43219582,33.9185433 9.36071434,34.5441898 9.33615222,35.2071006 L9.33615222,35.5029586 C8.48814182,35.6320101 7.68895853,36.0676179 7.09936575,36.6863905 C6.44112767,37.3486349 6.02095978,38.1639451 5.83509514,39.0532544 L4.95983087,43.4911243 C4.8716009,44.2955824 5.07462916,45.0739052 5.54334038,45.6607495 C6.05671026,46.267329 6.79587792,46.610419 7.58562368,46.5483235 L8.46088795,46.5483235 L8.46088795,44.8717949 L7.58562368,44.8717949 C7.31742804,44.869538 7.07714161,44.7558221 6.90486258,44.5759369 C6.75167892,44.3622346 6.68324396,44.1028002 6.71035941,43.8856016 L7.48837209,39.3491124 C7.6877516,38.505091 8.22764903,37.7722622 8.94714588,37.3767258 C9.75991665,36.9939986 10.6617962,36.9939986 11.4756871,37.3767258 C12.1940249,37.7723017 12.7339223,38.5051009 12.8372093,39.3491124 L13.7124736,43.8856016 C13.7384621,44.1028002 13.6700242,44.3622346 13.5179704,44.5759369 C13.3445615,44.7558221 13.1042751,44.8695374 12.8372093,44.8717949 L11.961945,44.8717949 L11.961945,46.5483235 L12.8372093,46.5483235 C13.6110889,46.5973056 14.3319774,46.255763 14.782241,45.6607495 C15.3045403,45.073846 15.5075676,44.2955725 15.3657505,43.4911243 L14.5877378,39.0532544 C14.4007822,38.1639648 13.9806533,37.348704 13.3234672,36.6863905 C12.7327738,36.0676475 11.9335905,35.6320693 11.0866808,35.5029586 L11.0866808,35.2071006 C11.0621756,34.412711 11.191824,33.6586846 11.4756871,32.938856 L15.4630021,32.1499014 L18.0887949,48.3234714 L1.84778013,48.3234714 L3.50105708,38.5601578 Z M27.9112051,48.3234714 L30.5369979,32.1499014 L34.5243129,32.938856 C34.8080602,33.6587142 34.9377059,34.4127406 34.9133192,35.2071006 L34.9133192,38.0670611 C33.8575301,38.3647306 32.9827141,39.1654353 32.5792812,40.2366864 C32.2071374,41.2852003 32.3558016,42.4706108 32.9682875,43.3925049 C33.6294628,44.3270828 34.67384,44.8803138 35.7885835,44.8717949 C36.9040951,44.8803138 37.94856,44.3271322 38.6088795,43.3925049 C39.222046,42.4705614 39.3707978,41.2852003 38.9978858,40.2366864 C38.5951821,39.1654353 37.7203078,38.364701 36.6638478,38.0670611 L36.6638478,35.2071006 C36.6394683,34.5468641 36.5679908,33.9242473 36.4693446,33.3333333 L37.8308668,33.530572 C38.983428,33.8140945 40.0768506,34.4154545 40.9429175,35.3057199 C41.7740987,36.1825766 42.3379598,37.3066935 42.4989429,38.5601578 L44.1522199,48.3234714 L27.9112051,48.3234714 Z M35.7885835,39.6449704 C36.1912634,39.6449704 36.6243442,39.8268047 36.9556025,40.1380671 C37.262548,40.4739842 37.4418605,40.9131558 37.4418605,41.4201183 C37.4418605,41.8284615 37.262548,42.2676331 36.9556025,42.6035503 C36.6243442,42.9148126 36.1912634,43.0966469 35.7885835,43.0966469 C35.288652,43.0966469 34.8555712,42.9148126 34.5243129,42.6035503 C34.2173674,42.2676331 34.038055,41.8284615 34.038055,41.4201183 C34.038055,40.9131558 34.2173674,40.4739842 34.5243129,40.1380671 C34.8555712,39.8268047 35.288652,39.6449704 35.7885835,39.6449704 Z" id="Shape" fill="url(#radialGradient-1)" fill-rule="nonzero"></path>
                    </g>
                </g>
            </g>
        </g>
    </g>
</svg>