<?xml version="1.0" encoding="UTF-8"?>
<svg width="24px" height="24px" viewBox="0 0 24 24" version="1.1" xmlns="http://www.w3.org/2000/svg" xmlns:xlink="http://www.w3.org/1999/xlink">
    <title>TRAILING ICON_outlined</title>
    <g id="Page-1" stroke="none" stroke-width="1" fill="none" fill-rule="evenodd">
        <g id="Add-Dental-Clinic-Info-&amp;-Add-Timetable-1" transform="translate(-1211.000000, -456.000000)" fill="#7C8495">
            <g id="Items" transform="translate(165.000000, 249.000000)">
                <g id="Group-6" transform="translate(285.000000, 0.000000)">
                    <g id="Personal-Info" transform="translate(24.000000, 24.000000)">
                        <g id="First-Name-Copy-2" transform="translate(0.000000, 142.000000)">
                            <g id="Input-/-Primary-/-Default" transform="translate(0.000000, 28.000000)">
                                <g id="TRAILING-ICON" transform="translate(737.000000, 13.000000)">
                                    <path d="M12,2 C8.13,2 5,5.13 5,9 C5,14.25 12,22 12,22 C12,22 19,14.25 19,9 C19,5.13 15.87,2 12,2 Z M7,9 C7,6.24 9.24,4 12,4 C14.76,4 17,6.24 17,9 C17,11.88 14.12,16.19 12,18.88 C9.92,16.21 7,11.85 7,9 Z M12,6.5 C10.6192881,6.5 9.5,7.61928813 9.5,9 C9.5,10.3807119 10.6192881,11.5 12,11.5 C12.893164,11.5 13.7184816,11.0235027 14.1650636,10.25 C14.6116456,9.47649732 14.6116456,8.52350268 14.1650636,7.74999998 C13.7184816,6.97649729 12.893164,6.5 12,6.5 L12,6.5 Z" id="icon/communication/location_on_24px"></path>
                                </g>
                            </g>
                        </g>
                    </g>
                </g>
            </g>
        </g>
    </g>
</svg>