<?xml version="1.0" encoding="UTF-8"?>
<svg width="24px" height="24px" viewBox="0 0 24 24" version="1.1" xmlns="http://www.w3.org/2000/svg" xmlns:xlink="http://www.w3.org/1999/xlink">
    <title>icon/rounded/action/search_24px copy</title>
    <g id="Page-1" stroke="none" stroke-width="1" fill="none" fill-rule="evenodd" opacity="0.5">
        <g id="Home-Page-(login)" transform="translate(-983.000000, -523.000000)" fill="#00768C">
            <g id="search-bar" transform="translate(260.000000, 503.000000)">
                <g id="Group-5" transform="translate(12.000000, 8.000000)">
                    <g id="Text-Copy-4" transform="translate(511.000000, 12.000000)">
                        <g id="icon/rounded/action/search_24px-copy" transform="translate(200.000000, 0.000000)">
                            <path d="M12,6 C13.1,6 14,6.9 14,8 C14,9.1 13.1,10 12,10 C10.9,10 10,9.1 10,8 C10,6.9 10.9,6 12,6 L12,6 Z M12,16 C14.7,16 17.8,17.29 18,18 L6,18 C6.23,17.28 9.31,16 12,16 L12,16 Z M12,4 C9.79,4 8,5.79 8,8 C8,10.21 9.79,12 12,12 C14.21,12 16,10.21 16,8 C16,5.79 14.21,4 12,4 Z M12,14 C9.33,14 4,15.34 4,18 L4,20 L20,20 L20,18 C20,15.34 14.67,14 12,14 Z" id="icon/social/person_24px"></path>
                        </g>
                    </g>
                </g>
            </g>
        </g>
    </g>
</svg>