<?xml version="1.0" encoding="UTF-8"?>
<svg width="24px" height="24px" viewBox="0 0 24 24" version="1.1" xmlns="http://www.w3.org/2000/svg" xmlns:xlink="http://www.w3.org/1999/xlink">
    <title>icon/rounded/toggle/check_box_24px copy_rounded</title>
    <g id="Page-1" stroke="none" stroke-width="1" fill="none" fill-rule="evenodd">
        <g id="Public-Profile--Time-Table-&amp;-insurance-company" transform="translate(-1119.000000, -96.000000)" fill="#7C8495">
            <g id="Group-6" transform="translate(334.000000, 80.000000)">
                <g id="Group-1" transform="translate(16.000000, 16.000000)">
                    <g id="icon/rounded/toggle/check_box_24px-copy" transform="translate(769.000000, 0.000000)">
                        <path d="M12,2 C6.47,2 2,6.47 2,12 C2,17.53 6.47,22 12,22 C17.53,22 22,17.53 22,12 C22,6.47 17.53,2 12,2 Z M16.3,16.3 C15.91,16.69 15.28,16.69 14.89,16.3 L12,13.41 L9.11,16.3 C8.72,16.69 8.09,16.69 7.7,16.3 C7.51274733,16.1131685 7.40751439,15.8595176 7.40751439,15.595 C7.40751439,15.3304824 7.51274733,15.0768315 7.7,14.89 L10.59,12 L7.7,9.11 C7.51274733,8.92316847 7.40751439,8.66951764 7.40751439,8.405 C7.40751439,8.14048236 7.51274733,7.88683153 7.7,7.7 C8.09,7.31 8.72,7.31 9.11,7.7 L12,10.59 L14.89,7.7 C15.28,7.31 15.91,7.31 16.3,7.7 C16.69,8.09 16.69,8.72 16.3,9.11 L13.41,12 L16.3,14.89 C16.68,15.27 16.68,15.91 16.3,16.3 Z" id="icon/navigation/cancel_24px"></path>
                    </g>
                </g>
            </g>
        </g>
    </g>
</svg>