<?xml version="1.0" encoding="UTF-8"?>
<svg width="20px" height="20px" viewBox="0 0 20 20" version="1.1" xmlns="http://www.w3.org/2000/svg" xmlns:xlink="http://www.w3.org/1999/xlink">
    <title>icon/rounded/toggle/check_box_24px_outlined</title>
    <g id="Page-1" stroke="none" stroke-width="1" fill="none" fill-rule="evenodd">
        <g id="Services-Provider-my-profile-Time-Table-&amp;-insurance-company" transform="translate(-744.000000, -889.000000)" fill="#00768C">
            <g id="Items" transform="translate(165.000000, 249.000000)">
                <g id="Group-6" transform="translate(285.000000, 0.000000)">
                    <g id="Doctor-Card-Copy" transform="translate(24.000000, 24.000000)">
                        <g id="Group-3-Copy" transform="translate(0.000000, 616.000000)">
                            <g id="icon/rounded/toggle/check_box_24px" transform="translate(270.000000, 0.000000)">
                                <path d="M18.6895433,8.82760675 L11.1812099,1.31927342 C10.5562099,0.69427342 9.45620994,0.685940087 8.8228766,1.31927342 L1.3228766,8.81927342 C0.672876603,9.46927342 0.672876603,10.5192734 1.3228766,11.1692734 L8.8228766,18.6692734 C9.1478766,18.9942734 9.5728766,19.1526068 9.9978766,19.1526068 C10.4228766,19.1526068 10.8478766,18.9942734 11.1728766,18.6692734 L18.6645433,11.1776068 C19.3228766,10.5442734 19.3312099,9.49427342 18.6895433,8.82760675 Z M10.0062099,17.4942734 L2.50620994,9.99427342 L10.0062099,2.49427342 L17.5062099,9.99427342 L10.0062099,17.4942734 Z M6.66454327,9.16927342 L6.66454327,12.5026068 L8.33120994,12.5026068 L8.33120994,10.0026068 L11.6645433,10.0026068 L11.6645433,12.0859401 L14.5812099,9.16927342 L11.6645433,6.25260675 L11.6645433,8.33594009 L7.4978766,8.33594009 C7.03954327,8.33594009 6.66454327,8.71094009 6.66454327,9.16927342 Z" id="icon/maps/directions_24px"></path>
                            </g>
                        </g>
                    </g>
                </g>
            </g>
        </g>
    </g>
</svg>