<?xml version="1.0" encoding="UTF-8"?>
<svg width="31px" height="30px" viewBox="0 0 31 30" version="1.1" xmlns="http://www.w3.org/2000/svg" xmlns:xlink="http://www.w3.org/1999/xlink">
    <title>mdpi/Combined Shape</title>
    <g id="Page-1" stroke="none" stroke-width="1" fill="none" fill-rule="evenodd">
        <g id="Contacts-2" transform="translate(-970.000000, -612.000000)" fill="#00768C" fill-rule="nonzero">
            <g id="Group-10" transform="translate(925.000000, 578.000000)">
                <g id="Social-media" transform="translate(0.000000, 34.000000)">
                    <path d="M60.9995022,0.000331854735 C69.2836818,0.000331854735 75.9993363,6.71598632 75.9993363,15.0001659 C75.9993363,23.2843455 69.2836818,30 60.9995022,30 C52.7153226,30 45.9996681,23.2843455 45.9996681,15.0001659 C45.9996681,6.71598632 52.7153226,0.000331854735 60.9995022,0.000331854735 Z M62.1300113,5.8194589 C58.7962395,5.8194589 58.0387342,8.31657912 58.0387342,9.91127074 L58.0387342,9.91127074 L58.0387342,12.1412721 L56.1100772,12.1412721 L56.1100772,15.5873461 L58.0387342,15.5873461 L58.0387342,25.3929348 L62.0939142,25.3929348 L62.0939142,15.5873461 L64.7704506,15.5873461 L65.1247373,12.1444807 L62.0941815,12.1444807 L62.0941815,10.116356 C62.0941815,9.35564211 62.5968677,9.17702809 62.9543631,9.17702809 L62.9543631,9.17702809 L65.1338285,9.17702809 L65.1338285,5.83202605 Z" id="Combined-Shape"></path>
                </g>
            </g>
        </g>
    </g>
</svg>