<?xml version="1.0" encoding="UTF-8"?>
<svg width="31px" height="31px" viewBox="0 0 31 31" version="1.1" xmlns="http://www.w3.org/2000/svg" xmlns:xlink="http://www.w3.org/1999/xlink">
    <title>mdpi/Combined Shape</title>
    <g id="Page-1" stroke="none" stroke-width="1" fill="none" fill-rule="evenodd">
        <g id="Contacts-2" transform="translate(-1016.000000, -612.000000)" fill="#00768C" fill-rule="nonzero">
            <g id="Group-10" transform="translate(925.000000, 578.000000)">
                <g id="Social-media" transform="translate(0.000000, 34.000000)">
                    <path d="M106.99917,0.000331854736 C115.28302,0.000331854736 121.999004,6.7163163 121.999004,15.0001659 C121.999004,23.2840156 115.28302,30 106.99917,30 C98.7153207,30 91.9993363,23.2840156 91.9993363,15.0001659 C91.9993363,6.7163163 98.7153207,0.000331854736 106.99917,0.000331854736 Z M111.469809,6.01777905 L102.528532,6.01777905 C100.018477,6.01777905 97.9763419,8.05991426 97.9763419,10.5699692 L97.9763419,10.5699692 L97.9763419,19.511246 C97.9763419,22.0216351 100.018477,24.0634361 102.528532,24.0634361 L102.528532,24.0634361 L111.469809,24.0634361 C113.980198,24.0634361 116.021999,22.0216351 116.021999,19.511246 L116.021999,19.511246 L116.021999,10.5699692 C116.021999,8.05991426 113.980198,6.01777905 111.469809,6.01777905 L111.469809,6.01777905 Z M111.469809,7.98170483 C112.897298,7.98170483 114.058407,9.14281411 114.058407,10.5699692 L114.058407,10.5699692 L114.058407,19.511246 C114.058407,20.9387352 112.896964,22.0998445 111.469809,22.0998445 L111.469809,22.0998445 L102.528532,22.0998445 C101.101377,22.0998445 99.9402676,20.938401 99.9402676,19.511246 L99.9402676,19.511246 L99.9402676,10.5699692 C99.9402676,9.14281411 101.101377,7.98170483 102.528532,7.98170483 L102.528532,7.98170483 Z M106.99917,10.3931624 C104.436642,10.3931624 102.351725,12.4780788 102.351725,15.0406076 C102.351725,17.6034705 104.436642,19.688387 106.99917,19.688387 C109.561699,19.688387 111.64695,17.6031363 111.64695,15.0406076 C111.64695,12.4780788 109.562033,10.3931624 106.99917,10.3931624 Z M106.99917,12.3570881 C108.478799,12.3570881 109.68269,13.5613129 109.68269,15.0402733 C109.68269,16.5202365 108.479133,17.7244612 106.99917,17.7244612 C105.519876,17.7244612 104.315317,16.5202365 104.315317,15.0402733 C104.315317,13.5609787 105.519876,12.3570881 106.99917,12.3570881 Z M111.79635,9.15484633 C111.189725,9.15484633 110.696404,9.64816738 110.696404,10.2544576 C110.696404,10.8607478 111.189725,11.3540689 111.79635,11.3540689 C112.40264,11.3540689 112.895961,10.8607478 112.895961,10.2544576 C112.895961,9.64816738 112.40264,9.15484633 111.79635,9.15484633 Z" id="Combined-Shape"></path>
                </g>
            </g>
        </g>
    </g>
</svg>