<?xml version="1.0" encoding="UTF-8"?>
<svg width="30px" height="30px" viewBox="0 0 30 30" version="1.1" xmlns="http://www.w3.org/2000/svg" xmlns:xlink="http://www.w3.org/1999/xlink">
    <title>mdpi/Combined Shape</title>
    <g id="Page-1" stroke="none" stroke-width="1" fill="none" fill-rule="evenodd">
        <g id="Contacts-2" transform="translate(-925.000000, -612.000000)" fill="#00768C" fill-rule="nonzero">
            <g id="Group-10" transform="translate(925.000000, 578.000000)">
                <g id="Social-media" transform="translate(0.000000, 34.000000)">
                    <path d="M14.9998341,3.19744231e-13 C23.2840137,3.19744231e-13 29.9996681,6.71565446 29.9996681,14.9998341 C29.9996681,23.2840137 23.2840137,29.9996681 14.9998341,29.9996681 C6.71565446,29.9996681 3.19744231e-13,23.2840137 3.19744231e-13,14.9998341 C3.19744231e-13,6.71565446 6.71565446,3.19744231e-13 14.9998341,3.19744231e-13 Z M11.0350307,11.6072373 L7.45071797,11.6072373 L7.45071797,22.3909249 L11.0350307,22.3909249 L11.0350307,11.6072373 Z M19.8347123,11.3540225 C17.9295853,11.3540225 17.0798317,12.4021766 16.6033494,13.1353497 L16.6033494,13.1353497 L16.6033494,11.6072373 L13.0174324,11.6072373 C13.0306444,11.88491 13.0366028,12.8227265 13.0382943,14.0373305 L13.0380047,16.0189079 C13.0344781,18.7103309 13.0206358,21.7183097 13.0179026,22.2929912 L13.0174324,22.3906575 L16.6030821,22.3906575 L16.6030821,16.3680495 C16.6030821,16.0447796 16.6274142,15.7247182 16.7218015,15.4942313 C16.981701,14.8492956 17.5702181,14.1832365 18.5608842,14.1832365 C19.8590445,14.1832365 20.3767043,15.1725656 20.3767043,16.6212643 L20.3767043,16.6212643 L20.3767043,22.3909249 L23.9620865,22.3909249 L23.9620865,16.2068156 C23.9620865,12.8952369 22.1935938,11.3540225 19.8347123,11.3540225 Z M9.26653802,6.40924851 C8.04003727,6.40924851 7.23761112,7.21434852 7.23761112,8.27212854 C7.23761112,9.30744811 8.01677467,10.1358107 9.21947804,10.1358107 L9.24274064,10.1358107 C10.4933061,10.1358107 11.2708654,9.30744811 11.2708654,8.27212854 C11.247068,7.21434852 10.4933061,6.40924851 9.26653802,6.40924851 Z" id="Combined-Shape"></path>
                </g>
            </g>
        </g>
    </g>
</svg>