<?xml version="1.0" encoding="UTF-8"?>
<svg width="16px" height="16px" viewBox="0 0 16 16" version="1.1" xmlns="http://www.w3.org/2000/svg" xmlns:xlink="http://www.w3.org/1999/xlink">
    <title>icon/rounded/toggle/check_box_24px_rounded</title>
    <g id="Page-1" stroke="none" stroke-width="1" fill="none" fill-rule="evenodd">
        <g id="Add-Order#3-1" transform="translate(-751.000000, -1479.000000)" fill="#00768C">
            <g id="Items" transform="translate(165.000000, 249.000000)">
                <g id="Group-6" transform="translate(285.000000, 0.000000)">
                    <g id="Personal-Info-Copy" transform="translate(24.000000, 88.000000)">
                        <g id="Group-3" transform="translate(0.000000, 156.000000)">
                            <g id="Doctor-Card-Copy-7" transform="translate(265.000000, 692.000000)">
                                <g id="icon/rounded/toggle/check_box_24px" transform="translate(12.000000, 294.000000)">
                                    <path d="M8,1.51 C5.42,1.51 3.33333333,3.59666667 3.33333333,6.17666667 C3.33333333,8.95666667 6.28,12.79 7.49333333,14.25 C7.76,14.57 8.24666667,14.57 8.51333333,14.25 C9.72,12.79 12.6666667,8.95666667 12.6666667,6.17666667 C12.6666667,3.59666667 10.58,1.51 8,1.51 Z M8,7.84333333 C7.08,7.84333333 6.33333333,7.09666667 6.33333333,6.17666667 C6.33333333,5.25666667 7.08,4.51 8,4.51 C8.92,4.51 9.66666667,5.25666667 9.66666667,6.17666667 C9.66666667,7.09666667 8.92,7.84333333 8,7.84333333 Z" id="icon/maps/place_24px"></path>
                                </g>
                            </g>
                        </g>
                    </g>
                </g>
            </g>
        </g>
    </g>
</svg>