<?xml version="1.0" encoding="UTF-8"?>
<svg width="24px" height="24px" viewBox="0 0 24 24" version="1.1" xmlns="http://www.w3.org/2000/svg" xmlns:xlink="http://www.w3.org/1999/xlink">
    <title>icon/rounded/communication/mdpi/email_24px</title>
    <g id="Page-1" stroke="none" stroke-width="1" fill="none" fill-rule="evenodd">
        <g id="Contacts-2" transform="translate(-925.000000, -414.000000)" fill="#00768C">
            <g id="icon/rounded/communication/email_24px" transform="translate(925.000000, 414.000000)">
                <path d="M16,1 L8,1 C6.34,1 5,2.34 5,4 L5,20 C5,21.66 6.34,23 8,23 L16,23 C17.66,23 19,21.66 19,20 L19,4 C19,2.34 17.66,1 16,1 Z M17,18 L7,18 L7,4 L17,4 L17,18 Z M14,21 L10,21 L10,20 L14,20 L14,21 Z" id="icon/hardware/phone_android_24px"></path>
            </g>
        </g>
    </g>
</svg>