<?xml version="1.0" encoding="UTF-8"?>
<svg width="24px" height="24px" viewBox="0 0 24 24" version="1.1" xmlns="http://www.w3.org/2000/svg" xmlns:xlink="http://www.w3.org/1999/xlink">
    <title>ic-Insurance</title>
    <g id="Page-1" stroke="none" stroke-width="1" fill="none" fill-rule="evenodd">
        <g id="Services-Provider-my-profile-Overview" transform="translate(-1002.000000, -454.000000)">
            <g id="Items" transform="translate(165.000000, 249.000000)">
                <g id="Group-6" transform="translate(285.000000, 0.000000)">
                    <g id="Doctor-Card-Copy" transform="translate(24.000000, 24.000000)">
                        <g id="Group-3" transform="translate(0.000000, 65.000000)">
                            <g id="Group-4" transform="translate(528.000000, 116.000000)">
                                <rect id="Rectangle" fill="#F3F6FA" x="0" y="0" width="24" height="24" rx="2"></rect>
                                <path d="M12.516269,20.147541 C15.6612721,19.4205786 17.3227574,17.4204806 18.2104121,14.9344262 C19.0520585,12.5329379 19.1750965,9.65185732 19.186551,7.03278689 C18.0232054,7.12540711 15.0391832,7.01456306 12.516269,4.08196721 C9.99332219,7.0139286 7.00998341,7.12530213 5.84598698,7.03278689 C5.85742715,9.6523166 5.98047299,12.5337908 6.82212581,14.9344262 C7.70971545,17.4203822 9.37061502,19.4205786 12.516269,20.147541 L12.516269,20.147541 Z M10.4989154,13 C10.3160659,12.8470763 10.282753,12.5826976 10.4338395,12.4098361 C10.5633267,12.2160232 10.8242752,12.1818427 11.0195228,12.3114754 L11.9305857,13.0327869 L13.9154013,10.9672131 C14.0770438,10.7970124 14.3407616,10.7931713 14.5010846,10.9672131 C14.6698763,11.116819 14.6736768,11.3833575 14.5010846,11.557377 L12.2559653,13.8852459 C12.1078429,14.0406834 11.8703233,14.0605284 11.70282,13.9180328 L10.4989154,13 L10.4989154,13 Z M12.516269,8.44262295 C13.6126377,8.44262295 14.6050944,8.89077833 15.3145336,9.62295082 C16.0417256,10.3381955 16.4859002,11.3380479 16.4859002,12.442623 C16.4859002,13.547198 16.0416931,14.5470832 15.3145336,15.2622951 C14.6050618,15.9944676 13.6121167,16.442623 12.516269,16.442623 C11.4199002,16.442623 10.4274436,15.9944676 9.71800434,15.2622951 C8.99081233,14.5470504 8.54663774,13.547198 8.54663774,12.442623 C8.54663774,11.3380479 8.99084489,10.3381627 9.71800434,9.62295082 C10.4274761,8.89077833 11.4204212,8.44262295 12.516269,8.44262295 Z M14.6963124,10.2131148 C14.1270672,9.64752121 13.3463835,9.29508197 12.483731,9.29508197 C11.6210786,9.29508197 10.8399077,9.64752121 10.2711497,10.2131148 C9.70985023,10.7867148 9.36008677,11.573371 9.36008677,12.442623 C9.36008677,13.3118749 9.70985023,14.0985311 10.2711497,14.6721311 C10.8403948,15.2377247 11.6210786,15.5901639 12.483731,15.5901639 C13.3463835,15.5901639 14.1275543,15.2377247 14.6963124,14.6721311 C15.2576118,14.0985311 15.6073753,13.3118749 15.6073753,12.442623 C15.6073753,11.573371 15.2576118,10.7862239 14.6963124,10.2131148 Z M18.9587852,15.2295082 C17.9903454,17.9783846 16.1347048,20.1991402 12.6138829,21 C12.5406503,21.0027225 12.4761485,21.0043881 12.4186551,21 C8.86991069,20.2048659 7.01023936,17.9824703 6.04121475,15.2295082 C5.0875063,12.541711 5,9.36930148 5,6.57377049 C5.00050787,6.53645754 5.00330131,6.50942267 5,6.47540984 C5.05244234,6.25367693 5.27198498,6.10491478 5.48806941,6.14754098 C5.50903992,6.15170225 9.23274033,6.93648448 12.1583514,3.16393443 C12.1890593,3.13797564 12.2136917,3.11260541 12.2559653,3.09836066 C12.4234565,2.94616683 12.6861672,2.97819696 12.8416486,3.16393443 C15.6481513,6.78764033 19.1969022,6.2068995 19.4793926,6.14754098 C19.5145728,6.14581166 19.5479676,6.14132745 19.5770065,6.14754098 C19.8127164,6.14132745 20,6.33031668 20,6.57377049 C20,9.36989222 19.91264,12.5423346 18.9587852,15.2295082 L18.9587852,15.2295082 Z" id="Shape" fill="#00768C" fill-rule="nonzero"></path>
                            </g>
                        </g>
                    </g>
                </g>
            </g>
        </g>
    </g>
</svg>