<?xml version="1.0" encoding="UTF-8"?>
<svg width="24px" height="24px" viewBox="0 0 24 24" version="1.1" xmlns="http://www.w3.org/2000/svg" xmlns:xlink="http://www.w3.org/1999/xlink">
    <title>ic-Review</title>
    <g id="Page-1" stroke="none" stroke-width="1" fill="none" fill-rule="evenodd">
        <g id="Services-Provider-my-profile-Overview" transform="translate(-866.000000, -454.000000)">
            <g id="Items" transform="translate(165.000000, 249.000000)">
                <g id="Group-6" transform="translate(285.000000, 0.000000)">
                    <g id="Doctor-Card-Copy" transform="translate(24.000000, 24.000000)">
                        <g id="Group-3" transform="translate(0.000000, 65.000000)">
                            <g id="Group-4" transform="translate(392.000000, 116.000000)">
                                <rect id="Rectangle" fill="#F3F6FA" x="0" y="0" width="24" height="24" rx="2"></rect>
                                <path d="M20.3928571,9.35714286 C21.1980694,9.35714286 21.84479,9.99656588 21.8571429,10.7857143 L21.8571429,10.8214286 L21.8571429,15.5357143 C21.8567236,16.3385057 21.2178123,16.9858652 20.4285714,17 L20.3928571,17 L6.85714286,17 L4.5,19.8571429 L4.5,19.8571429 L4.5,19.8571429 L4.5,19.8571429 C4.48456656,19.8635922 4.48345881,19.8645252 4.5,19.8571429 C4.45453312,19.8964758 4.42089926,19.9196365 4.39285714,19.9285714 L4.39285714,19.9285714 L4.39285714,19.9285714 L4.35714286,19.9642857 C4.35910847,19.9592825 4.35444155,19.9624412 4.35714286,19.9642857 C4.29976233,19.9867458 4.24575308,20 4.17857143,20 C4.13926729,20 4.09042066,19.9892567 4.03571429,19.9642857 C4.03663335,19.9682731 4.03011282,19.964813 4.03571429,19.9642857 L4,19.9642857 C4.00174259,19.9472782 3.99853269,19.9453919 4,19.9285714 L4,19.9285714 L4,19.9285714 L3.96428571,19.9285714 C3.95594417,19.9238278 3.9440393,19.9174042 3.92857143,19.8928571 C3.92852832,19.90415 3.92643468,19.8985692 3.92857143,19.8928571 C3.9096469,19.8831834 3.8996096,19.871031 3.89285714,19.8571429 L3.85714286,19.8214286 L3.85714286,19.8214286 C3.85483857,19.8094197 3.83892876,19.7914208 3.82142857,19.7857143 C3.82392608,19.758982 3.82054179,19.7476808 3.82142857,19.75 L3.82142857,19.7142857 C3.81098581,19.7088712 3.80999337,19.7049414 3.82142857,19.7142857 L3.78571429,19.6785714 C3.79738823,19.6583615 3.79307329,19.6388853 3.78571429,19.6071429 L3.78571429,19.6071429 L3.78571429,19.6071429 L3.78571429,19.6071429 L3.78571429,19.6071429 L3.78571429,19.6071429 L3.78571429,17 L3.60714286,17 C2.80318732,16.9995058 2.15591834,16.3600827 2.14285714,15.5714286 L2.14285714,15.5357143 L2.14285714,10.8214286 C2.14285714,10.0177901 2.78204862,9.37042632 3.57142857,9.35714286 L3.60714286,9.35714286 L20.3928571,9.35714286 L20.3928571,9.35714286 Z M20.3928571,10.1428571 L3.57142857,10.1428571 C3.22576173,10.1428571 2.93502416,10.4297432 2.92857143,10.7857143 L2.92857143,10.7857143 L2.92857143,15.5357143 C2.92857143,15.8798039 3.21539621,16.1702187 3.57142857,16.1785714 L3.57142857,16.1785714 L4.17857143,16.1785714 C4.39107818,16.1766643 4.56813806,16.3495357 4.57142857,16.5714286 L4.57142857,16.5714286 L4.57142857,18.4642857 L6.35714286,16.3214286 L6.35714286,16.3214286 L6.35714286,16.3214286 L6.35714286,16.3214286 C6.36285513,16.3115848 6.3641455,16.3104875 6.35714286,16.3214286 C6.37760677,16.2959133 6.39143316,16.285106 6.39285714,16.2857143 L6.42857143,16.25 L6.42857143,16.25 C6.44805532,16.2441218 6.4668893,16.2278185 6.5,16.2142857 C6.50022927,16.212421 6.51124975,16.2090419 6.53571429,16.2142857 L6.53571429,16.2142857 L6.53571429,16.2142857 L6.57142857,16.1785714 C6.59597304,16.1872584 6.61164437,16.1836135 6.64285714,16.1785714 L6.64285714,16.1785714 C6.64161347,16.1807202 6.64316544,16.1804938 6.64285714,16.1785714 L6.64285714,16.1785714 L6.64285714,16.1785714 L20.3928571,16.1785714 C20.7393642,16.1770973 21.0292799,15.8902113 21.0357143,15.5357143 L21.0357143,15.5357143 L21.0357143,10.7857143 C21.0357143,10.4401385 20.749395,10.1493119 20.3928571,10.1428571 L20.3928571,10.1428571 Z M11.6785714,13.8571429 C11.8921074,13.8571429 12.0714286,14.032671 12.0714286,14.25 C12.0714286,14.4637378 11.8977619,14.6372698 11.6785714,14.6428571 L11.6785714,14.6428571 L4.75,14.6428571 C4.53660347,14.6428571 4.35714286,14.467329 4.35714286,14.25 C4.35714286,14.0362622 4.53080955,13.8627302 4.75,13.8571429 L4.75,13.8571429 L11.6785714,13.8571429 Z M19.25,11.7142857 C19.4637445,11.7142857 19.6428571,11.8903611 19.6428571,12.1071429 C19.6428571,12.3204768 19.469797,12.4943998 19.25,12.5 L19.25,12.5 L4.75,12.5 C4.5363948,12.5 4.35714286,12.3240615 4.35714286,12.1071429 C4.35714286,11.893809 4.53060762,11.7198859 4.75,11.7142857 L4.75,11.7142857 L19.25,11.7142857 Z M19.5,4.21428571 C19.6303125,3.93495005 20.0720359,3.93188763 20.2142857,4.17857143 L20.2142857,4.21428571 L20.6785714,5.10714286 L21.6428571,5.25 C21.8036257,5.26447573 21.9269697,5.36530896 21.9642857,5.5 L21.9642857,5.5 C22.0261651,5.65569997 21.990364,5.8097207 21.8928571,5.92857143 L21.8928571,5.92857143 L21.1428571,6.60714286 L21.3214286,7.60714286 C21.3548,7.75439839 21.2928779,7.90573012 21.1785714,8 C21.099272,8.04578352 21.0161976,8.07142857 20.9285714,8.07142857 C20.873666,8.07142857 20.8141044,8.05831816 20.75,8.03571429 L20.75,8.03571429 L19.8571429,7.57142857 L18.9642857,8.03571429 C18.832712,8.09603937 18.6688047,8.08490182 18.5357143,8 C18.4244854,7.90796592 18.3626175,7.76192768 18.3928571,7.60714286 L18.3928571,7.60714286 L18.5714286,6.60714286 L17.8214286,5.92857143 C17.7258595,5.81840788 17.6869138,5.65955964 17.75,5.5 C17.78045,5.37406387 17.9009277,5.27031505 18.0357143,5.25 L18.0714286,5.25 L19.0357143,5.10714286 L19.5,4.21428571 Z M3.78571429,4.21428571 C3.91608434,3.93495342 4.3573731,3.93189117 4.5,4.17857143 L4.5,4.21428571 L4.96428571,5.10714286 L5.92857143,5.25 C6.09281857,5.26536349 6.21861245,5.370746 6.25,5.5 C6.31222974,5.65602884 6.27564921,5.8100415 6.17857143,5.92857143 L6.17857143,5.92857143 L5.42857143,6.60714286 L5.60714286,7.60714286 C5.64019658,7.75444354 5.5784185,7.90576741 5.46428571,8 C5.3846856,8.04581353 5.30161675,8.07142857 5.21428571,8.07142857 C5.15909465,8.07142857 5.09953699,8.05834357 5.03571429,8.03571429 L5.03571429,8.03571429 L4.14285714,7.57142857 L3.25,8.03571429 C3.11743725,8.09606677 2.95396043,8.08451282 2.82142857,8 C2.70966791,7.90800309 2.64779389,7.76197243 2.67857143,7.60714286 L2.67857143,7.60714286 L2.85714286,6.60714286 L2.10714286,5.92857143 C2.01175575,5.81775745 1.97239307,5.65933443 2.03571429,5.5 C2.06606976,5.37385349 2.18639968,5.27024202 2.32142857,5.25 L2.35714286,5.25 L3.32142857,5.10714286 L3.78571429,4.21428571 Z M9.03571429,4.21428571 C9.16637281,3.93494514 9.60763055,3.9318825 9.75,4.17857143 L9.75,4.21428571 L10.2142857,5.10714286 L11.1785714,5.25 C11.3426923,5.26496853 11.468757,5.37036446 11.5,5.5 C11.5622279,5.6556836 11.5256499,5.80971587 11.4285714,5.92857143 L11.4285714,5.92857143 L10.6785714,6.60714286 L10.8571429,7.60714286 C10.8908049,7.75440105 10.8288913,7.90574418 10.7142857,8 C10.584455,8.08169154 10.4260455,8.09536845 10.2857143,8.03571429 L10.2857143,8.03571429 L9.39285714,7.57142857 L8.5,8.03571429 C8.44497121,8.05625256 8.38067662,8.07142857 8.32142857,8.07142857 C8.23332259,8.07142857 8.15053927,8.04539503 8.07142857,8 C7.96005193,7.90798442 7.89818225,7.76193518 7.92857143,7.60714286 L7.92857143,7.60714286 L8.10714286,6.60714286 L7.35714286,5.92857143 C7.26175492,5.81798883 7.22239501,5.65954564 7.28571429,5.5 C7.31606511,5.37402837 7.43678591,5.27027174 7.57142857,5.25 L7.60714286,5.25 L8.57142857,5.10714286 L9.03571429,4.21428571 Z M14.25,4.21428571 C14.3994163,3.93494737 14.8375703,3.93188482 14.9642857,4.17857143 L14.9642857,4.21428571 L15.4285714,5.10714286 L16.3928571,5.25 C16.5588315,5.26506435 16.6836172,5.37045667 16.7142857,5.5 C16.7760786,5.65576608 16.740176,5.80979309 16.6428571,5.92857143 L16.6428571,5.92857143 L15.9285714,6.60714286 L16.0714286,7.60714286 C16.1108119,7.75441187 16.0493902,7.90574984 15.9285714,8 C15.8077093,8.08209692 15.6505803,8.09538957 15.5357143,8.03571429 L15.5,8.03571429 L14.6071429,7.57142857 L13.75,8.03571429 C13.6839939,8.05625307 13.6206264,8.07142857 13.5714286,8.07142857 C13.4747205,8.07142857 13.3923175,8.04539592 13.3214286,8 C13.2037493,7.90799 13.1423813,7.76194575 13.1785714,7.60714286 L13.1785714,7.60714286 L13.3214286,6.60714286 L12.6071429,5.92857143 C12.5114802,5.81792676 12.4728492,5.65948898 12.5357143,5.5 C12.5653624,5.37398146 12.6847246,5.27022803 12.8214286,5.25 L12.8571429,5.25 L13.8214286,5.10714286 L14.25,4.21428571 Z M9.39285714,5.28571429 L9.21428571,5.64285714 C9.14191467,5.76294307 9.03453342,5.8443127 8.89285714,5.85714286 L8.89285714,5.85714286 L8.5,5.92857143 L8.78571429,6.21428571 C8.87811878,6.29871599 8.92119635,6.42696224 8.89285714,6.57142857 L8.89285714,6.57142857 L8.82142857,6.96428571 L9.17857143,6.78571429 C9.2470698,6.74541442 9.31072312,6.7300625 9.35714286,6.71428571 C9.43428252,6.7300625 9.4932965,6.74330086 9.53571429,6.78571429 L9.57142857,6.78571429 L9.92857143,6.96428571 L9.85714286,6.57142857 C9.82690222,6.43936144 9.86671646,6.30970001 9.96428571,6.21428571 L9.96428571,6.21428571 L10.25,5.92857143 L9.85714286,5.85714286 C9.72714722,5.85007899 9.61765277,5.77165065 9.57142857,5.64285714 L9.53571429,5.64285714 L9.39285714,5.28571429 Z M14.6428571,5.28571429 L14.4642857,5.64285714 C14.3916243,5.76294307 14.2842426,5.8443127 14.1428571,5.85714286 L14.1428571,5.85714286 L13.75,5.92857143 L14.0357143,6.21428571 C14.1281299,6.29871599 14.171588,6.42696224 14.1428571,6.57142857 L14.1428571,6.57142857 L14.0714286,6.96428571 L14.4285714,6.78571429 C14.4970693,6.74541442 14.5607229,6.7300625 14.6071429,6.71428571 C14.6842828,6.7300625 14.743297,6.74330086 14.7857143,6.78571429 L14.8214286,6.78571429 L15.1785714,6.96428571 L15.1071429,6.57142857 C15.0764956,6.43936144 15.1162972,6.30970001 15.2142857,6.21428571 L15.2142857,6.21428571 L15.5,5.92857143 L15.1071429,5.85714286 C14.9768592,5.85007899 14.8673643,5.77165065 14.8214286,5.64285714 L14.7857143,5.64285714 L14.6428571,5.28571429 Z M4.10714286,5.28571429 L3.96428571,5.64285714 C3.89115492,5.7630432 3.78371355,5.84440532 3.64285714,5.85714286 L3.64285714,5.85714286 L3.25,5.92857143 L3.53571429,6.21428571 C3.6284699,6.29834483 3.67157159,6.42657923 3.64285714,6.53571429 L3.64285714,6.57142857 L3.57142857,6.96428571 L3.92857143,6.78571429 C3.99720913,6.74500921 4.06173473,6.72965871 4.14285714,6.71428571 C4.18455654,6.72965871 4.24393651,6.74289584 4.28571429,6.78571429 L4.32142857,6.78571429 L4.67857143,6.96428571 L4.60714286,6.57142857 C4.57666537,6.43883308 4.61650189,6.30944754 4.71428571,6.21428571 L4.71428571,6.21428571 L5,5.92857143 L4.60714286,5.85714286 C4.47685453,5.85002687 4.36729878,5.77160577 4.32142857,5.64285714 L4.28571429,5.64285714 L4.10714286,5.28571429 Z M19.8928571,5.28571429 L19.7142857,5.64285714 C19.6413012,5.76306303 19.5338604,5.84445312 19.3928571,5.85714286 L19.3928571,5.85714286 L19,5.92857143 L19.2857143,6.21428571 C19.3783377,6.29854868 19.4218197,6.42682717 19.3928571,6.57142857 L19.3928571,6.57142857 L19.3214286,6.96428571 L19.6785714,6.78571429 C19.7474799,6.7453594 19.8111684,6.73000362 19.8928571,6.71428571 C19.9347962,6.73000362 19.9938429,6.7432453 20.0357143,6.78571429 L20.0714286,6.78571429 L20.4285714,6.96428571 L20.3571429,6.57142857 C20.3268063,6.43922949 20.3666298,6.30979946 20.4642857,6.21428571 L20.4642857,6.21428571 L20.75,5.92857143 L20.3571429,5.85714286 C20.2268577,5.85022086 20.1173027,5.7717728 20.0714286,5.64285714 L20.0357143,5.64285714 L19.8928571,5.28571429 Z" id="Shape" fill="#00768C" fill-rule="nonzero"></path>
                            </g>
                        </g>
                    </g>
                </g>
            </g>
        </g>
    </g>
</svg>