<?xml version="1.0" encoding="UTF-8"?>
<svg width="24px" height="24px" viewBox="0 0 24 24" version="1.1" xmlns="http://www.w3.org/2000/svg" xmlns:xlink="http://www.w3.org/1999/xlink">
    <title>ic-Patients</title>
    <g id="Page-1" stroke="none" stroke-width="1" fill="none" fill-rule="evenodd">
        <g id="Services-Provider-my-profile-Overview" transform="translate(-650.000000, -454.000000)">
            <g id="Items" transform="translate(165.000000, 249.000000)">
                <g id="Group-6" transform="translate(285.000000, 0.000000)">
                    <g id="Doctor-Card-Copy" transform="translate(24.000000, 24.000000)">
                        <g id="Group-3" transform="translate(0.000000, 65.000000)">
                            <g id="Group-4" transform="translate(176.000000, 116.000000)">
                                <rect id="Rectangle" fill="#F3F6FA" x="0" y="0" width="24" height="24" rx="2"></rect>
                                <path d="M20.6421471,20.4330709 L19.640159,20.4330709 L19.640159,19.511811 C19.6561054,19.2867798 19.562807,19.0640542 19.389662,18.9094488 C19.2310211,18.7356392 19.006245,18.6432505 18.7813121,18.6259843 L18.6739563,18.6259843 L16.0258449,16.1811024 C16.4435489,15.9584617 16.7034459,15.5273962 16.7057654,15.0472441 L16.7057654,15.011811 L18.6739563,16.8543307 L18.6739563,16.8543307 C18.9229682,17.1150595 19.2672117,17.2531443 19.640159,17.2440945 C19.6495006,17.253428 19.6735577,17.252874 19.7117296,17.2440945 L19.7117296,17.2440945 C20.0593533,17.2325128 20.3989597,17.0726689 20.6421471,16.8188976 C20.8861573,16.5416193 21.0141471,16.1916132 21,15.8267717 C20.9835102,15.4746658 20.82601,15.1366698 20.5705765,14.9055118 L17.7077535,12.2834646 C17.6678927,12.2326622 17.6200528,12.1931856 17.5646123,12.1417323 L17.5646123,5.26771654 C17.5703962,4.66272031 17.329389,4.08760928 16.8846918,3.67322835 C16.472642,3.23921502 15.8918664,3.00057533 15.2743539,3 L13.5208748,3 C13.4465393,3 13.3791194,3.02438611 13.3419483,3.07086614 L12.6978131,3.6023622 C12.2272257,3.15376925 11.5829619,2.94487973 10.944334,3 C10.2914621,3.08009234 9.70563756,3.41765582 9.33399602,3.95669291 C9.32085214,3.95160983 9.31525709,3.96324503 9.29821074,3.99212598 C9.28868085,4.02058734 9.27651174,4.0699003 9.26242545,4.13385827 C9.27637169,4.14358643 9.28084777,4.16671781 9.29821074,4.20472441 C9.29049905,4.20079116 9.29343656,4.21242636 9.29821074,4.24015748 C9.31148074,4.25785832 9.33218226,4.28902544 9.36978131,4.31102362 L12.1252485,7.07480315 C12.1767058,7.1272599 12.2520967,7.1582866 12.3399602,7.14566929 L12.3399602,7.14566929 C12.3760296,7.15884065 12.4205108,7.14734428 12.4473161,7.11023622 C12.4736654,7.11950322 12.4873736,7.11299328 12.4831014,7.11023622 C12.9819678,6.76837522 13.3128011,6.25946632 13.4135189,5.69291339 C13.5333805,5.11218737 13.4144868,4.51867307 13.0914513,4.02755906 L13.6282306,3.56692913 L15.2743539,3.56692913 C15.7354579,3.58442238 16.1664114,3.76144059 16.4910537,4.06299213 C16.8020096,4.39084658 16.9807649,4.81759322 16.9920477,5.26771654 L16.9920477,11.8228346 C16.7484403,11.7511047 16.5029741,11.7081673 16.2405567,11.7165354 L10.9801193,11.7165354 L11.8031809,10.7952756 L15.4890656,10.7952756 C15.6484759,10.7794334 15.7805191,10.648678 15.7753479,10.476378 C15.7805191,10.3260818 15.6484759,10.1954647 15.4890656,10.1929134 L11.695825,10.1929134 C11.5993215,10.1953261 11.5191752,10.2309237 11.4811133,10.2992126 L10.1928429,11.7165354 L10.0497018,11.7165354 C9.83871449,11.7077524 9.6300306,11.6300474 9.47713718,11.503937 L7.65208748,9.90944882 L7.65208748,9.90944882 C7.7128695,9.74186151 7.73077368,9.55860891 7.68787276,9.37795276 C7.65971595,9.2050002 7.57215343,9.04252664 7.43737575,8.91732283 L5.7554672,7.2519685 L5.7554672,7.2519685 C5.59876585,7.08837957 5.36432501,6.9923918 5.11133201,7.00393701 C4.87532262,6.9923918 4.64088894,7.08837957 4.46719682,7.2519685 L3.28628231,8.45669291 C3.09707643,8.61699625 3,8.84928876 3,9.09448819 C3,9.33351814 3.09707285,9.56581066 3.28628231,9.73228346 L4.93240557,11.3976378 C5.11409985,11.5641398 5.34867676,11.6602694 5.57654076,11.6456693 C5.61555961,11.6598545 5.63752123,11.6551452 5.64811133,11.6456693 L8.00994036,13.7362205 L8.00994036,13.7362205 C8.31783702,14.0219129 8.71467946,14.2040521 9.15506958,14.2677165 L9.15506958,15.011811 C9.13892672,15.3789182 9.2839785,15.7251762 9.54870775,15.9685039 C9.79999471,16.2361453 10.149699,16.3797866 10.5149105,16.3937008 L12.4115308,16.3937008 L14.8449304,18.6259843 L7.72365805,18.6259843 C7.48885942,18.6436303 7.26394002,18.7360185 7.11530815,18.9094488 C6.93229025,19.0644299 6.8389916,19.2871556 6.82902584,19.511811 L6.82902584,20.4330709 L5.86282306,20.4330709 C5.7069572,20.4160313 5.57491391,20.5467867 5.57654076,20.7165354 C5.57491391,20.8692446 5.7069572,21 5.86282306,21 L20.6421471,21 C20.7879191,21 20.9198227,20.8692446 20.9284294,20.7165354 C20.9198227,20.5467867 20.7879191,20.4160313 20.6421471,20.4330709 L20.6421471,20.4330709 Z M12.3399602,6.47244094 L9.97813121,4.06299213 C10.2938692,3.75320253 10.7268211,3.5691634 11.194831,3.56692913 C11.6327786,3.56458393 12.0675754,3.7442973 12.3757455,4.06299213 C12.7057247,4.38678302 12.8822128,4.8226723 12.8767396,5.26771654 C12.8708947,5.72781786 12.6835424,6.15924204 12.3399602,6.47244094 L12.3399602,6.47244094 Z M3.67992048,9.30708661 C3.54007353,9.19407762 3.54007353,8.98527845 3.67992048,8.84645669 L4.86083499,7.67716535 C5.00222972,7.53881381 5.21331576,7.53867521 5.32604374,7.67716535 L7.00795229,9.34251969 L7.00795229,9.34251969 C7.12981534,9.43620621 7.14637885,9.60613496 7.04373757,9.73228346 C7.04715225,9.74275821 7.03438037,9.75247634 7.00795229,9.76771654 C7.00659103,9.7837127 6.99339806,9.80634049 6.972167,9.83858268 L5.82703777,10.9724409 L5.82703777,10.9724409 C5.68885399,11.1109139 5.47776794,11.1109139 5.36182903,10.9724409 L3.67992048,9.30708661 Z M6.25646123,11.3976378 L7.29423459,10.3700787 L9.08349901,11.9291339 C9.36006377,12.1657307 9.70701837,12.2949601 10.0497018,12.2834646 L16.2763419,12.2834646 C16.6625195,12.2944021 17.0405406,12.4413806 17.3141153,12.7086614 L20.1769384,15.3307087 C20.3279156,15.4660821 20.4180444,15.6595109 20.4274354,15.8622047 C20.4355389,16.0695159 20.3623427,16.2696003 20.2127237,16.4291339 C20.0838374,16.573392 19.8897214,16.6647713 19.6759443,16.6771654 C19.4638485,16.688482 19.2495721,16.6088923 19.1033797,16.4645669 L16.6699801,14.1259843 C16.3859884,13.8522231 16.0153802,13.7033037 15.6322068,13.7007874 L9.44135189,13.7007874 C9.06045227,13.7042554 8.68999094,13.5633791 8.40357853,13.3110236 L6.25646123,11.3976378 Z M9.72763419,15.011811 L9.72763419,14.2677165 L15.5964215,14.2677165 C15.7964414,14.2684143 15.9812271,14.3303755 16.1332008,14.4448819 L16.1332008,15.011811 C16.1118297,15.2335513 16.0269036,15.4279444 15.8827038,15.5787402 C15.7334298,15.7130409 15.5364791,15.792305 15.3459245,15.7913386 L10.5149105,15.7913386 C10.3045428,15.7910506 10.1049495,15.7082965 9.94234592,15.5787402 C9.81061398,15.414258 9.72778295,15.2148383 9.72763419,15.011811 L9.72763419,15.011811 Z M13.2703777,16.3937008 L15.3101392,16.3937008 C15.3310908,16.3961963 15.3393181,16.3938394 15.3459245,16.3937008 L17.7793241,18.6614173 L15.7037773,18.6614173 L13.2703777,16.3937008 Z M7.43737575,19.511811 C7.43755847,19.3608477 7.56937694,19.2284866 7.72365805,19.2283465 L18.7813121,19.2283465 C18.9356362,19.2284868 19.0674549,19.3608477 19.0675944,19.511811 L19.0675944,20.4330709 L7.43737575,20.4330709 L7.43737575,19.511811 Z" id="Shape" fill="#00768C" fill-rule="nonzero"></path>
                            </g>
                        </g>
                    </g>
                </g>
            </g>
        </g>
    </g>
</svg>