<?xml version="1.0" encoding="UTF-8"?>
<svg width="62px" height="60px" viewBox="0 0 62 60" version="1.1" xmlns="http://www.w3.org/2000/svg" xmlns:xlink="http://www.w3.org/1999/xlink">
    <title>Shape</title>
    <g id="Page-1" stroke="none" stroke-width="1" fill="none" fill-rule="evenodd">
        <g id="Services" transform="translate(-1096.000000, -468.000000)" fill="#F7B500" fill-rule="nonzero">
            <g id="Items" transform="translate(165.000000, 249.000000)">
                <g id="Group-6" transform="translate(285.000000, 0.000000)">
                    <g id="My-Services-list" transform="translate(24.000000, 182.000000)">
                        <g id="Services-card-8-3" transform="translate(529.000000, 0.000000)">
                            <path d="M114.932836,37 C117.040714,37 118.904173,38.4702621 119.522388,40.4572491 L119.522388,40.4572491 L123.328358,40.4572491 C125.313013,40.5003413 126.80683,41.9701659 126.798507,43.802974 L126.798507,43.9144981 L126.798507,45.5873606 L130.268657,45.5873606 C133.32181,45.6251277 135.80904,48.075601 135.865672,51.0520446 L135.865672,51.1635688 L135.865672,57.6319703 C137.989922,58.6247054 139.869319,59.999708 141.350746,61.8698885 C144.102609,65.092329 145.358032,69.2901556 145.044776,73.4684015 L145.044776,73.5799257 C144.884854,75.2119482 144.404171,76.7990514 143.813433,78.2639405 L143.701493,78.3754647 L152.320896,86.8513011 C154.656543,89.1247621 154.531563,92.8749923 152.097015,95.2156134 C149.793159,97.6014732 146.08472,97.5023648 143.813433,95.3271375 L143.701493,95.2156134 L135.865672,87.4089219 L135.865672,91.4237918 C135.859224,94.4689685 133.40301,96.9499418 130.268657,97 L130.268657,97 L99.5970149,97 C96.5417217,97 93.9315495,94.5495267 94,91.535316 L94,91.535316 L94,51.1635688 C94.0043074,48.1549125 96.4605218,45.6751733 99.5970149,45.5873606 L99.5970149,45.5873606 L103.067164,45.5873606 L103.067164,43.9144981 C103.027021,42.0187605 104.500552,40.5299456 106.425373,40.3457249 L106.537313,40.3457249 L110.343284,40.3457249 C110.921671,38.5001144 112.676087,37 114.932836,37 Z M142.58209,80.7174721 C141.299787,82.6907482 139.709438,84.3007023 137.768657,85.5130112 L137.656716,85.6245353 L145.604478,93.5427509 C147.024725,94.8914121 149.148003,94.8914121 150.529851,93.5427509 C151.88218,92.1455491 151.895783,90.0416137 150.41791,88.6356877 L150.41791,88.6356877 L142.58209,80.7174721 Z M102.843284,48.1524164 L99.4850746,48.1524164 C97.7454514,48.1524164 96.3783274,49.5010387 96.3507463,51.0520446 L96.3507463,51.1635688 L96.3507463,91.535316 C96.3507463,93.1546547 97.8228957,94.5189322 99.5970149,94.5464684 L99.5970149,94.5464684 L130.156716,94.5464684 C131.889024,94.5457844 133.378974,93.0752495 133.291045,91.7583643 L133.291045,91.6468401 L133.291045,87.7434944 C131.280337,88.2931841 129.277394,88.5430958 127.246269,88.3011152 C125.311498,88.0482961 123.589594,87.5632821 121.873134,86.739777 L121.761194,86.6282528 L103.626866,86.6282528 C102.860459,86.667636 102.359611,86.1673772 102.395522,85.401487 C102.359611,84.67901 102.844653,84.1827885 103.626866,84.1747212 L103.626866,84.1747212 L117.955224,84.1747212 C116.909071,83.1897123 115.928292,82.0941689 115.156716,80.7174721 L115.156716,80.7174721 L103.626866,80.7174721 C102.860236,80.6650988 102.359388,80.1648399 102.395522,79.3791822 C102.359388,78.6764728 102.844429,78.1802512 103.626866,78.1524164 L103.626866,78.1524164 L113.925373,78.1524164 L113.813433,77.929368 L113.813433,77.929368 L113.701493,77.3717472 L113.701493,77.3717472 L113.589552,77.1486989 L113.589552,77.1486989 L113.477612,76.9256506 C113.284662,76.1639246 113.103282,75.4377052 113.029851,74.6951673 L113.029851,74.5836431 L103.626866,74.5836431 C102.860258,74.5378353 102.35941,74.0375764 102.395522,73.2453532 C102.35941,72.5492093 102.844452,72.0529877 103.626866,72.0185874 L103.626866,72.0185874 L113.029851,72.0185874 L113.029851,70.6802974 C113.001124,70.2238728 113.086263,69.7861387 113.141791,69.3420074 L113.253731,69.0074349 C113.299338,68.8169438 113.332221,68.6606368 113.365672,68.4498141 L113.365672,68.4498141 L103.626866,68.4498141 C102.860303,68.4105717 102.359455,67.9103129 102.395522,67.1115242 C102.359455,66.4219458 102.844496,65.9257242 103.626866,65.8847584 L103.626866,65.8847584 L114.037313,65.8847584 C114.611198,64.5730873 115.219423,63.4726341 116.052239,62.4275093 L116.164179,62.3159851 L103.514925,62.3159851 C102.735552,62.2828721 102.234704,61.7826133 102.283582,60.9776952 C102.234704,60.2942462 102.719746,59.7980246 103.402985,59.7509294 L103.514925,59.7509294 L118.514925,59.7509294 C121.76536,57.1561151 125.897005,55.6553498 130.380597,56.1821561 C131.272267,56.1556086 132.140419,56.3436471 132.955224,56.5167286 L133.067164,56.6282528 L133.067164,56.6282528 L133.291045,56.6282528 L133.291045,51.1635688 C133.283907,49.5442301 131.934135,48.1799525 130.156716,48.1524164 L130.156716,48.1524164 L126.798507,48.1524164 L126.798507,49.936803 C126.773401,51.7602455 125.178435,53.2496686 123.328358,53.2825279 L123.216418,53.2825279 L106.313433,53.2825279 C104.383333,53.2797205 102.890916,51.8093019 102.843284,49.936803 L102.843284,49.936803 L102.843284,48.1524164 Z M130.492537,58.4126394 L130.380597,58.4126394 C126.637864,57.9957398 122.917414,59.2166374 120.19403,61.535316 L120.08209,61.6468401 L119.970149,61.7583643 C117.455258,63.9902287 115.826345,67.1141882 115.492537,70.5687732 C114.698904,78.1106373 120.085999,84.7333422 127.58209,85.5130112 C129.944791,85.6056151 132.044524,85.3657107 134.074627,84.5092937 L134.074627,84.5092937 L134.186567,84.5092937 C138.707211,82.6275592 141.944452,78.4451835 142.470149,73.3568773 L142.470149,73.2453532 C142.882863,69.773201 141.781731,66.1868841 139.559701,63.4312268 L139.559701,63.3197026 C138.001311,61.615774 136.247521,60.3662906 134.186567,59.4163569 C133.026559,58.8813473 131.810622,58.5139925 130.492537,58.4126394 L130.492537,58.4126394 Z M135.865672,66.4423792 C136.36562,65.9832764 137.116369,65.9832764 137.656716,66.4423792 C138.109072,66.9709853 138.117555,67.7008241 137.656716,68.2267658 L137.656716,68.2267658 L127.246269,78.598513 C126.979132,78.8084468 126.72858,78.9330855 126.350746,78.9330855 C126.113088,78.9330855 125.757122,78.8182185 125.455224,78.598513 L125.455224,78.598513 L120.30597,73.4684015 C119.844982,72.9560299 119.844982,72.209098 120.30597,71.6840149 C120.83774,71.2214437 121.571309,71.2130035 122.097015,71.6840149 L122.097015,71.6840149 L126.350746,75.9219331 L135.865672,66.4423792 Z M114.932836,39.6765799 C113.686623,39.6765799 112.692204,40.5353705 112.69403,41.795539 L112.69403,41.795539 C112.671073,42.5464654 112.185703,43.04371 111.462687,43.0223048 L111.462687,43.0223048 L106.537313,43.0223048 C106.040262,43.0596871 105.54808,43.4219915 105.529851,43.9144981 L105.529851,43.9144981 L105.529851,49.936803 C105.529851,50.4435866 106.012968,50.8148502 106.537313,50.8289963 L106.537313,50.8289963 L123.440299,50.8289963 C123.937462,50.8289963 124.429536,50.4666919 124.447761,49.936803 L124.447761,49.936803 L124.447761,43.9144981 C124.447761,43.4446597 123.964644,43.0733961 123.440299,43.0223048 L123.440299,43.0223048 L118.514925,43.0223048 C117.819767,43.0596871 117.322624,42.5742171 117.283582,41.795539 L117.283582,41.795539 C117.30665,40.679149 116.178892,39.6765799 114.932836,39.6765799 Z" id="Shape"></path>
                        </g>
                    </g>
                </g>
            </g>
        </g>
    </g>
</svg>