<?xml version="1.0" encoding="UTF-8"?>
<svg width="28px" height="28px" viewBox="0 0 28 28" version="1.1" xmlns="http://www.w3.org/2000/svg" xmlns:xlink="http://www.w3.org/1999/xlink">
    <title>ic-Restorative</title>
    <g id="Page-1" stroke="none" stroke-width="1" fill="none" fill-rule="evenodd">
        <g id="Services" transform="translate(-486.000000, -443.000000)" fill="#002548">
            <g id="Items" transform="translate(165.000000, 249.000000)">
                <g id="Group-6" transform="translate(285.000000, 0.000000)">
                    <g id="My-Services-list" transform="translate(24.000000, 182.000000)">
                        <g id="ic-Restorative" transform="translate(12.000000, 12.000000)">
                            <circle id="Oval" fill-opacity="0.1" cx="14" cy="14" r="14"></circle>
                            <path d="M17.9078881,16.6793187 C18.3855069,16.2652924 19.1119132,16.3191533 19.5258183,16.7903362 C19.9058688,17.2279839 19.9192382,17.8506668 19.572869,18.284832 C18.3217088,19.853292 14.3966214,23.7206344 12.1161319,23.9831474 C12.028804,23.996699 11.9279334,24 11.8235871,24 C10.8179921,24 9.14970435,23.5489649 8.31216037,22.9026784 C8.05308353,22.7041002 7.73017308,22.5930827 7.40394694,22.5930827 L7.40394694,22.5930827 L6.81867953,22.5930827 C6.80183442,22.9230264 6.53273052,23.188844 6.19643288,23.188844 L6.19643288,23.188844 L4.25226768,23.188844 C4.11441338,23.188844 4,23.0743529 4,22.9364049 C4,22.7984569 4.11441338,22.6839658 4.25226768,22.6839658 L4.25226768,22.6839658 L6.19643288,22.6839658 C6.26362663,22.6839658 6.31744652,22.6301049 6.31744652,22.5628699 L6.31744652,22.5628699 L6.31744652,17.5579414 C6.31744652,17.490702 6.26362218,17.4368455 6.19643288,17.4368455 L6.19643288,17.4368455 L4.25226768,17.4368455 C4.11441338,17.4368455 4,17.3223544 4,17.1844064 C4,17.0464584 4.11441338,16.9319673 4.25226768,16.9319673 L4.25226768,16.9319673 L6.19954411,16.9319673 C6.53584176,16.9319673 6.80494965,17.1978027 6.82179076,17.5277286 L6.82179076,17.5277286 L7.29265369,17.5277286 C7.82409677,17.5277286 8.32186742,17.7330939 8.69861998,18.1101025 C8.98129774,18.3927677 9.35457017,18.5475678 9.75146131,18.5475678 L9.75146131,18.5475678 L13.5354765,18.5475678 C14.093854,18.5475678 14.5647036,18.9280634 14.6992555,19.4463023 L14.6992555,19.4463023 L17.9080481,16.6795593 Z M19.1224441,17.1241044 C18.877196,16.8420772 18.4706117,16.8117422 18.2017535,17.0435011 L18.2017535,17.0435011 L14.6431028,20.1095685 C14.4852435,20.5831507 14.0349781,20.9256748 13.507315,20.9256748 L13.507315,20.9256748 L9.56567234,20.9256748 C9.42794619,20.9256748 9.31363918,20.8114439 9.31363918,20.6738094 C9.31363918,20.536175 9.42794619,20.4219441 9.56567234,20.4219441 L9.56567234,20.4219441 L13.5041623,20.4219441 C13.8167148,20.4219441 14.0788057,20.2170411 14.1695249,19.9350138 C14.1729942,19.9147321 14.1795857,19.8946243 14.1863503,19.874517 C14.1964111,19.8275413 14.2031758,19.7772729 14.2031758,19.7268315 C14.2031758,19.3440989 13.8907831,19.0317367 13.5076179,19.0317367 L13.5076179,19.0317367 L9.72383449,19.0317367 C9.19288546,19.0317367 8.69557756,18.8268382 8.31917524,18.4506865 C8.03676027,18.1686636 7.66383485,18.0142154 7.26731268,18.0142154 L7.26731268,18.0142154 L6.80017345,18.0142154 L6.8,22.0607108 L7.38143737,22.0607108 C7.81820367,22.0607108 8.25186163,22.2051036 8.59790878,22.4737828 C9.40119288,23.0917577 11.2157091,23.5483397 12.035645,23.4543883 C14.0014486,23.2258555 17.7111647,19.7535765 19.1493052,17.9536253 C19.3444684,17.7118997 19.3344063,17.3626217 19.1224441,17.1241044 Z M5.68888889,17.8222222 C5.83620443,17.8222222 5.95555556,17.9417473 5.95555556,18.0888889 C5.95555556,18.2362044 5.83620443,18.3555556 5.68888889,18.3555556 C5.5417473,18.3555556 5.42222222,18.2362044 5.42222222,18.0888889 C5.42222222,17.9417473 5.5417473,17.8222222 5.68888889,17.8222222 Z M14.2251866,10.9504091 C14.7028425,10.5373788 15.3418062,10.3628454 15.987704,10.4803546 C16.8588282,10.6415504 17.5517805,11.3667317 17.6695009,12.2464976 C17.7636008,12.938224 17.5113046,13.6299504 16.9966666,14.0932163 C16.8117516,14.2609788 16.704099,14.4961791 16.704099,14.7344941 L16.704099,14.7344941 L16.704099,15.3489282 C16.704099,16.7391252 15.8328414,17.9109336 15.2879777,17.9109336 L15.287,17.91 L15.2084629,17.9046942 C14.700763,17.8218025 14.6404393,16.9190064 14.6361318,15.5568321 L14.6358569,15.3491057 L14.6358569,14.8991507 C14.6358569,14.6741821 14.4507641,14.4894215 14.225391,14.4894215 C14.000018,14.4894215 13.8149252,14.6741821 13.8149252,14.8991507 L13.8149252,14.8991507 L13.8145851,15.5568331 C13.8094851,16.9871309 13.740175,17.9111111 13.1589373,17.9111111 C12.6106064,17.9111111 11.742816,16.7391252 11.742816,15.3491057 L11.742816,15.3491057 L11.742816,14.7346716 C11.742816,14.4929001 11.6351634,14.2578818 11.4467724,14.0899329 C10.9321166,13.6266226 10.6831275,12.9416848 10.7739381,12.2499585 C10.8916408,11.3701925 11.5846108,10.6415415 12.4592021,10.4803546 C13.1050999,10.3628632 13.7475307,10.5373877 14.2251866,10.9504091 Z M15.8695086,10.9615547 C15.3830981,10.8709625 14.8967186,11.0017382 14.5377642,11.3138712 C14.7893608,11.6661744 14.9335995,12.0857057 14.9335995,12.5218566 C14.9335995,12.6593901 14.8194905,12.7735372 14.6820029,12.7735372 C14.5445154,12.7735372 14.4304064,12.6593901 14.4304064,12.5218566 C14.4304064,12.1292015 14.2861677,11.753308 14.0245308,11.4614439 C14.0210679,11.4614439 14.0177779,11.4614439 14.0177779,11.4581529 C13.6453345,11.0453928 13.0952248,10.8574548 12.5350525,10.9615583 C11.8741229,11.0824367 11.3475424,11.6327303 11.2602695,12.3004879 C11.1863305,12.8341973 11.3742145,13.3441212 11.7667606,13.6999009 L11.8702732,13.8039914 C12.0978441,14.0574271 12.2263084,14.3818797 12.2263084,14.7166803 L12.2263084,14.7166803 L12.2263084,15.3307388 C12.2263084,16.4583751 12.8837672,17.2736743 13.1085231,17.3777778 C13.2579818,17.1533021 13.279333,16.1400719 13.2823832,15.5719784 L13.2828915,14.8810589 C13.2828915,14.377875 13.6920385,13.9683963 14.1952493,13.9683963 C14.6984885,13.9683484 15.1076549,14.3778094 15.1147545,14.8808336 L15.1147545,14.8808336 L15.114818,15.4397665 C15.1156441,15.9659557 15.1272093,17.137578 15.2891229,17.3775525 C15.5071277,17.2835015 16.1713376,16.4647125 16.1713376,15.3305135 L16.1713376,15.3305135 L16.1713376,14.716455 C16.1713376,14.3371471 16.3391189,13.9680202 16.6308854,13.7030013 C17.0267251,13.3439137 17.2113066,12.8305132 17.1408341,12.2970255 C17.0502721,11.632771 16.5269807,11.0822868 15.8695086,10.9615547 Z M15.8232709,4.01235464 C16.8222238,3.89446144 18.8202185,4.64242431 19.6879244,5.31287506 C19.9469962,5.5116551 20.2699003,5.62278546 20.59612,5.62278546 L20.59612,5.62278546 L21.1813759,5.62278546 C21.1982207,5.29250643 21.4673193,5.02641864 21.8036103,5.02641864 L21.8036103,5.02641864 L23.7477373,5.02641864 C23.8855889,5.02641864 24,5.14102614 24,5.27911434 C24,5.41720253 23.8855889,5.53181003 23.7477373,5.53181003 L23.7477373,5.53181003 L21.8036103,5.53181003 C21.7364179,5.53181003 21.6825991,5.58572568 21.6825991,5.65302898 L21.6825991,5.65302898 L21.6825991,10.6630445 C21.6825991,10.7303523 21.7364223,10.7842635 21.8036103,10.7842635 L21.8036103,10.7842635 L23.7477595,10.7843436 C23.8857844,10.7843436 24,10.8989511 24,11.0372129 C24,11.1753011 23.8854378,11.2899086 23.7475862,11.2899086 L23.7475862,11.2899086 L21.8034592,11.2899086 C21.4671682,11.2899086 21.1980656,11.023803 21.1812248,10.6935418 L21.1812248,10.6935418 L20.7103711,10.6935418 C20.1789385,10.6935418 19.6811776,10.4879678 19.3044325,10.110576 C19.0217603,9.82762342 18.6484952,9.672666 18.2516118,9.672666 L18.2516118,9.672666 L14.4643821,9.672666 C13.9060156,9.672666 13.4351753,9.29178372 13.300626,8.77301805 L13.300626,8.77301805 L10.0918965,11.5425732 C9.87660335,11.7312646 9.60751363,11.8222222 9.34188176,11.8222222 C9.02245328,11.8222222 8.69952696,11.6874375 8.47417588,11.4279612 C8.09413288,10.9898687 8.08076373,10.3665529 8.42712607,9.93194643 C9.82315341,8.1834942 13.6202945,4.26835383 15.8232709,4.01235464 Z M16.024076,4.48888889 C15.9669736,4.48888889 15.9098668,4.49218544 15.8593585,4.49895177 C13.9224733,4.72414063 10.3077539,8.33404697 8.80810083,10.2232794 C8.61300463,10.4685887 8.61977639,10.8148954 8.82823484,11.0534579 C9.07364473,11.3357435 9.48049728,11.3661062 9.74953282,11.1341351 L9.74953282,11.1341351 L13.3105313,8.0652594 C13.4684947,7.5912435 13.9190572,7.24840567 14.4470683,7.24840567 L14.4470683,7.24840567 L18.3947773,7.24840567 C18.5325943,7.24840567 18.6469768,7.36274121 18.6469768,7.50050172 C18.6469768,7.63826223 18.5325943,7.75259777 18.3947773,7.75259777 L18.3947773,7.75259777 L14.4505342,7.75259777 C14.1377754,7.75259777 13.8755117,7.95768841 13.7847327,8.23997398 C13.781261,8.26027429 13.7746652,8.28040049 13.7678961,8.30052625 C13.7578287,8.34754497 13.7510596,8.39785936 13.7510596,8.44834697 C13.7510596,8.8314301 14.0636584,9.14407841 14.4470763,9.14407841 L14.4470763,9.14407841 L18.233356,9.14407841 C18.7646553,9.14407841 19.2622913,9.34916462 19.638942,9.72566086 C19.9212633,10.0046437 20.2946214,10.1592334 20.6881081,10.1592334 L20.6881081,10.1592334 L21.1555556,10.1592334 L21.1555556,6.10903173 L20.5737346,6.10903173 C20.1366801,6.10903173 19.7027361,5.96450667 19.3564606,5.69558142 C18.566199,5.08712732 16.8848102,4.48888889 16.024076,4.48888889 Z M22.3111111,9.86666667 C22.4582527,9.86666667 22.5777778,9.98619175 22.5777778,10.1333333 C22.5777778,10.2806489 22.4582527,10.4 22.3111111,10.4 C22.1637956,10.4 22.0444444,10.2806489 22.0444444,10.1333333 C22.0444444,9.98619175 22.1637956,9.86666667 22.3111111,9.86666667 Z" id="Combined-Shape" fill-rule="nonzero"></path>
                        </g>
                    </g>
                </g>
            </g>
        </g>
    </g>
</svg>