<?xml version="1.0" encoding="UTF-8"?>
<svg width="18px" height="18px" viewBox="0 0 18 18" version="1.1" xmlns="http://www.w3.org/2000/svg" xmlns:xlink="http://www.w3.org/1999/xlink">
    <title>icon/rounded/toggle/star_24px_rounded</title>
    <g id="Page-1" stroke="none" stroke-width="1" fill="none" fill-rule="evenodd">
        <g id="Add-Order#3-1" transform="translate(-666.000000, -854.000000)" fill="#F5A623">
            <g id="Items" transform="translate(165.000000, 249.000000)">
                <g id="Group-6" transform="translate(285.000000, 0.000000)">
                    <g id="Personal-Info-Copy" transform="translate(24.000000, 88.000000)">
                        <g id="Group-3" transform="translate(0.000000, 156.000000)">
                            <g id="Doctor-Card-Copy-3" transform="translate(0.000000, 346.000000)">
                                <g id="Group-3" transform="translate(191.000000, 13.000000)">
                                    <g id="icon/rounded/toggle/star_24px" transform="translate(1.000000, 2.000000)">
                                        <path d="M9,13.139695 L12.1125,15.022195 C12.6825,15.367195 13.38,14.857195 13.23,14.212195 L12.405,10.672195 L15.1575,8.28719505 C15.66,7.85219505 15.39,7.02719505 14.73,6.97469505 L11.1075,6.66719505 L9.69,3.32219505 C9.435,2.71469505 8.565,2.71469505 8.31,3.32219505 L6.8925,6.65969505 L3.27,6.96719505 C2.61,7.01969505 2.34,7.84469505 2.8425,8.27969505 L5.595,10.664695 L4.77,14.204695 C4.62,14.849695 5.3175,15.359695 5.8875,15.014695 L9,13.139695 L9,13.139695 Z" id="icon/toggle/star_24px"></path>
                                    </g>
                                </g>
                            </g>
                        </g>
                    </g>
                </g>
            </g>
        </g>
    </g>
</svg>