<?xml version="1.0" encoding="UTF-8"?>
<svg width="31px" height="30px" viewBox="0 0 31 30" version="1.1" xmlns="http://www.w3.org/2000/svg" xmlns:xlink="http://www.w3.org/1999/xlink">
    <title>mdpi/Combined Shape</title>
    <g id="Page-1" stroke="none" stroke-width="1" fill="none" fill-rule="evenodd">
        <g id="Contacts-2" transform="translate(-1062.000000, -612.000000)" fill="#00768C" fill-rule="nonzero">
            <g id="Group-10" transform="translate(925.000000, 578.000000)">
                <g id="Social-media" transform="translate(0.000000, 34.000000)">
                    <path d="M152.998839,0.000331854735 C161.283018,0.000331854735 167.998673,6.71598632 167.998673,15.0001659 C167.998673,23.2843455 161.283018,30 152.998839,30 C144.714659,30 137.999004,23.2843455 137.999004,15.0001659 C137.999004,6.71598632 144.714659,0.000331854735 152.998839,0.000331854735 Z M156.809627,9.0989513 C154.8299,9.0989513 153.224245,10.7046058 153.224245,12.6843336 C153.224245,12.9653565 153.256064,13.2388927 153.317563,13.501466 C150.337811,13.3519971 147.695767,11.9246892 145.927274,9.75484978 C145.618711,10.2842746 145.441701,10.9005999 145.441701,11.5575679 C145.441701,12.8011814 146.075139,13.8990693 147.03666,14.5418659 C146.449212,14.5234162 145.89599,14.3621823 145.412823,14.0929244 L145.412556,14.13838 L145.412556,14.13838 C145.412556,15.8755885 146.64895,17.3245546 148.28883,17.6537071 C147.988287,17.7360621 147.6709,17.779646 147.344421,17.779646 C147.112865,17.779646 146.888528,17.757453 146.669806,17.7157407 C147.125967,19.1398399 148.449796,20.1764964 150.019086,20.2056415 C148.791783,21.1674299 147.246023,21.7404386 145.565768,21.7404386 C145.276991,21.7404386 144.990888,21.7235933 144.710934,21.69017 C146.296802,22.7078421 148.181875,23.3011722 150.206524,23.3011722 C156.801338,23.3011722 160.407844,17.8379362 160.407844,13.0995844 C160.407844,12.944233 160.404368,12.7894164 160.397416,12.6359367 C161.098503,12.1305767 161.706272,11.4992777 162.186765,10.7802761 C161.543968,11.0653098 160.852508,11.2580953 160.127356,11.3441937 C160.867749,10.9005999 161.435944,10.198711 161.704133,9.36098983 C161.011335,9.7719625 160.243669,10.0700982 159.427339,10.2307973 C158.773312,9.53425612 157.841471,9.0989513 156.809627,9.0989513 Z" id="Combined-Shape"></path>
                </g>
            </g>
        </g>
    </g>
</svg>