<?xml version="1.0" encoding="UTF-8"?>
<svg width="72px" height="80px" viewBox="0 0 72 80" version="1.1" xmlns="http://www.w3.org/2000/svg" xmlns:xlink="http://www.w3.org/1999/xlink">
    <title>Shape</title>
    <g id="Page-1" stroke="none" stroke-width="1" fill="none" fill-rule="evenodd">
        <g id="Profile-Update-3" transform="translate(-827.000000, -450.000000)" fill="#00768C" fill-rule="nonzero">
            <g id="Items" transform="translate(165.000000, 249.000000)">
                <g id="Group-6" transform="translate(285.000000, 0.000000)">
                    <g id="Personal-Info" transform="translate(24.000000, 89.000000)">
                        <g id="Group-19-Copy" transform="translate(0.000000, 75.000000)">
                            <g id="Group-2" transform="translate(94.000000, 37.000000)">
                                <g id="ic-attachments" transform="translate(259.000000, 0.000000)">
                                    <path d="M13.6832579,-8.8817842e-15 C11.6009746,-8.8817842e-15 9.93665158,1.6468098 9.93665158,3.73225152 L9.93665158,22.2312373 C9.93665158,22.2476441 9.94364223,22.3134067 9.93665158,22.3935091 C10.1832268,25.1981227 12.571392,27.4239351 15.4751131,27.4239351 C18.3787892,27.4239351 20.7675726,25.1968277 21.0135747,22.3935091 C21.0065394,22.3121036 21.0135747,22.2463409 21.0135747,22.2312373 L21.0135747,4.05679513 C21.0186137,3.53983491 20.5928284,3.12186781 20.0361991,3.0831643 C19.5671142,3.14210247 19.1635768,3.55375636 19.2217195,4.05679513 L19.2217195,10.2231237 L17.2669683,10.2231237 L17.2669683,3.73225152 C17.3206686,1.64661554 15.658786,-8.8817842e-15 13.6832579,-8.8817842e-15 L13.6832579,-8.8817842e-15 Z M13.8461538,1.78498986 C14.8191332,1.78498986 15.638009,2.58124561 15.638009,3.56997972 L15.638009,10.2231237 L11.8914027,10.2231237 L11.8914027,3.56997972 C11.8914027,2.58124561 12.7121767,1.78498986 13.8461538,1.78498986 L13.8461538,1.78498986 Z M25.9004525,10.3853955 C24.5725328,10.37033 24.5725328,12.2368308 25.9004525,12.1703854 L63.6923077,12.1703854 C67.2876427,12.2191511 70.1534259,15.0626629 70.2081448,18.6612576 L70.2081448,59.2292089 L52.4524887,59.2292089 C51.8969108,59.2908241 51.4805105,59.703932 51.4751131,60.2028398 L51.4751131,78.2150101 L8.30769231,78.2150101 C4.71199924,78.1675053 1.84621602,75.3239936 1.7918552,71.7241379 L1.7918552,18.6612576 C1.84621602,15.4109043 4.18698268,12.7847393 7.33031674,12.3326572 C8.52759698,12.1333965 8.22690864,10.2586511 7.00452489,10.5476673 C3.01778739,11.1146404 -7.10542736e-15,14.523351 -7.10542736e-15,18.6612576 L-7.10542736e-15,71.7241379 C-7.10542736e-15,76.3062711 3.72084739,79.9987327 8.30769231,80 L52.4524887,80 C52.6287441,80 52.8633253,79.9036943 53.1040724,79.6754564 L71.6742081,61.1764706 C71.9027271,61.0105773 72,60.7774162 72,60.5273834 L72,18.6612576 C72,14.0778572 68.2791526,10.3853955 63.6923077,10.3853955 L25.9004525,10.3853955 Z M11.8914027,12.1703854 L19.2217195,12.1703854 L19.2217195,22.0689655 C19.2217195,24.0296525 17.6020356,25.6389452 15.638009,25.6389452 C13.5110866,25.6389452 11.8914027,24.0291183 11.8914027,22.0689655 L11.8914027,12.1703854 Z M11.0769231,33.4279919 C9.78509927,33.4017444 9.78509927,35.2398806 11.0769231,35.2129817 L60.760181,35.2129817 C62.0520048,35.2392292 62.0520048,33.401093 60.760181,33.4279919 L11.0769231,33.4279919 Z M10.9140271,42.515213 C9.75397282,42.6009627 9.84670325,44.3332706 11.0769231,44.3002028 L60.760181,44.3002028 C62.0519587,44.3264454 62.0519587,42.4886517 60.760181,42.515213 C60.79435,42.5164469 10.9869054,42.5145961 10.9140271,42.515213 L10.9140271,42.515213 Z M11.0769231,51.7647059 C9.79153211,51.7647059 9.79153211,53.548463 11.0769231,53.5496957 L60.760181,53.5496957 C62.045572,53.5496957 62.045572,51.7659387 60.760181,51.7647059 L11.0769231,51.7647059 Z M11.0769231,60.851927 C9.78538748,60.825699 9.78538748,62.6644136 11.0769231,62.6369168 L33.0678733,62.6369168 C34.3594089,62.6631449 34.3594089,60.8244302 33.0678733,60.851927 L11.0769231,60.851927 Z M53.2669683,61.1764706 L69.0678733,61.1764706 L53.2669683,76.9168357 L53.2669683,61.1764706 Z" id="Shape"></path>
                                </g>
                            </g>
                        </g>
                    </g>
                </g>
            </g>
        </g>
    </g>
</svg>