<?xml version="1.0" encoding="UTF-8"?>
<svg width="33px" height="70px" viewBox="0 0 33 70" version="1.1" xmlns="http://www.w3.org/2000/svg" xmlns:xlink="http://www.w3.org/1999/xlink">
    <title>Shape-1</title>
    <g id="Page-1" stroke="none" stroke-width="1" fill="none" fill-rule="evenodd">
        <path d="M20.5871383,21.2574499 C21.2801208,21.2574499 21.9731234,21.6996797 22.3397076,22.2627828 L22.3721252,22.3142981 L28.2044057,32.1797658 C28.2044057,32.2236989 28.221101,32.2677473 28.2419701,32.3118245 L28.2855634,32.3999914 C28.2994761,32.429376 28.3115338,32.4587477 28.3180264,32.4880809 L28.3231278,32.5320485 L31.0621168,40.0504331 L27.9677627,40.0504331 C27.5865189,40.0504331 27.2817891,40.2003914 26.9923621,40.3807601 L26.8844247,40.4495904 L26.8844247,40.4495904 L26.7772047,40.5198707 L24.3969813,34.4123368 L22.4924413,31.1237776 L22.9681672,41.5766978 L26.5390336,57.6669383 C26.891252,59.0584726 25.8525212,60.4493122 24.3374574,60.4852032 L24.2774069,60.4859131 L21.1830528,60.4859131 L21.1830528,65.301513 L23.8015323,66.0060784 C24.8725372,66.2411853 25.4678162,67.4160692 25.2295388,68.4729173 C24.9912614,69.4125895 24.1585552,70 23.2062746,70 C23.1587849,70 23.0921663,69.9812555 23.0217221,69.9587622 L22.9150996,69.924085 C22.8622666,69.907215 22.8115857,69.8924537 22.7695129,69.8861275 L22.7305487,69.8828472 L18.5643608,68.8259991 C17.6323622,68.595874 17.042315,67.8038723 17.0176285,66.8892944 L17.0168224,66.8294787 L17.0168224,60.3695992 L14.636599,60.3695992 L14.636599,66.8294787 C14.636599,67.7491579 14.0664019,68.5558511 13.1493574,68.8101988 L13.0890607,68.8259991 L8.92287275,69.8828472 C8.82241378,69.9819765 8.63635606,69.9972272 8.5095603,70 L8.44714689,70 L8.44714689,70 C7.49488751,70 6.66216002,69.4126105 6.42388264,68.4729173 C6.07285194,67.4328377 6.75738235,66.2803074 7.79863972,66.0186123 L7.85188914,66.0060784 L10.4703686,65.301513 L10.4703686,60.4859131 L7.37601449,60.4859131 C5.96649061,60.4859131 4.78834987,59.1124507 5.10125887,57.7218368 L5.11438785,57.6669383 L8.68525424,41.5766978 L9.1609801,31.5931523 L7.73297361,34.1770202 L4.87623799,42.7505541 C4.51923637,43.5722744 3.68653013,44.1596849 2.85297374,44.1596849 L2.79914223,44.1594072 L2.79914223,44.1594072 L2.73440015,44.1574633 C2.60672247,44.151354 2.43243148,44.1284441 2.25769474,44.0425321 C1.20488811,43.6965685 0.612607736,42.5558837 0.931349803,41.5135319 L0.948969336,41.4587669 L3.92451421,32.6501263 C3.92451421,32.6061932 3.94120951,32.5621448 3.96207863,32.5180676 L4.00567191,32.4299007 C4.01958466,32.4005161 4.03164237,32.3711444 4.03813499,32.3418112 L4.04323633,32.2978436 L9.39985472,22.3142981 C9.74633567,21.7441643 10.429147,21.285166 11.1218504,21.2586593 L11.1848416,21.2574499 L20.5871383,21.2574499 Z M31.5365887,40.5198099 C32.1318677,40.5198099 32.6075936,40.9892475 32.6075936,41.576658 C32.6075936,42.1486103 32.1565765,42.6087172 31.5833296,42.6325372 L31.5365887,42.6335061 L30.8225855,42.6335061 L30.8225855,67.2976999 C31.2784205,67.2976999 31.6248723,67.4048889 31.9665682,67.7225113 L32.0131435,67.7671375 C32.1916868,67.8849636 32.3106395,68.061236 32.429478,68.2667316 L32.5758358,68.5254832 C32.6527938,68.6600023 32.7382753,68.8008336 32.8451271,68.9416649 C32.8451271,69.5290754 32.3694012,69.998513 31.7741222,69.998513 C31.1980458,69.998513 30.8451199,69.6678256 30.7153504,69.2210331 L30.7031174,69.1759747 L29.2751109,69.1759747 C29.1563866,69.6462303 28.6798319,69.998513 28.204106,69.998513 C27.608827,69.998513 27.1331011,69.5290754 27.1331011,68.9416649 C27.1331011,68.4722273 27.2518254,68.0019717 27.608827,67.649689 L27.7160694,67.5796074 L27.7160694,67.5796074 L27.824064,67.5108925 C28.0955758,67.3419931 28.380724,67.1991775 28.7288957,67.1819853 L28.799385,67.1802514 L28.799385,42.6335061 L28.0853818,42.6335061 C27.4901027,42.6335061 27.0143769,42.1640685 27.0143769,41.576658 C27.0143769,41.0047057 27.465394,40.5445988 28.0386409,40.5207787 L28.0853818,40.5198099 L31.5365887,40.5198099 Z M16.8966104,0 C18.2058289,0 19.2768337,1.0567852 19.2768337,2.34876111 C19.2768337,2.93615063 19.0385564,3.52356112 18.5628305,3.99299875 C21.7766315,5.0498259 24.0382582,7.98603944 24.0382582,11.5097054 C24.0382582,15.9721208 20.4682419,19.4957868 15.9452012,19.4957868 C11.4221392,19.4957868 7.85125279,15.8550917 7.85042262,11.5097054 C7.85042262,7.98603944 10.1120493,5.04984687 13.3258503,3.99299875 C12.8501244,3.64073701 12.611847,3.05332652 12.611847,2.34876111 C12.611847,1.07735468 13.6490598,0.0336099592 14.9299071,0.000795540484 L14.9920704,0 L16.8966104,0 Z" id="Shape-1" fill="#000" fill-rule="nonzero"></path>
    </g>
</svg>