<?xml version="1.0" encoding="UTF-8"?>
<svg width="33px" height="71px" viewBox="0 0 33 71" version="1.1" xmlns="http://www.w3.org/2000/svg" xmlns:xlink="http://www.w3.org/1999/xlink">
    <title>Shape-2</title>
    <g id="Page-1" stroke="none" stroke-width="1" fill="none" fill-rule="evenodd">
        <path d="M21.2197328,18.5360653 C22.0701768,18.5360653 22.9214668,19.0095215 23.3107118,19.7249734 L23.3404733,19.781955 L28.9542702,30.2442164 C28.9542702,30.2908072 28.9717699,30.3375202 28.9936444,30.3842637 L29.0393379,30.4777641 C29.053921,30.5089263 29.0665596,30.5400748 29.073365,30.5711825 L29.0787121,30.6178098 L32.197612,39.8343151 C32.6971038,41.0801158 31.9487237,42.4502252 30.7008074,42.8238186 C30.4926765,42.9273517 30.285149,42.9446073 30.0772192,42.9474832 L29.9524051,42.9480584 L29.9524051,42.9480584 C28.9773201,42.9480584 28.1203367,42.3525136 27.7329254,41.3944772 L27.7072427,41.3285975 L24.7128761,32.2364233 L23.4649597,29.9949073 L23.8391609,38.7134214 L27.5820635,50.6709906 C28.0747064,52.270425 26.8630168,53.8705976 25.269247,53.9084703 L25.2114768,53.9091561 L22.2177785,53.9091561 L22.2177785,64.9944068 L24.8381,65.7415937 C26.2104382,65.9900332 26.9588405,67.3602093 26.5846393,68.606099 C26.210349,69.602615 25.3366561,70.3498018 24.2140527,70.3498018 C24.1141498,70.3498018 24.0342971,70.3299234 23.9584544,70.3060694 L23.8456928,70.2692944 C23.7888107,70.2514039 23.729673,70.2357497 23.6615128,70.2290407 L23.5900945,70.225562 L19.2231891,69.1047818 C18.2458466,68.7388844 17.5079416,67.8949537 17.4776198,66.8077681 L17.4766498,66.7380452 L17.4766498,53.9090471 L15.3559093,53.9090471 L15.3559093,66.8630434 C15.3559093,67.9619129 14.6365898,68.9413008 13.6677933,69.2142551 L13.6093699,69.22978 L9.2424646,70.3505602 C9.03113172,70.4556862 8.90951994,70.4718594 8.72579355,70.4748 L8.61850641,70.4748 L8.61850641,70.4748 C7.49583614,70.4748 6.4976768,69.8518774 6.24791976,68.7310972 C6.00246887,67.507519 6.72103324,66.283146 7.93035975,65.8866891 L7.99445911,65.8665919 L10.6147805,65.119405 L10.6147805,54.0341543 L7.49588069,54.0341543 C5.89300805,54.0341543 4.65639356,52.4537609 5.10822519,50.8538237 L5.12529404,50.7959888 L8.86819662,38.8384196 L9.24239777,30.1199055 L7.99448139,32.3614215 L5.00011477,41.4535957 C4.75124884,42.4501117 3.75311178,43.0730566 2.75495244,43.0730566 L2.64002243,43.072601 C2.42921592,43.0700954 2.21788303,43.053809 2.00655015,42.9479471 C0.779474565,42.5803247 0.0342621747,41.2469095 0.488565922,40.0177611 L0.511108968,39.9593133 L3.50547559,30.6178098 L3.50605171,30.5556244 C3.50864425,30.4622618 3.52290321,30.3685733 3.60132752,30.2752935 L3.62991746,30.2442164 L9.24371439,19.781955 C9.60832064,19.0530816 10.4463073,18.5617599 11.2972562,18.5370431 L11.3644549,18.5360653 L21.2197328,18.5360653 Z M16.2282878,0.4748 C20.6624612,0.4748 24.2651757,4.02739371 24.3367866,8.43732069 L24.337873,8.57121448 C24.337873,13.042236 20.7072508,16.6667393 16.2282878,16.6667393 C11.7499932,16.6667393 8.11959383,13.0420135 8.11959383,8.57121448 C8.11959383,4.09952575 11.750216,0.4748 16.2282878,0.4748 Z" id="Shape-2" fill="#000" fill-rule="nonzero"></path>
    </g>
</svg>