<?xml version="1.0" encoding="UTF-8"?>
<svg width="32px" height="71px" viewBox="0 0 32 71" version="1.1" xmlns="http://www.w3.org/2000/svg" xmlns:xlink="http://www.w3.org/1999/xlink">
    <title>Shape-3</title>
    <g id="Page-1" stroke="none" stroke-width="1" fill="none" fill-rule="evenodd">
        <path d="M20.8880535,20.0072858 C21.7480841,20.0072858 22.6092764,20.3296275 22.9857838,21.1299021 L23.0206906,21.2088452 L28.7093733,31.3310617 L28.7494019,31.3749543 L28.7494019,31.3749543 L28.7878164,31.4241328 C28.8284906,31.480493 28.8720701,31.5565025 28.8836913,31.6350998 L28.8866773,31.6745351 L31.908294,40.5963871 C32.2641461,41.9678296 31.5536798,43.3405283 30.3088162,43.6840016 C30.1724261,43.8156449 29.9303862,43.8460241 29.7452361,43.8530347 L29.6422731,43.8550599 C29.6266839,43.8551378 29.6119886,43.8551378 29.5983498,43.8551378 C28.5608816,43.8551378 27.6912358,43.2048215 27.3172137,42.2216596 L27.2871995,42.1389658 L24.2655827,33.3892948 L23.1992642,31.3308442 L23.5551163,39.5658107 L27.2885326,51.2318345 C27.8133612,52.7514896 26.615327,54.2712041 25.0520926,54.3183242 L24.9773822,54.319449 L21.9557655,54.319449 L21.9557655,64.9563701 L24.444223,65.642122 C25.6890865,65.9855954 26.578098,67.3570686 26.2222458,68.558628 C26.0479828,69.5645143 25.0276878,70.2419498 23.9872491,70.2736384 L23.9110954,70.2748 L23.2006291,70.2748 L18.7568417,69.0732406 C17.7147032,68.9050396 17.012853,67.9202368 16.9800223,66.9159911 L16.9788188,66.8424866 L16.9788188,54.3183155 L15.0234889,54.3183155 L15.0234889,66.8424866 C15.0234889,67.8438651 14.3497352,68.6832592 13.3311402,69.0442705 L13.245466,69.0732406 L8.80167863,70.2748 L8.09121225,70.2748 C7.02492546,70.2748 6.13591404,69.5878532 5.7800619,68.558628 C5.43226717,67.3813774 6.27953549,66.0383277 7.48666815,65.6630711 L7.55808472,65.642122 L10.0465422,64.9563701 L10.0465422,54.3182236 L7.02492546,54.3182236 C5.44925218,54.3182236 4.21956631,52.822313 4.69007921,51.3029705 L8.44592171,39.7355406 L8.80177386,31.5005741 L7.73545532,33.5590247 L4.71383859,42.3086957 C4.35801818,43.3391159 3.46900677,44.0248678 2.40268824,44.0248678 C2.33176539,44.0248678 2.23227483,43.997486 2.12707093,43.9646278 L1.96783687,43.9139715 C1.88893414,43.8893279 1.81324544,43.8677648 1.75041248,43.8585234 L1.69222185,43.8537316 C0.472427859,43.3498613 -0.234229556,42.0223658 0.070778549,40.6802792 L0.0911633362,40.5963871 L3.11278007,31.6745351 L3.13674879,31.6491346 C3.18032827,31.6004664 3.26966622,31.4883929 3.28709801,31.370497 L3.29008402,31.3310617 L8.97876674,21.2088452 C9.3219418,20.544058 10.1655929,20.040666 11.0253884,20.0088808 L11.1114038,20.0072858 L20.8880535,20.0072858 Z M16.0904105,0.2748 C21.0969718,0.2748 25.1554194,4.19298841 25.1554194,9.02539015 C25.1554194,13.8577919 21.0972893,17.7750612 16.0904105,17.7750612 C11.0838491,17.7750612 7.02444934,13.8580983 7.02444934,9.02539015 C7.02444934,4.19298841 11.0838491,0.2748 16.0904105,0.2748 Z" id="Shape-3" fill="#000" fill-rule="nonzero"></path>
    </g>
</svg>