<?xml version="1.0" encoding="UTF-8"?>
<svg width="16px" height="16px" viewBox="0 0 16 16" version="1.1" xmlns="http://www.w3.org/2000/svg" xmlns:xlink="http://www.w3.org/1999/xlink">
    <title>icon/rounded/toggle/check_box_24px_rounded</title>
    <g id="Page-1" stroke="none" stroke-width="1" fill="none" fill-rule="evenodd">
        <g id="Add-Order#3-1" transform="translate(-955.000000, -787.000000)" fill="#FFFFFF">
            <g id="Items" transform="translate(165.000000, 249.000000)">
                <g id="Group-6" transform="translate(285.000000, 0.000000)">
                    <g id="Personal-Info-Copy" transform="translate(24.000000, 88.000000)">
                        <g id="Group-3" transform="translate(0.000000, 156.000000)">
                            <g id="Doctor-Card-Copy" transform="translate(265.000000, 0.000000)">
                                <g id="Group-4" transform="translate(133.000000, 290.000000)">
                                    <g id="icon/rounded/toggle/check_box_24px" transform="translate(83.000000, 4.000000)">
                                        <path d="M3.4725,8.66666187 L10.9191667,8.66666187 L7.66583333,11.9199952 C7.40583333,12.1799952 7.40583333,12.6066619 7.66583333,12.8666619 C7.92583333,13.1266619 8.34583333,13.1266619 8.60583333,12.8666619 L12.9991667,8.47332854 C13.2591667,8.21332854 13.2591667,7.79332854 12.9991667,7.53332854 L8.6125,3.13332854 C8.48794565,3.00849342 8.31884509,2.93833813 8.1425,2.93833813 C7.96615491,2.93833813 7.79705435,3.00849342 7.6725,3.13332854 C7.4125,3.39332854 7.4125,3.81332854 7.6725,4.07332854 L10.9191667,7.33332854 L3.4725,7.33332854 C3.10583333,7.33332854 2.80583333,7.63332854 2.80583333,7.9999952 C2.80583333,8.36666187 3.10583333,8.66666187 3.4725,8.66666187 Z" id="icon/navigation/arrow_forward_24px"></path>
                                    </g>
                                </g>
                            </g>
                        </g>
                    </g>
                </g>
            </g>
        </g>
    </g>
</svg>