<?xml version="1.0" encoding="UTF-8"?>
<svg width="21px" height="20px" viewBox="0 0 21 20" version="1.1" xmlns="http://www.w3.org/2000/svg" xmlns:xlink="http://www.w3.org/1999/xlink">
    <title>Combined Shape</title>
    <g id="Page-1" stroke="none" stroke-width="1" fill="none" fill-rule="evenodd">
        <g id="About-Us" transform="translate(-351.000000, -12.000000)" fill="#FFFFFF" fill-rule="nonzero">
            <g id="Group-3" transform="translate(323.000000, 12.000000)">
                <path d="M38.33298,0.000184364082 C43.8557766,0.000184364082 48.3328878,4.47729559 48.3328878,10.0000922 C48.3328878,15.5228888 43.8557766,20 38.33298,20 C32.8101834,20 28.3330722,15.5228888 28.3330722,10.0000922 C28.3330722,4.47729559 32.8101834,0.000184364082 38.33298,0.000184364082 Z M39.0866541,3.87960955 C36.8641354,3.87960955 36.359131,5.54435943 36.359131,6.60748914 L36.359131,6.60748914 L36.359131,8.09415945 L35.0733573,8.09415945 L35.0733573,10.3915464 L36.359131,10.3915464 L36.359131,16.9286176 L39.0625893,16.9286176 L39.0625893,10.3915464 L40.8469502,10.3915464 L41.0831418,8.09629854 L39.0627675,8.09629854 L39.0627675,6.74421289 C39.0627675,6.23706936 39.3978923,6.11799313 39.636223,6.11799313 L39.636223,6.11799313 L41.0892026,6.11799313 L41.0892026,3.88798766 Z" id="Combined-Shape"></path>
            </g>
        </g>
    </g>
</svg>