<?xml version="1.0" encoding="UTF-8"?>
<svg width="21px" height="20px" viewBox="0 0 21 20" version="1.1" xmlns="http://www.w3.org/2000/svg" xmlns:xlink="http://www.w3.org/1999/xlink">
    <title>Combined Shape</title>
    <g id="Page-1" stroke="none" stroke-width="1" fill="none" fill-rule="evenodd">
        <g id="About-Us" transform="translate(-379.000000, -12.000000)" fill="#FFFFFF" fill-rule="nonzero">
            <g id="Group-3" transform="translate(323.000000, 12.000000)">
                <path d="M66.6660521,0.000184364082 C72.1886287,0.000184364082 76.6659599,4.47751558 76.6659599,10.0000922 C76.6659599,15.5226688 72.1886287,20 66.6660521,20 C61.1434755,20 56.6661443,15.5226688 56.6661443,10.0000922 C56.6661443,4.47751558 61.1434755,0.000184364082 66.6660521,0.000184364082 Z M69.6464832,4.01182322 L63.685621,4.01182322 C62.012248,4.01182322 60.650822,5.37324921 60.650822,7.04662223 L60.650822,7.04662223 L60.650822,13.0074844 C60.650822,14.6810802 62.012248,16.0422834 63.685621,16.0422834 L63.685621,16.0422834 L69.6464832,16.0422834 C71.320079,16.0422834 72.6812822,14.6810802 72.6812822,13.0074844 L72.6812822,13.0074844 L72.6812822,7.04662223 C72.6812822,5.37324921 71.320079,4.01182322 69.6464832,4.01182322 L69.6464832,4.01182322 Z M69.6464832,5.32110949 C70.5981445,5.32110949 71.3722188,6.09518377 71.3722188,7.04662223 L71.3722188,7.04662223 L71.3722188,13.0074844 C71.3722188,13.9591457 70.5979217,14.73322 69.6464832,14.73322 L69.6464832,14.73322 L63.685621,14.73322 C62.7341826,14.73322 61.9601083,13.9589229 61.9601083,13.0074844 L61.9601083,13.0074844 L61.9601083,7.04662223 C61.9601083,6.09518377 62.7341826,5.32110949 63.685621,5.32110949 L63.685621,5.32110949 Z M66.6660521,6.92875081 C64.9576965,6.92875081 63.5677496,8.31869767 63.5677496,10.0270533 C63.5677496,11.7356318 64.9576965,13.1255786 66.6660521,13.1255786 C68.3744078,13.1255786 69.7645774,11.735409 69.7645774,10.0270533 C69.7645774,8.31869767 68.3746306,6.92875081 66.6660521,6.92875081 Z M66.6660521,8.23803708 C67.6524732,8.23803708 68.4550684,9.04085505 68.4550684,10.0268305 C68.4550684,11.0134744 67.652696,11.8162924 66.6660521,11.8162924 C65.6798539,11.8162924 64.8768131,11.0134744 64.8768131,10.0268305 C64.8768131,9.04063223 65.6798539,8.23803708 66.6660521,8.23803708 Z M69.8641777,6.10320527 C69.4597606,6.10320527 69.1308793,6.43208657 69.1308793,6.8362808 C69.1308793,7.24047503 69.4597606,7.56935633 69.8641777,7.56935633 C70.2683719,7.56935633 70.5972532,7.24047503 70.5972532,6.8362808 C70.5972532,6.43208657 70.2683719,6.10320527 69.8641777,6.10320527 Z" id="Combined-Shape"></path>
            </g>
        </g>
    </g>
</svg>