<?xml version="1.0" encoding="UTF-8"?>
<svg width="20px" height="20px" viewBox="0 0 20 20" version="1.1" xmlns="http://www.w3.org/2000/svg" xmlns:xlink="http://www.w3.org/1999/xlink">
    <title>Dropdown Arrow Copy</title>
    <g id="Page-1" stroke="none" stroke-width="1" fill="none" fill-rule="evenodd">
        <g id="About-Us" transform="translate(-1167.000000, -12.000000)" fill="#FFFFFF">
            <g id="Dropdown-Arrow-Copy" transform="translate(1167.000000, 12.000000)">
                <path d="M9.99166667,1.66666667 C5.39166667,1.66666667 1.66666667,5.4 1.66666667,10 C1.66666667,14.6 5.39166667,18.3333333 9.99166667,18.3333333 C14.6,18.3333333 18.3333333,14.6 18.3333333,10 C18.3333333,5.4 14.6,1.66666667 9.99166667,1.66666667 Z M15.7666667,6.66666667 L13.3083333,6.66666667 C13.0416667,5.625 12.6583333,4.625 12.1583333,3.7 C13.6916667,4.225 14.9666667,5.29166667 15.7666667,6.66666667 Z M10,3.36666667 C10.6916667,4.36666667 11.2333333,5.475 11.5916667,6.66666667 L8.40833333,6.66666667 C8.76666667,5.475 9.30833333,4.36666667 10,3.36666667 Z M3.55,11.6666667 C3.41666667,11.1333333 3.33333333,10.575 3.33333333,10 C3.33333333,9.425 3.41666667,8.86666667 3.55,8.33333333 L6.36666667,8.33333333 C6.3,8.88333333 6.25,9.43333333 6.25,10 C6.25,10.5666667 6.3,11.1166667 6.36666667,11.6666667 L3.55,11.6666667 Z M4.23333333,13.3333333 L6.69166667,13.3333333 C6.95833333,14.375 7.34166667,15.375 7.84166667,16.3 C6.30833333,15.775 5.03333333,14.7166667 4.23333333,13.3333333 L4.23333333,13.3333333 Z M6.69166667,6.66666667 L4.23333333,6.66666667 C5.03333333,5.28333333 6.30833333,4.225 7.84166667,3.7 C7.34166667,4.625 6.95833333,5.625 6.69166667,6.66666667 L6.69166667,6.66666667 Z M10,16.6333333 C9.30833333,15.6333333 8.76666667,14.525 8.40833333,13.3333333 L11.5916667,13.3333333 C11.2333333,14.525 10.6916667,15.6333333 10,16.6333333 Z M11.95,11.6666667 L8.05,11.6666667 C7.975,11.1166667 7.91666667,10.5666667 7.91666667,10 C7.91666667,9.43333333 7.975,8.875 8.05,8.33333333 L11.95,8.33333333 C12.025,8.875 12.0833333,9.43333333 12.0833333,10 C12.0833333,10.5666667 12.025,11.1166667 11.95,11.6666667 Z M12.1583333,16.3 C12.6583333,15.375 13.0416667,14.375 13.3083333,13.3333333 L15.7666667,13.3333333 C14.9666667,14.7083333 13.6916667,15.775 12.1583333,16.3 L12.1583333,16.3 Z M13.6333333,11.6666667 C13.7,11.1166667 13.75,10.5666667 13.75,10 C13.75,9.43333333 13.7,8.88333333 13.6333333,8.33333333 L16.45,8.33333333 C16.5833333,8.86666667 16.6666667,9.425 16.6666667,10 C16.6666667,10.575 16.5833333,11.1333333 16.45,11.6666667 L13.6333333,11.6666667 Z" id="icon/action/language_24px"></path>
            </g>
        </g>
    </g>
</svg>