<?xml version="1.0" encoding="UTF-8"?>
<svg width="20px" height="20px" viewBox="0 0 20 20" version="1.1" xmlns="http://www.w3.org/2000/svg" xmlns:xlink="http://www.w3.org/1999/xlink">
    <title>Combined Shape</title>
    <g id="Page-1" stroke="none" stroke-width="1" fill="none" fill-rule="evenodd">
        <g id="About-Us" transform="translate(-323.000000, -12.000000)" fill="#FFFFFF" fill-rule="nonzero">
            <g id="Group-3" transform="translate(323.000000, 12.000000)">
                <path d="M9.99990782,2.13162821e-13 C15.5227044,2.13162821e-13 19.9998156,4.47711123 19.9998156,9.99990782 C19.9998156,15.5227044 15.5227044,19.9998156 9.99990782,19.9998156 C4.47711123,19.9998156 2.13162821e-13,15.5227044 2.13162821e-13,9.99990782 C2.13162821e-13,4.47711123 4.47711123,2.13162821e-13 9.99990782,2.13162821e-13 Z M7.3567007,7.73817245 L4.96715447,7.73817245 L4.96715447,14.9273108 L7.3567007,14.9273108 L7.3567007,7.73817245 Z M13.2231659,7.56936229 C11.9530789,7.56936229 11.3865755,8.26813299 11.06892,8.75691596 L11.06892,8.75691596 L11.06892,7.73817245 L8.67830426,7.73817245 C8.68735427,7.92837356 8.69129915,8.58318454 8.69229875,9.42538672 L8.69203912,10.663961 C8.68979974,12.400836 8.6810694,14.340629 8.67883002,14.8171121 L8.67830426,14.9271325 L11.0687418,14.9271325 L11.0687418,10.9120531 C11.0687418,10.6965394 11.0849632,10.4831648 11.1478883,10.3295065 C11.3211549,9.89954866 11.7135003,9.4555084 12.3739456,9.4555084 C13.2393874,9.4555084 13.5844945,10.1150624 13.5844945,11.0808633 L13.5844945,11.0808633 L13.5844945,14.9273108 L15.9747538,14.9273108 L15.9747538,10.8045637 C15.9747538,8.59684043 14.7957565,7.56936229 13.2231659,7.56936229 Z M6.1777034,4.27284022 C5.36003473,4.27284022 4.82508298,4.80957455 4.82508298,5.51476253 C4.82508298,6.20497685 5.3445263,6.75721961 6.14633002,6.75721961 L6.16183845,6.75721961 C6.99555033,6.75721961 7.5139241,6.20497685 7.5139241,5.51476253 C7.49805916,4.80957455 6.99555033,4.27284022 6.1777034,4.27284022 Z" id="Combined-Shape"></path>
            </g>
        </g>
    </g>
</svg>