<?xml version="1.0" encoding="UTF-8"?>
<svg width="21px" height="20px" viewBox="0 0 21 20" version="1.1" xmlns="http://www.w3.org/2000/svg" xmlns:xlink="http://www.w3.org/1999/xlink">
    <title>Combined Shape</title>
    <g id="Page-1" stroke="none" stroke-width="1" fill="none" fill-rule="evenodd">
        <g id="About-Us" transform="translate(-407.000000, -12.000000)" fill="#FFFFFF" fill-rule="nonzero">
            <g id="Group-3" transform="translate(323.000000, 12.000000)">
                <path d="M94.9991243,0.000184364082 C100.521921,0.000184364082 104.999032,4.47729559 104.999032,10.0000922 C104.999032,15.5228888 100.521921,20 94.9991243,20 C89.4763277,20 84.9992165,15.5228888 84.9992165,10.0000922 C84.9992165,4.47729559 89.4763277,0.000184364082 94.9991243,0.000184364082 Z M97.5396549,6.06594185 C96.2198339,6.06594185 95.1493956,7.13638012 95.1493956,8.45620111 C95.1493956,8.64355009 95.1706083,8.82590785 95.2116076,9.00095704 C93.2251023,8.90131091 91.4637367,7.94977061 90.2847394,6.50320831 C90.0790299,6.85615881 89.9610232,7.26704311 89.9610232,7.7050226 C89.9610232,8.53409978 90.383316,9.26602643 91.0243311,9.69455826 C90.6326987,9.68225847 90.2638832,9.574769 89.9417713,9.39526336 L89.9415931,9.42556719 L89.9415931,9.42556719 C89.9415931,10.5837083 90.7658573,11.5496875 91.8591126,11.7691229 C91.6587508,11.8240263 91.4471587,11.8530823 91.2295059,11.8530823 C91.0751346,11.8530823 90.9255763,11.8382869 90.7797614,11.8104787 C91.0838693,12.7598799 91.9664238,13.4509855 93.012619,13.4704156 C92.1944156,14.1116091 91.163907,14.4936156 90.0437348,14.4936156 C89.8512164,14.4936156 89.6604805,14.4823853 89.4738445,14.4601031 C90.5310917,15.1385524 91.7878094,15.5341066 93.1375777,15.5341066 C97.5341289,15.5341066 99.9384705,11.8919425 99.9384705,8.73303552 C99.9384705,8.62946772 99.9361532,8.52625643 99.9315185,8.42393644 C100.39891,8.08702914 100.804091,7.6661624 101.12442,7.18682709 C100.695888,7.37684994 100.234913,7.50537383 99.7514781,7.56277286 C100.245074,7.26704311 100.623872,6.79911631 100.802664,6.24063452 C100.340798,6.51461681 99.8290202,6.71337429 99.284799,6.82050725 C98.8487804,6.3561456 98.2275519,6.06594185 97.5396549,6.06594185 Z" id="Combined-Shape"></path>
            </g>
        </g>
    </g>
</svg>