<svg width="44" height="70" viewBox="0 0 44 70" fill="none" xmlns="http://www.w3.org/2000/svg">
<path d="M14.1522 45.9366C14.6033 46.6171 15.2641 47.2975 15.9389 47.7808L16.0836 47.8813L19.4631 50.0683L16.3244 55.1733L19.7039 63.9232C19.9464 64.8947 19.9464 65.8678 19.4632 66.5968C19.0034 67.2944 18.3213 67.9903 17.421 68.263L12.9466 69.5146C12.5934 69.6924 12.3689 69.7398 12.1792 69.7525L12.0787 69.7565L11.9817 69.7571C10.5728 69.7571 9.39173 68.8358 8.88378 67.443L8.84302 67.3259C8.37091 65.6587 9.28901 63.7569 11.3721 62.9928L11.4985 62.9483L12.2226 62.7058L9.56709 55.9004C9.10171 54.9649 9.30776 54.0278 9.75521 53.0922L9.80788 52.9843L14.1522 45.9366ZM30.0863 45.9372L34.1899 52.7444C34.6715 53.4734 34.6715 54.689 34.4307 55.6605L31.7752 63.1947L32.7401 63.4371C34.6715 63.9237 35.638 65.8666 35.1548 67.5688C34.6715 69.0285 33.4642 70 32.016 70C31.7752 70 31.292 69.7576 31.0512 69.7576L26.7068 68.542C25.9828 68.2978 25.2587 67.5688 24.7754 66.8398C24.2921 65.8684 24.2921 64.8952 24.5346 63.9237L27.9141 54.6873L24.7754 50.0689L28.1549 47.8818C29.1214 47.3952 29.603 46.6662 30.0863 45.9372ZM28.6378 23.3316C29.5624 23.3316 30.2651 23.7768 30.9581 24.4535L31.0525 24.5472L37.8117 32.3258L43.1225 38.6447C44.3299 39.8605 44.3299 42.0475 42.8817 43.2631C42.4002 43.9921 41.4336 44.2346 40.7095 44.2346C39.785 44.2346 39.0823 44.0128 38.3893 43.3555L38.2948 43.2631L32.7431 37.1868L30.3284 34.2707L29.8451 43.0206H14.155L13.6717 34.2707L11.257 36.9444L5.70516 43.0204C4.98109 43.7495 4.25534 43.9919 3.29047 43.9919C2.68708 43.9919 2.08368 43.6552 1.48029 43.2614L1.11825 43.0204C-0.299717 41.83 -0.329256 39.9408 0.803576 38.4938L0.877459 38.402L6.42923 32.3257L13.1867 24.5489C13.6506 23.8491 14.56 23.3726 15.4856 23.3356L15.6014 23.3333L28.6378 23.3316ZM22.1196 0C27.9865 0 32.7416 4.78769 32.7416 10.6947C32.7416 16.6013 27.9865 21.3895 22.1196 21.3895C16.2527 21.3895 11.4976 16.6018 11.4976 10.6947C11.4976 4.78769 16.2527 0 22.1196 0Z" fill="black"/>
</svg>
