<svg width="19" height="24" viewBox="0 0 19 24" fill="none" xmlns="http://www.w3.org/2000/svg">
<path d="M6.95876 9.5625H8.25773V10.875C8.22199 11.2736 8.56991 11.625 9 11.625C9.4276 11.625 9.77552 11.2736 9.74227 10.875V9.5625H11.0412C11.4356 9.59477 11.7835 9.24332 11.7835 8.8125C11.7835 8.37692 11.4356 8.02547 11.0412 8.0625H9.74227V6.75C9.77588 6.35145 9.42796 6 9 6C8.57027 6 8.22235 6.35145 8.25773 6.75V8.0625H6.95876C6.56333 8.0251 6.2165 8.37654 6.2165 8.8125C6.21577 9.24294 6.56297 9.59476 6.95876 9.5625ZM13.6392 15.75H4.26804C3.87436 15.75 3.52577 16.1077 3.52577 16.5938C3.52577 16.9868 3.87436 17.3438 4.26804 17.3438H13.6392C14.0325 17.3438 14.3814 16.9868 14.3814 16.5938C14.3814 16.1073 14.0321 15.75 13.6392 15.75ZM13.6392 12.8438H4.26804C3.87436 12.8438 3.52577 13.2007 3.52577 13.6875C3.52577 14.0806 3.87436 14.4375 4.26804 14.4375H13.6392C14.0325 14.4375 14.3814 14.0806 14.3814 13.6875C14.3814 13.2007 14.0321 12.8438 13.6392 12.8438ZM11.3196 18.6562H6.58763C6.19486 18.6562 5.84536 19.0132 5.84536 19.5C5.84536 19.8931 6.19486 20.25 6.58763 20.25H11.3196C11.7124 20.25 12.0619 19.8931 12.0619 19.5C12.0622 19.0132 11.7124 18.6562 11.3196 18.6562ZM14.6598 1.59375H12.9897C12.8194 0.672397 12.0308 0 11.134 0H6.86598C5.96801 0 5.18123 0.672359 5.01031 1.59375H3.34021C1.50893 1.56581 0 3.08799 0 4.96875V20.625C0 22.4778 1.50855 24 3.34021 24H14.6598C16.4911 23.9996 18 22.4775 18 20.625V4.96875C18.0004 3.08856 16.4911 1.56601 14.6598 1.59375ZM6.49485 1.96875C6.49561 1.77996 6.67674 1.59375 6.86598 1.59375H11.134C11.3248 1.59375 11.5052 1.77996 11.5052 1.96875V3.1875H6.49485V1.96875ZM16.4227 20.7188C16.4227 21.6826 15.6158 22.4996 14.6598 22.5H3.34021C2.38457 22.5 1.57732 21.683 1.57732 20.7188V4.96875C1.57768 4.00413 2.38459 3.1875 3.34021 3.1875H4.91753V3.9375C4.95472 4.40261 5.3038 4.75623 5.75258 4.78125H12.2474C12.6965 4.75623 13.0456 4.40261 13.0825 3.9375V3.1875H14.6598C15.6154 3.1875 16.4227 4.00418 16.4227 4.96875V20.7188Z" fill="black"/>
</svg>
