<svg width="24" height="24" viewBox="0 0 24 24" fill="none" xmlns="http://www.w3.org/2000/svg">
<path d="M13.3128 17.6459C12.3299 18.3436 10.6697 18.3447 9.6878 17.6459C9.32999 17.3918 8.83409 17.4745 8.57964 17.8305C8.32485 18.1858 8.40757 18.6793 8.76426 18.9335C9.5312 19.4785 10.5152 19.7514 11.4994 19.7514C12.483 19.7514 13.4674 19.4789 14.2345 18.9335C14.5912 18.6805 14.6742 18.1865 14.4198 17.8305C14.1654 17.4752 13.6706 17.3917 13.3128 17.6459ZM10.9385 6.50785C10.7908 6.65496 10.7063 6.8554 10.7063 7.06687C10.7063 7.27246 10.7908 7.47805 10.9385 7.62626C11.0866 7.77337 11.2934 7.85759 11.5001 7.85759C11.7066 7.85759 11.9126 7.77337 12.0614 7.62626C12.2095 7.47878 12.2944 7.27246 12.2944 7.06687C12.2944 6.85613 12.2098 6.6557 12.0614 6.50785C11.7649 6.21179 11.2354 6.21179 10.9385 6.50785H10.9385ZM21.8462 10.1632C21.5279 9.96015 21.1756 9.85644 20.813 9.83584L20.8056 6.34708C20.8056 2.90474 15.0899 0 11.5004 0C7.99024 0 2.18305 2.96613 2.18305 6.34708V9.83471C1.82155 9.85641 1.47002 9.96123 1.15467 10.1631C0.431675 10.6243 0 11.4691 0 12.422C0 14.4271 1.0815 15.8405 2.74795 16.1207C4.08024 20.6102 7.60106 24 11.4989 24C15.3974 24 18.919 20.6102 20.2509 16.1207C21.9177 15.8419 23 14.4279 23 12.422C23.0007 11.4683 22.5694 10.6243 21.8461 10.1631L21.8462 10.1632ZM1.58866 12.4216C1.58866 12.0164 1.75114 11.6615 2.01146 11.4948C2.06648 11.4599 2.12408 11.4378 2.18353 11.4231V12.2429C2.18353 12.9351 2.23966 13.6166 2.34121 14.2833C1.65994 13.7784 1.58866 12.7939 1.58866 12.4217V12.4216ZM3.77171 6.34638C3.77171 4.1828 8.51923 1.58113 11.501 1.58113C14.8191 1.58113 19.218 4.29757 19.218 6.34789L19.2221 8.59461C18.1664 7.98998 16.9733 7.55274 15.6197 7.26661C15.6234 7.19968 15.6304 7.13384 15.6304 7.06581C15.6304 4.79772 13.7774 2.95255 11.5006 2.95255C9.22265 2.95255 7.37016 4.79734 7.37016 7.06581C7.37016 7.13164 7.37755 7.196 7.38087 7.26073C6.02826 7.54502 4.83266 7.97899 3.77214 8.58251V6.34643L3.77171 6.34638ZM14.0423 7.06612C14.0423 8.46181 12.9021 9.59793 11.5007 9.59793C10.099 9.59793 8.95804 8.46228 8.95804 7.06612C8.95804 5.67005 10.0982 4.53469 11.5007 4.53469C12.9012 4.53469 14.0423 5.67005 14.0423 7.06612ZM11.4996 22.4174C7.38281 22.4174 3.77152 17.6628 3.77152 12.2425V10.4651C4.88337 9.66846 6.19382 9.12011 7.75979 8.79755C8.41779 10.2017 9.845 11.1793 11.5003 11.1793C13.1534 11.1793 14.5791 10.204 15.2386 8.80235C16.8098 9.12857 18.1196 9.68244 19.2259 10.4842L19.2292 12.2425C19.2295 17.6628 15.6175 22.4174 11.4996 22.4174H11.4996ZM20.6597 14.2836C20.7612 13.6161 20.8173 12.9335 20.8173 12.241L20.8159 11.4224C20.8761 11.4371 20.9344 11.4588 20.9902 11.4944C21.2505 11.6607 21.413 12.0159 21.413 12.4212C21.413 12.7934 21.3417 13.7791 20.6597 14.2836Z" fill="black"/>
</svg>
