<svg width="32" height="70" viewBox="0 0 32 70" fill="none" xmlns="http://www.w3.org/2000/svg">
<g clip-path="url(#clip0_82_33)">
<path d="M22.1099 19.6769C22.9852 19.6769 23.8617 20.2004 24.2125 20.8964L29.645 30.9959C29.645 31.3433 29.8198 31.5182 29.8198 31.6919L31.9224 41.0943C32.272 42.3138 31.3968 43.5321 30.1694 43.8807H29.6437C28.5925 43.8807 27.5399 43.0098 27.3651 41.9652L25.2625 32.9101L23.1599 28.9055L24.0351 43.3595C24.0351 44.7514 22.9839 45.9709 21.5817 45.9709H21.4069L21.4081 64.2548L23.8616 64.9508C25.2637 65.2994 25.9654 66.6914 25.6146 67.9109C25.4386 68.9567 24.3872 69.6527 23.3359 69.6527H22.8103L18.6039 68.6081C17.5514 68.4332 16.851 67.3886 16.851 66.344V45.9709H14.9231L14.9219 66.6914C14.9219 67.7359 14.2202 68.6068 13.1689 68.9554L8.96259 70H8.43694C7.38566 70 6.50914 69.3028 6.1583 68.2582C5.80868 66.865 6.68396 65.6468 7.91131 65.2982L10.3648 64.6022V45.9697H10.1899C8.78782 45.9697 7.56169 44.7514 7.7365 43.3582L8.96384 28.9055L6.86121 32.9101L4.7586 41.9652C4.58259 43.1847 3.53127 43.8807 2.47995 43.8807L1.95415 43.8807C0.553214 43.5333 -0.148483 42.3139 0.0263262 41.0956L2.30744 31.6919C2.30744 31.3446 2.30743 31.1696 2.48224 30.9959L7.91469 20.8964C8.26432 20.1992 9.14081 19.6769 10.0173 19.6769H22.1099ZM15.9743 0C20.814 0 24.7368 3.89771 24.7368 8.70648C24.7368 13.514 20.814 17.413 15.9743 17.413C11.1346 17.413 7.21181 13.514 7.21181 8.70648C7.21181 3.89771 11.1346 0 15.9743 0Z" fill="black"/>
</g>
<defs>
<clipPath id="clip0_82_33">
<rect width="32" height="70" fill="white"/>
</clipPath>
</defs>
</svg>
