<svg width="32" height="70" viewBox="0 0 32 70" fill="none" xmlns="http://www.w3.org/2000/svg">
<g clip-path="url(#clip0_82_60)">
<path d="M30.9167 40.3484C31.5188 40.3484 32 40.8263 32 41.4243C32 42.0066 31.5438 42.475 30.964 42.4992L30.9167 42.5002H30.3146V67.1309C30.7757 67.1309 31.1261 67.24 31.4717 67.5634L31.5188 67.6088C31.8799 67.9683 32 68.3269 32 68.9241C32 69.5221 31.5188 70 30.9167 70C30.4508 70 30.0978 69.6641 29.9663 69.21L29.9535 69.1626H28.6292C28.6292 69.6414 28.1472 70 27.6661 70C27.064 70 26.5828 69.5221 26.5828 68.9241C26.5828 68.3269 26.7029 67.9683 26.9439 67.6088L27.1068 67.5022L27.2167 67.4335C27.4749 67.2768 27.7481 67.149 28.0768 67.1327L28.1481 67.1309V42.5002H27.546C26.9439 42.5002 26.4627 42.0223 26.4627 41.4243C26.4627 40.842 26.9189 40.3736 27.4987 40.3494L27.546 40.3484H30.9167ZM20.6837 20.979C21.2663 20.979 21.9614 21.3149 22.3329 21.8786L22.369 21.9357L28.5084 31.0225C28.62 31.1326 28.7309 31.345 28.7473 31.4709L28.7494 31.5004L31.518 39.5114H27.9062C27.6853 39.5114 27.4651 39.5114 27.2443 39.6032L27.1841 39.6306L24.8965 33.0543L22.2481 29.2277L23.6924 48.1192C23.8106 49.4133 22.881 50.4765 21.7041 50.624L21.646 50.6305L22.0071 54.5762V55.0541L20.9238 64.9782L23.4523 65.5762C24.5356 65.8155 25.1377 67.0116 24.8967 68.0875C24.6557 69.0441 23.8135 69.6421 22.8503 69.6421C22.8022 69.6421 22.7349 69.623 22.6636 69.6001L22.5558 69.5648C22.5023 69.5477 22.4511 69.5326 22.4085 69.5262L22.3691 69.5229L18.1552 68.4469C17.2102 68.2129 16.4972 67.2876 16.5841 66.3493L17.7942 54.8164L17.313 50.6311H13.3403L12.8591 54.8164L14.0633 66.2952C14.1811 67.2329 13.4882 68.1715 12.5523 68.4326L12.4981 68.4469L8.28417 69.5229C8.19179 69.6146 8.02787 69.6358 7.90248 69.6406L7.83274 69.6421H7.803C6.83984 69.6421 5.99758 69.0441 5.75657 68.0875C5.40152 67.0287 6.09389 65.8553 7.14707 65.5889L9.72943 64.9782L8.64616 55.0541V54.5762L9.00725 50.6305C7.82333 50.5123 6.87188 49.469 6.95586 48.1827L8.40518 29.8255L5.87667 33.8906L3.95033 42.7387C3.71446 43.675 2.90266 44.2677 1.96522 44.2925L1.9039 44.2934L1.4225 44.2933C0.355067 44.0585 -0.361481 43.0111 0.191454 41.725L0.21831 41.6645L2.26473 32.4577C2.26473 32.3104 2.31053 32.2086 2.37374 32.0963L2.4507 31.9625C2.45974 31.9465 2.46888 31.93 2.47807 31.9129L2.50574 31.8597L8.64513 21.9357C9.11024 21.3576 9.68837 21.0032 10.3787 20.9802L10.4505 20.979H20.6837ZM7.32174 9.61906C7.41477 9.63536 7.50954 9.65142 7.60597 9.66723L7.90025 9.71391L8.20415 9.75912C8.25558 9.76653 8.3074 9.77388 8.35959 9.78117L8.67719 9.82416C8.73085 9.8312 8.78487 9.83818 8.83924 9.8451L9.1696 9.88586C9.28108 9.8992 9.3939 9.9123 9.50798 9.92515L9.85395 9.96295C9.91222 9.96913 9.97079 9.97524 10.0297 9.98129L10.3863 10.0169L10.7495 10.051L11.1188 10.0836L11.4939 10.1147L11.8744 10.1444L12.4543 10.186L12.8464 10.212L13.2424 10.2364L13.642 10.2594L14.0447 10.2808L14.6536 10.3103L15.0623 10.328C15.1306 10.3308 15.1989 10.3336 15.2673 10.3363C18.2769 10.3363 21.0464 10.097 23.2129 9.61906C23.3053 10.079 23.3266 10.468 23.3315 10.8952L23.333 11.157C23.333 11.2017 23.333 11.247 23.333 11.293C23.333 15.7167 19.7212 19.3039 15.2672 19.3039C10.8132 19.3039 7.20149 15.7167 7.20149 11.293L7.20245 10.9351C7.20597 10.5001 7.22241 10.078 7.29912 9.71621L7.32174 9.61906ZM20.2019 0.0536358C20.9093 -0.180847 21.6175 0.388211 21.759 1.08578L21.7671 1.12954L22.1291 5.19544L22.3333 5.2367L22.5334 5.27854L22.8253 5.34241L23.0143 5.38572L23.1988 5.42963L23.3786 5.47411L23.5536 5.51919L23.7237 5.56486L23.8888 5.61111L24.0488 5.65795L24.2037 5.70537C24.2291 5.71333 24.2542 5.7213 24.2791 5.72931L24.426 5.77761C24.45 5.78571 24.4738 5.79384 24.4974 5.80199L24.6361 5.85117C24.6814 5.86766 24.7258 5.88426 24.7692 5.90094L24.8966 5.9513C25.0834 6.02728 25.2506 6.10524 25.3967 6.18518L25.491 6.23876C25.8858 6.47222 26.1017 6.72218 26.1017 6.9886C26.1017 7.71196 24.6086 8.36294 22.2633 8.80234L22.0042 8.84943C21.6979 8.90337 21.3782 8.9538 21.0464 9.00044L20.7591 9.03947C20.6623 9.05217 20.5646 9.06455 20.466 9.07661L20.1674 9.11181L19.8633 9.14503L19.5541 9.17623C19.4502 9.18628 19.3455 9.196 19.2399 9.20536L18.9209 9.2324C18.8138 9.24106 18.7059 9.24936 18.5973 9.2573L18.2692 9.28002C18.2141 9.28362 18.1589 9.28713 18.1035 9.29055L17.7691 9.30991C17.713 9.31295 17.6568 9.3159 17.6004 9.31875L17.26 9.33468C17.203 9.33714 17.1458 9.33951 17.0884 9.34177L16.7426 9.35418C16.5109 9.36166 16.2769 9.36753 16.0408 9.37175L15.6853 9.37683L15.3268 9.37939L15.1466 9.37972C15.0262 9.37972 14.9062 9.37934 14.7867 9.37858L14.4297 9.37519L14.0757 9.36955C14.0169 9.36842 13.9583 9.36721 13.8998 9.3659L13.5506 9.35696L13.2048 9.34585L12.8626 9.3326L12.5241 9.31724L12.1897 9.2998C12.1343 9.29672 12.0791 9.29356 12.0241 9.29031L11.696 9.2698L11.3723 9.24728C11.3188 9.24336 11.2654 9.23936 11.2123 9.23528L10.8956 9.2098L10.5839 9.18239C10.5324 9.17766 10.4811 9.17285 10.43 9.16796L10.126 9.1377C10.0758 9.1325 10.0258 9.12722 9.97598 9.12186L9.68012 9.08881L9.38991 9.05393C9.10258 9.01815 8.82402 8.97968 8.55503 8.93864L8.28928 8.89676C8.20178 8.88252 8.11537 8.868 8.03009 8.8532L7.77767 8.80799C7.73618 8.80032 7.69497 8.79258 7.65406 8.78477L7.41213 8.73714C5.42588 8.33358 4.1921 7.76559 4.19252 7.10795C4.19252 6.75957 4.56178 6.43933 5.21746 6.14731L5.33613 6.09607C5.3564 6.08758 5.37691 6.07912 5.39766 6.07067L5.52506 6.02031C5.56848 6.00362 5.61284 5.98703 5.65814 5.97054L5.79682 5.92135L5.941 5.87275L6.09056 5.82474L6.24541 5.77731L6.40545 5.73047L6.57057 5.68422L6.74069 5.63855L6.91567 5.59348L7.09545 5.54899L7.27992 5.50508L7.46895 5.46177L7.66247 5.41904L7.86037 5.3769L8.06255 5.33535L8.1652 5.3148L8.64638 1.12954C8.76459 0.428209 9.45765 -0.0442718 10.1635 0.0465652L10.2116 0.0536358L15.0266 1.01027H15.5077L20.2019 0.0536358Z" fill="black"/>
</g>
<defs>
<clipPath id="clip0_82_60">
<rect width="32" height="70" fill="white"/>
</clipPath>
</defs>
</svg>
