<svg width="17" height="24" viewBox="0 0 17 24" fill="none" xmlns="http://www.w3.org/2000/svg">
<path d="M14.1082 0H2.89175C1.29241 0 0 1.30804 0 2.92251V21.0775C0 22.692 1.29241 24 2.89175 24H14.1082C15.7076 24 17 22.692 17 21.0775V2.92251C17 1.30769 15.7079 0 14.1082 0ZM15.5103 21.0775C15.51 21.8532 14.8795 22.4945 14.1082 22.4945H2.89175C2.12021 22.4945 1.48969 21.8532 1.48969 21.0775V11.1587H15.5103V21.0775ZM10.5155 8.59041C11.2728 8.59041 11.9153 9.06799 12.1804 9.7417H4.73196C4.99713 9.06797 5.63895 8.59041 6.39691 8.59041H10.5155ZM7.09794 5.13653C7.09794 4.41618 7.72698 3.80812 8.5 3.80812C9.27302 3.80812 9.90206 4.41614 9.90206 5.13653C9.90206 5.96673 9.19545 7.08487 8.5 7.08487C7.80455 7.08487 7.09794 5.9664 7.09794 5.13653ZM15.5103 9.7417H13.7577C13.4636 8.31506 12.2637 7.22577 10.7784 7.08487C11.1634 6.5319 11.3794 5.84387 11.3918 5.22509C11.3794 3.63067 10.0877 2.35628 8.5 2.39114C6.91236 2.35628 5.62033 3.6304 5.60825 5.22509C5.62033 5.84386 5.83596 6.5326 6.22165 7.08487C4.73632 7.22616 3.53608 8.3147 3.24227 9.7417H1.48969V2.92251C1.49037 2.14641 2.12087 1.50554 2.89175 1.50554H14.1082C14.8798 1.50554 15.5103 2.1464 15.5103 2.92251V9.7417ZM5.08247 18.6863H6.65979V20.2804C6.63949 20.6572 6.96742 20.9889 7.36082 20.9889H9.63918C10.0333 20.9889 10.3616 20.6572 10.3402 20.2804V18.6863H11.9175C12.2913 18.7069 12.6186 18.3751 12.6186 17.9779V15.6753C12.6186 15.278 12.291 14.9462 11.9175 14.9668H10.3402V13.3727C10.3616 12.996 10.0333 12.6642 9.63918 12.6642H7.36082C6.96742 12.6642 6.63949 12.996 6.65979 13.3727V14.9668H5.08247C4.70937 14.9462 4.38144 15.278 4.38144 15.6753V17.9779C4.3811 18.3751 4.70903 18.7069 5.08247 18.6863ZM5.87113 16.4723H7.44845C7.81586 16.4691 8.14627 16.1348 8.14948 15.7638V14.1697H8.93814V15.7638C8.94242 16.1348 9.27317 16.4691 9.63918 16.4723H11.2165V17.2694H9.63918C9.27317 17.2726 8.94242 17.6069 8.93814 17.9779V19.572H8.14948V17.9779C8.14627 17.6069 7.81586 17.2726 7.44845 17.2694H5.87113V16.4723Z" fill="black"/>
</svg>
