<svg width="26" height="24" viewBox="0 0 26 24" fill="none" xmlns="http://www.w3.org/2000/svg">
<path d="M22.0668 4.27467H19.2604C19.2604 1.917 17.3318 0 14.9617 0H11.0366C8.66652 0 6.73875 1.917 6.73875 4.27467H3.9332C1.76374 4.27467 0 6.02899 0 8.1872V20.0875C0 22.2448 1.76417 24 3.9332 24H22.0677C24.2367 24 26 22.2452 26 20.0875L25.9996 8.18612C25.9992 6.0292 24.2345 4.27402 22.0668 4.27402L22.0668 4.27467ZM8.56602 4.27467C8.56602 2.92012 9.67419 1.81727 11.0368 1.81727H14.9619C16.3233 1.81727 17.4331 2.91925 17.4331 4.27467H8.56602ZM24.1715 20.0883C24.1715 21.2435 23.2266 22.1836 22.0663 22.1836H3.93287C2.77206 22.1836 1.82715 21.2435 1.82715 20.0883V8.18806C1.82715 7.03243 2.77211 6.09237 3.93287 6.09237H22.0673C23.2277 6.09237 24.1726 7.03248 24.1726 8.18806L24.1715 20.0883ZM13.9104 13.2258V11.3625C13.9104 10.8614 13.5013 10.4541 12.9969 10.4541C12.4926 10.4541 12.0834 10.8618 12.0834 11.3625V13.2258H10.2062C9.70187 13.2258 9.2927 13.6327 9.2927 14.1342C9.2927 14.6358 9.70187 15.0427 10.2062 15.0427H12.0834V16.9127C12.0834 17.4142 12.4926 17.8211 12.9969 17.8211C13.5013 17.8211 13.9104 17.4142 13.9104 16.9127V15.0427H15.7901C16.2945 15.0427 16.7036 14.6358 16.7036 14.1342C16.7036 13.6327 16.2945 13.2258 15.7901 13.2258H13.9104ZM12.9965 7.62323C9.38362 7.62323 6.44591 10.5454 6.44591 14.1377C6.44591 17.7308 9.38362 20.6521 12.9965 20.6521C16.6098 20.6521 19.5483 17.7308 19.5483 14.1377C19.5483 10.5458 16.6097 7.62323 12.9965 7.62323ZM12.9965 18.8356C10.3924 18.8356 8.27339 16.7285 8.27339 14.138C8.27339 11.5484 10.3923 9.44039 12.9965 9.44039C15.601 9.44039 17.7209 11.5474 17.7209 14.138C17.7209 16.7288 15.6011 18.8356 12.9965 18.8356Z" fill="black"/>
</svg>
