<svg width="32" height="70" viewBox="0 0 32 70" fill="none" xmlns="http://www.w3.org/2000/svg">
<path d="M20.8656 18.0613C21.716 18.0613 22.5673 18.5347 22.9565 19.2502L22.9863 19.3072L28.6001 29.7694C28.6001 29.816 28.6176 29.8627 28.6395 29.9095L28.6852 30.003C28.6998 30.0341 28.7124 30.0653 28.7192 30.0964L28.7245 30.143L31.8434 39.3595C32.3429 40.6053 31.5946 41.9754 30.3466 42.349C30.1385 42.4526 29.931 42.4698 29.723 42.4727L29.5982 42.4733C28.6231 42.4733 27.7662 41.8777 27.3788 40.9197L27.3531 40.8538L24.3587 31.7616L23.1108 29.5201L23.485 38.2386L27.2279 50.1962C27.7205 51.7956 26.5088 53.3958 24.9151 53.4337L24.8573 53.4344H21.8636V64.5196L24.4839 65.2668C25.8563 65.5152 26.6047 66.8854 26.2305 68.1313C25.8562 69.1278 24.9825 69.875 23.8599 69.875C23.76 69.875 23.6801 69.8551 23.6043 69.8313L23.4915 69.7945C23.4346 69.7766 23.3755 69.761 23.3073 69.7542L23.2359 69.7508L18.869 68.63C17.8917 68.2641 17.1538 67.4202 17.1234 66.333L17.1225 66.2632V53.4342H15.0017V66.3882C15.0017 67.4871 14.2824 68.4665 13.3136 68.7395L13.2552 68.755L8.88829 69.8758C8.67696 69.9809 8.55534 69.9971 8.37162 70H8.26433C7.14166 70 6.1435 69.3771 5.89374 68.2563C5.64829 67.0327 6.36686 65.8083 7.57619 65.4119L7.64029 65.3918L10.2606 64.6446V53.5594H7.14171C5.53884 53.5594 4.30222 51.979 4.75405 50.379L4.77112 50.3212L8.51403 38.3636L8.88822 29.6451L7.64031 31.8866L4.64594 40.9788C4.39707 41.9753 3.39894 42.5983 2.40078 42.5983L2.28585 42.5978C2.07504 42.5953 1.86371 42.579 1.65238 42.4731C0.425302 42.1055 -0.319916 40.7721 0.134388 39.543L0.156941 39.4845L3.1513 30.143L3.15188 30.0808C3.15447 29.9875 3.16873 29.8938 3.24715 29.8005L3.27575 29.7694L8.88955 19.3072C9.25415 18.5783 10.0921 18.087 10.9431 18.0622L11.0103 18.0613H20.8656ZM15.8741 0C20.3083 0 23.911 3.55259 23.9826 7.96252L23.9837 8.09641C23.9837 12.5674 20.3531 16.1919 15.8741 16.1919C11.3958 16.1919 7.76542 12.5672 7.76542 8.09641C7.76542 3.62473 11.396 0 15.8741 0Z" fill="black"/>
</svg>
