<?xml version="1.0" encoding="UTF-8"?>
<svg width="80px" height="80px" viewBox="0 0 80 80" version="1.1" xmlns="http://www.w3.org/2000/svg" xmlns:xlink="http://www.w3.org/1999/xlink">
    <title>ic-OUR VISION</title>
    <g id="Page-1" stroke="none" stroke-width="1" fill="none" fill-rule="evenodd">
        <g id="About-Us" transform="translate(-680.000000, -958.000000)" fill="#FFFFFF" fill-rule="nonzero">
            <g id="Order-card-Copy-22" transform="translate(535.000000, 926.000000)">
                <g id="Group-10" transform="translate(20.000000, 32.000000)">
                    <path d="M156.979666,25.433526 C157.006534,16.0662529 164.80426,8.90755584 173.770531,9.24855491 C182.208204,9.55817856 189.190238,16.6894924 189.329039,25.1252408 C189.378529,29.4882784 187.754611,33.5699813 184.7077,36.6859345 C182.169971,39.2594683 180.661864,42.7937395 180.394451,46.5510597 L180.394451,46.7052023 L182.70512,46.7052023 C183.247168,46.71982 183.740083,47.200264 183.783432,47.7842004 L183.783432,57.3410405 C183.760155,57.9342244 183.279374,58.4267949 182.70512,58.4200385 L179.470183,58.4200385 C179.142147,59.6296069 178.516991,60.6673339 177.621647,61.5028902 C178.853937,62.0934736 179.672834,63.3146476 179.624227,64.7398844 C179.672834,64.8365974 179.668773,64.9368229 179.624227,65.0481696 L179.624227,65.2023121 L192.255887,61.3487476 C192.255331,61.3159802 192.300458,61.305158 192.409932,61.3487476 C194.236006,60.9708681 196.115754,62.0375636 196.877226,63.8150289 C197.638704,65.9619951 196.541888,68.3406189 194.412512,69.0558767 L171.613906,77.6878613 L203.921688,77.6878613 C204.499395,77.761494 205,78.2623483 205,78.9210019 C205,79.487372 204.519219,79.9799425 203.921688,80 L126.078312,80 C125.501205,80 125,79.4991456 125,78.9210019 C125,78.274122 125.480781,77.7815515 126.078312,77.6878613 L159.136291,77.6878613 L150.047658,72.2928709 C149.972283,72.2414087 149.805854,72.1911614 149.585524,72.1387283 L146.658676,72.1387283 L146.658676,74.7591522 C146.696666,75.3494983 146.215885,75.8420688 145.580363,75.8381503 L134.489149,75.8381503 C133.849825,75.8621263 133.356909,75.3816823 133.410837,74.7591522 L133.410837,50.0963391 C133.336838,49.4766328 133.817618,48.9840623 134.489149,49.017341 L145.580363,49.017341 C146.182601,48.9646062 146.675516,49.4450502 146.658676,50.0963391 L146.658676,52.4084778 L150.817881,52.4084778 C153.088546,52.367796 154.593645,53.2124375 156.517532,54.7206166 L156.825621,54.8747592 L156.979666,55.1830443 L157.287755,55.3371869 L157.4418,55.4913295 L157.749889,55.6454721 L158.057979,55.9537572 L158.674157,56.5703276 L159.290336,57.0327553 L159.75247,57.3410405 L160.060559,57.6493256 L160.368648,57.9576108 L160.676737,58.1117534 C161.523317,58.8622782 162.495798,59.6182165 163.603585,60.4238921 C164.097409,60.8189409 164.710054,61.0404216 165.298076,61.0404624 L165.452121,61.0404624 L168.224924,61.0404624 C167.637209,60.3414751 167.163614,59.4956314 166.838523,58.5741811 L166.838523,58.4200385 L163.75763,58.4200385 C163.077388,58.4471603 162.584472,57.9667163 162.525273,57.3410405 L162.525273,47.7842004 C162.564401,47.2327559 163.045181,46.7401854 163.603585,46.7052023 L163.75763,46.7052023 L165.914255,46.7052023 C165.682784,42.9697233 164.142353,39.4129855 161.446961,36.5317919 C158.574582,33.4857146 157.006534,29.5449441 156.979666,25.433526 Z M150.817881,54.566474 L146.658676,54.566474 L146.658676,69.8265896 L149.585524,69.8265896 C150.124885,69.8792827 150.684824,70.0275765 151.12597,70.2890173 L151.280015,70.2890173 L162.525273,77.0712909 C163.533708,77.7104688 164.702842,77.8439961 165.76021,77.5337187 L165.914255,77.5337187 L193.642289,66.8978805 C194.68551,66.5944611 195.106645,65.4942408 194.720602,64.5857418 C194.453116,63.8147547 193.678616,63.3455055 192.872066,63.5067437 L192.872066,63.5067437 L176.697379,68.2851638 L176.697379,68.2851638 L176.543335,68.2851638 L176.543335,68.2851638 L176.543335,68.2851638 L176.543335,68.2851638 L176.543335,68.2851638 L176.543335,68.2851638 L176.38929,68.2851638 L176.38929,68.2851638 L176.235245,68.2851638 L176.235245,68.2851638 L175.773112,68.2851638 L175.773112,68.2851638 L169.149192,68.2851638 L169.149192,68.2851638 L163.911675,68.2851638 L163.911675,68.2851638 C163.267341,68.3544785 162.766078,67.8550629 162.833362,67.2061657 C162.766078,66.6320924 163.247491,66.1403475 163.911675,66.1271676 L163.911675,66.1271676 L175.927156,66.1271676 C176.789323,66.1203236 177.437587,65.4744486 177.467602,64.7398844 C177.437587,63.9000857 176.81187,63.2629862 176.081201,63.1984586 L175.927156,63.1984586 L165.452121,63.1984586 C164.235395,63.2402782 163.097344,62.8447103 162.217184,62.1194605 C161.745206,61.7921205 161.321259,61.4725065 160.984827,61.194605 L160.522693,60.8863198 C160.266113,60.6626758 160.017194,60.4687256 159.75247,60.2697495 L159.44438,59.9614644 C159.365935,59.9553741 159.308658,59.909882 159.290336,59.8073218 L158.982246,59.6531792 L158.982246,59.6531792 L158.520112,59.344894 L158.520112,59.344894 L158.212023,59.0366089 L158.212023,59.0366089 L158.057979,58.8824663 L158.057979,58.8824663 L157.595845,58.4200385 L157.595845,58.4200385 L157.133711,58.1117534 L157.133711,58.1117534 L155.901354,57.1868979 L155.901354,57.1868979 L155.593264,56.8786127 L155.593264,56.8786127 L155.43922,56.7244701 L155.43922,56.7244701 L155.285175,56.5703276 L155.285175,56.5703276 L154.977086,56.416185 L154.977086,56.416185 L154.823041,56.2620424 L154.823041,56.2620424 L154.668997,56.1078998 C153.280143,55.0547122 152.325774,54.5861394 150.817881,54.566474 L150.817881,54.566474 Z M144.502051,51.1753372 L135.567462,51.1753372 L135.567462,73.6801541 L144.502051,73.6801541 L144.502051,51.1753372 Z M177.005469,58.4200385 L169.149192,58.4200385 C169.772291,59.9055816 171.179944,60.937011 172.846263,61.0404624 L172.846263,61.0404624 L173.308397,61.0404624 C174.914396,60.9672679 176.33548,59.9545571 177.005469,58.4200385 L177.005469,58.4200385 Z M181.626808,53.6416185 L164.835942,53.6416185 L164.835942,56.1078998 L181.626808,56.1078998 L181.626808,53.6416185 Z M181.626808,48.8631985 L164.835942,48.8631985 L164.835942,51.3294798 L181.626808,51.3294798 L181.626808,48.8631985 Z M173.770531,11.4065511 C165.781628,11.1420821 159.290336,17.4777735 159.290336,25.2793834 C159.290336,28.883517 160.616069,32.2505073 162.987407,34.8362235 L163.141451,34.9903661 C166.160131,38.1531123 167.963696,42.2517017 168.224924,46.5510597 L168.224924,46.7052023 L178.237826,46.7052023 C178.443095,42.25539 180.144125,38.2218493 183.013209,35.2986513 L183.167254,35.1445087 C185.795876,32.4674007 187.226886,28.9106106 187.172414,25.1252408 C187.063427,17.8260037 181.040471,11.6722926 173.770531,11.4065511 Z M153.43664,24.2003854 C154.01718,24.2003854 154.514952,24.7172332 154.514952,25.433526 C154.514952,25.9828918 154.036892,26.4918012 153.43664,26.5125241 L153.43664,26.5125241 L148.8153,26.5125241 C148.23476,26.5125241 147.736988,25.995056 147.736988,25.433526 C147.736988,24.7300176 148.215048,24.2211082 148.8153,24.2003854 L148.8153,24.2003854 L153.43664,24.2003854 Z M197.33936,24.2003854 C197.919901,24.2003854 198.417673,24.7172332 198.417673,25.433526 C198.417673,25.9828918 197.939613,26.4918012 197.33936,26.5125241 L197.33936,26.5125241 L192.718021,26.5125241 C192.13748,26.5125241 191.639709,25.995056 191.639709,25.433526 C191.639709,24.7300176 192.117769,24.2211082 192.718021,24.2003854 L192.718021,24.2003854 L197.33936,24.2003854 Z M155.13113,7.39884393 C155.588434,6.98958687 156.284362,6.97995486 156.671577,7.39884393 L156.825621,7.39884393 L160.060559,10.6358382 C160.479412,11.1456247 160.479381,11.863932 160.060559,12.3314066 C159.603267,12.7406636 158.907339,12.7502956 158.520112,12.3314066 L158.366068,12.3314066 L155.13113,9.09441233 C154.712289,8.58462574 154.712289,7.86631846 155.13113,7.39884393 Z M189.483084,7.39884393 C189.992547,6.97973572 190.710397,6.97973572 191.177575,7.39884393 C191.586572,7.85643863 191.596198,8.55280867 191.177575,8.94026975 L191.177575,9.09441233 L187.942638,12.3314066 C187.433175,12.7505265 186.715324,12.7504952 186.248147,12.3314066 C185.83915,11.8738236 185.829524,11.1774535 186.248147,10.7899807 L186.248147,10.6358382 L189.483084,7.39884393 Z M173.308397,0 C173.857414,0 174.366,0.478407019 174.38671,1.07899807 L174.38671,1.07899807 L174.38671,5.70327553 C174.38671,6.28414051 173.87019,6.7822736 173.308397,6.7822736 C172.605336,6.7822736 172.09675,6.30327778 172.07604,5.70327553 L172.07604,5.70327553 L172.07604,1.07899807 C172.07604,0.498133089 172.59256,0 173.308397,0 Z" id="ic-OUR-VISION"></path>
                </g>
            </g>
        </g>
    </g>
</svg>