<?xml version="1.0" encoding="UTF-8"?>
<svg width="81px" height="80px" viewBox="0 0 81 80" version="1.1" xmlns="http://www.w3.org/2000/svg" xmlns:xlink="http://www.w3.org/1999/xlink">
    <title>ic-OUR MISSION</title>
    <g id="Page-1" stroke="none" stroke-width="1" fill="none" fill-rule="evenodd">
        <g id="About-Us" transform="translate(-310.000000, -958.000000)" fill="#FFFFFE" fill-rule="nonzero">
            <g id="Order-card-Copy-21" transform="translate(165.000000, 926.000000)">
                <g id="Group-10" transform="translate(20.000000, 32.000000)">
                    <path d="M203.652845,2.13333333 L171.014589,2.13333333 L171.014589,1.06666667 C170.914494,0.539271735 170.373775,0 169.676956,0 C169.036809,0 168.495509,0.538692799 168.606849,1.06666667 L168.606849,40 L164.593949,40 C163.885722,39.8972017 163.344421,40.4358945 163.256316,41.0666667 L163.256316,43.7333333 L160.313522,43.7333333 C158.061197,43.571844 156.134728,45.1768335 155.765569,47.4666667 L155.765569,47.7333333 C155.54683,48.4287632 154.945576,48.9297657 154.160408,49.0666667 L150.415035,49.0666667 L150.415035,46.4 C150.410827,45.7063672 149.870108,45.1670955 149.077401,45.0666667 L135.433541,45.0666667 C134.712453,45.1670955 134.171153,45.7057883 134.363434,46.4 L134.363434,77.6 L126.070107,77.6 C125.541301,77.5900812 125,78.128774 125,78.9333333 C125,79.4607283 125.54072,80 126.070107,80 L203.920372,80 C204.537601,80 205.078902,79.4613072 204.990478,78.9333333 C205.078902,78.1293529 204.538182,77.5900812 203.920372,77.6 L150.415035,77.6 L176.097596,77.6 C177.160819,77.5839362 178.131739,77.2189995 178.900948,76.6186317 C179.96729,75.7863502 180.645986,74.5016199 180.64555,73.0666667 C180.6463,72.109275 180.336655,71.2140019 179.84297,70.4 C181.306341,69.6767628 182.17995,68.1435614 182.25071,66.4 C182.17995,65.7505505 181.981477,65.0187898 181.715657,64.5333333 C183.701457,64.015033 185.345116,62.1947683 185.46103,60 C185.345116,57.8707079 183.890006,56.1108901 181.983184,55.7333333 C182.500114,54.6344986 182.668906,53.4568383 182.25071,52.2666667 C181.884893,50.3161831 180.029365,48.9292596 177.970283,49.0666667 L176.097596,49.0666667 L176.097596,41.0666667 C176.067357,40.4360563 175.526637,39.8967846 175.02749,40 L171.014589,40 L171.014589,24 L199.639945,24 C199.879622,24.0176011 200.250373,23.8233458 200.442525,23.4666667 C200.702629,23.1750559 200.754438,22.7610273 200.442525,22.4 L197.232204,13.3333333 L204.455425,4.26666667 C204.750149,3.86387872 204.804282,3.37099611 204.455425,2.93333333 C204.397905,2.53921369 203.975345,2.27538203 203.652845,2.13333333 Z M136.466667,47.7333333 L147.933333,47.7333333 L147.933333,77.6 L136.466667,77.6 L136.466667,47.7333333 Z M179.666667,53.0666667 C180.072311,54.4710804 179.019301,55.6983863 177.8,55.7333333 L168.466667,55.7333333 C167.748742,55.6983863 167.211553,56.240056 167.133333,56.8 C167.211553,57.5793708 167.748165,58.1216226 168.466667,58.1333333 L180.466667,58.1333333 C181.671795,58.1216226 182.6,59.0504571 182.6,60 C182.6,61.3489223 181.656741,62.2823991 180.466667,62.1333333 C179.292568,62.2783175 185.020808,62.2975585 168.466667,62.1333333 C167.748742,62.2421675 167.211553,62.7838372 167.133333,63.4666667 C167.211553,64.123152 167.748165,64.6654037 168.466667,64.5333333 C168.617488,64.66657 177.200465,64.7056353 177.533333,64.8 C178.53755,64.7056353 179.458909,65.6426198 179.4,66.9333333 C179.458909,67.3451423 179.24346,67.8722437 178.866667,68.2666667 C178.470594,68.6640525 177.952466,68.8826966 177.533333,68.8 C174.727059,68.8908595 166.902575,68.9141827 166.866667,68.8 C166.029186,68.9147648 165.491998,69.4564345 165.533333,70.1333333 C165.491998,70.7957493 166.028609,71.3380011 166.866667,71.2 L175.933333,71.2 C176.02783,71.3380011 176.045159,71.3269227 176.2,71.2 C177.112027,71.4277938 177.936249,72.3029839 177.8,73.3333333 C177.936249,74.5530124 176.97393,75.4666667 175.933333,75.4666667 L150.333333,75.4666667 L150.333333,51.4666667 L154.066667,51.4666667 C155.996376,51.5209082 157.585405,50.1792649 157.8,48.2666667 L158.066667,48 C158.171109,46.9082901 159.089525,46.1333333 160.2,46.1333333 L162.866667,46.1333333 L162.866667,50.4 C162.833789,50.9943293 163.36751,51.5208336 163.933333,51.4666667 L177.533333,51.4666667 C178.604048,51.5208336 179.508017,52.1750345 179.666667,53.0666667 L179.666667,53.0666667 Z M173.8,49.0666667 L165.8,49.0666667 L165.8,42.4 L173.8,42.4 L173.8,49.0666667 Z M194.866667,12.5333333 C194.618434,12.7872947 194.548504,13.2265116 194.866667,13.6 L197.8,21.6 L170.866667,21.6 L170.866667,4.8 L201,4.8 L194.866667,12.5333333 Z" id="ic-OUR-MISSION"></path>
                </g>
            </g>
        </g>
    </g>
</svg>