<?xml version="1.0" encoding="UTF-8"?>
<svg width="80px" height="81px" viewBox="0 0 80 81" version="1.1" xmlns="http://www.w3.org/2000/svg" xmlns:xlink="http://www.w3.org/1999/xlink">
    <title>ic-PHILOSOPHY</title>
    <g id="Page-1" stroke="none" stroke-width="1" fill="none" fill-rule="evenodd">
        <g id="About-Us" transform="translate(-1050.000000, -958.000000)" fill="#FFFFFF" fill-rule="nonzero">
            <g id="Order-card-Copy-23" transform="translate(905.000000, 926.000000)">
                <g id="Group-10" transform="translate(20.000000, 32.000000)">
                    <path d="M203.812616,77.6252319 L186.447124,77.6252319 L186.447124,63.5250464 C186.471076,61.8722616 186.12219,60.2714746 185.556586,58.7755102 L185.556586,58.7755102 L188.2282,57.1428571 C189.276617,58.1763716 190.661658,58.7783612 192.235622,58.7755102 C195.296908,58.7783612 197.837594,56.2384301 197.875696,53.135436 C197.837594,50.4000741 195.922844,48.1370511 193.423006,47.6437848 L193.423006,27.903525 C195.923437,27.3008062 197.837594,25.0378425 197.875696,22.2634508 C197.837594,19.1994865 195.296908,16.6595554 192.235622,16.6233766 C190.745749,16.6595554 189.433078,17.2012541 188.376623,18.1076067 C188.432841,18.0807312 188.432261,18.0813105 188.376623,18.1076067 L169.972171,7.42115028 C169.925356,7.39615414 169.927094,7.39383668 169.972171,7.42115028 C170.096316,6.8492412 170.192528,6.27160525 170.120594,5.64007421 C170.192528,2.55209309 167.651842,0 164.480519,0 C161.40257,0 158.849718,2.55209309 158.840445,5.64007421 C158.849718,6.27167941 158.945922,6.86147736 159.137291,7.42115028 L159.137291,7.42115028 L140.584416,18.1076067 C140.6098,18.0826916 140.60922,18.081533 140.584416,18.1076067 C139.608937,17.2014766 138.296297,16.6597779 136.87384,16.6233766 C133.744574,16.6597779 131.203888,19.199709 131.233766,22.2634508 C131.203888,25.0362852 133.116412,27.2975284 135.686456,27.903525 L135.686456,48.5343228 C133.115819,49.0678302 131.203888,51.3290585 131.233766,54.025974 C131.203888,57.1777968 133.744574,59.7177278 136.87384,59.6660482 C138.689751,59.7177278 140.311932,58.8544776 141.326531,57.5881262 L144.294991,59.2207792 C143.798347,60.5885126 143.521906,62.0433407 143.552876,63.5250464 L143.552876,77.6252319 L126.187384,77.6252319 C125.539545,77.5911302 125,78.1293583 125,78.812616 C125,79.4601635 125.538967,79.99897 126.187384,80 C148.762604,79.99897 134.335216,80.0012875 203.812616,80 C204.461033,79.99897 205,79.4607419 205,78.812616 C205,78.1299367 204.461033,77.5911302 203.812616,77.6252319 L203.812616,77.6252319 Z M195.500928,53.135436 C195.500928,54.9401078 194.040382,56.4007421 192.235622,56.4007421 C190.390809,56.4007421 188.970315,54.887751 188.970315,53.135436 C188.970315,51.3679496 190.415171,49.8701299 192.235622,49.8701299 C194.059612,49.8695491 195.500928,51.3447609 195.500928,53.135436 Z M188.970315,22.2634508 C188.994716,20.4343856 190.455267,18.9981447 192.235622,18.9981447 C194.040426,18.9981447 195.500928,20.4588237 195.500928,22.2634508 C195.500928,24.0681226 194.040382,25.528757 192.235622,25.528757 C190.440781,25.528757 188.970315,24.0622622 188.970315,22.2634508 L188.970315,22.2634508 Z M190.899814,27.903525 L190.899814,47.6437848 C189.818852,47.8423035 188.858111,48.3830455 188.079777,49.1280148 L176.057514,40.2226345 C176.499966,39.1544691 176.716152,38.0012227 176.799629,36.8089054 C176.884373,34.4924627 176.31962,32.245577 175.166976,30.2782931 L187.337662,25.528757 C188.185312,26.7299732 189.434485,27.6073038 190.899814,27.903525 L190.899814,27.903525 Z M168.636364,9.49907236 L186.892393,20.0371058 C186.581335,20.7242184 186.400956,21.5031408 186.447124,22.2634508 C186.400956,22.6178419 186.425238,22.9061953 186.447124,23.1539889 L173.682746,28.2003711 C171.566398,25.9311766 168.743255,24.5986535 165.667904,24.3413729 L165.667904,11.2801484 C166.84331,10.9726731 167.874733,10.3613219 168.636364,9.49907236 L168.636364,9.49907236 Z M174.424861,36.6604824 C174.138868,42.0574257 169.637518,45.945915 164.628942,45.7142857 C159.446745,45.4826653 155.352249,41.1409593 155.575139,35.9183673 C155.805342,30.8927123 159.882586,26.864564 164.925788,26.864564 C171.976785,28.1098601 174.611113,32.0776626 174.424861,36.6604824 Z M164.480519,2.37476809 C166.276334,2.37476809 167.745826,3.84476449 167.745826,5.64007421 C167.745826,7.47254097 166.235655,8.90538033 164.480519,8.90538033 C162.719,8.90538033 161.215213,7.45045161 161.215213,5.64007421 C161.215793,3.84471995 162.685343,2.37476809 164.480519,2.37476809 Z M142.068646,20.0371058 L160.324675,9.49907236 C160.312929,9.49965158 160.313507,9.50081002 160.324675,9.49907236 C161.095115,10.3563737 162.127652,10.9703851 163.293135,11.2801484 L163.293135,24.4897959 C160.482359,24.9310998 157.984302,26.3149906 156.168831,28.3487941 L142.513915,22.7087199 C142.561294,22.5839334 142.561294,22.463443 142.513915,22.4118738 C142.561294,21.5244679 142.380914,20.7546181 142.068646,20.0371058 L142.068646,20.0371058 Z M133.608534,22.2634508 C133.608534,20.4581841 135.06908,18.9981447 136.87384,18.9981447 C138.611272,18.9981447 140.139147,20.3768973 140.139147,22.2634508 C140.139147,24.0959371 138.65943,25.528757 136.87384,25.528757 C135.069036,25.528757 133.608534,24.068078 133.608534,22.2634508 L133.608534,22.2634508 Z M136.87384,57.2912801 C135.067054,57.2912801 133.608534,55.8212837 133.608534,54.025974 C133.608534,52.2306643 135.067099,50.7606679 136.87384,50.7606679 C138.388678,50.7606679 139.652184,51.809675 139.990724,53.135436 C140.602628,55.1074323 139.090104,57.2912801 136.87384,57.2912801 Z M140.584416,49.7217069 C139.832807,49.1188162 138.991816,48.6847783 138.061224,48.5343228 C138.064695,48.4793674 138.063538,48.4793674 138.061224,48.5343228 L138.061224,27.755102 C138.06296,27.7922075 138.064116,27.7922075 138.061224,27.755102 C139.700305,27.4307048 141.069877,26.3694147 141.7718,24.9350649 L154.684601,30.2782931 C153.771356,31.867431 153.218449,33.6877192 153.200371,35.6215213 C153.074392,37.0514201 153.254843,38.4376407 153.64564,39.7773655 L140.584416,49.7217069 Z M184.072356,77.6252319 L145.927644,77.6252319 L145.927644,63.5250464 C145.927644,58.1343489 150.323568,53.729128 155.723562,53.729128 L159.58256,53.729128 L164.03525,59.5176252 C164.271328,59.8608636 164.620304,60.0299131 164.925788,59.9628942 C165.366992,60.0299131 165.716547,59.8608636 165.96475,59.5176252 L170.41744,53.729128 L174.276438,53.729128 C179.675897,53.729128 184.071822,58.1343489 184.072356,63.5250464 L184.072356,77.6252319 Z M184.517625,56.5491651 C182.275868,53.3909418 178.573168,51.2767686 174.424861,51.2059369 L169.972171,51.2059369 C169.624962,51.2767686 169.274945,51.4449997 169.081633,51.7996289 L165.074212,56.8460111 L161.215213,51.7996289 C160.917629,51.4450145 160.568207,51.2767686 160.176252,51.2059369 L155.871985,51.2059369 C151.463217,51.2767686 147.628268,53.5592172 145.482375,56.9944341 L142.513915,55.2133581 C142.725705,54.1633513 142.64212,52.8261756 142.068646,51.6512059 L154.833024,42.0037106 C156.770376,45.4729674 160.381838,47.7826479 164.628942,47.9406308 C164.741597,47.9855598 164.934296,47.9855598 165.074212,47.9406308 C169.35275,47.9855598 173.107012,45.755207 175.166976,42.3005566 L187.040816,51.0575139 L187.040816,51.0575139 C186.774964,51.6735053 186.642625,52.3337312 186.595547,52.987013 C186.642625,53.7750393 186.787158,54.4838238 187.040816,55.0649351 L184.517625,56.5491651 Z" id="ic-PHILOSOPHY"></path>
                </g>
            </g>
        </g>
    </g>
</svg>